<?xml version="1.0" encoding="UTF-8" standalone="no"?>
<svg
   width="400pt"
   height="512pt"
   version="1.1"
   viewBox="0 0 400 511.99998"
   id="svg4"
   sodipodi:docname="bulldog.svg"
   inkscape:version="1.1.2 (0a00cf5339, 2022-02-04)"
   xmlns:inkscape="http://www.inkscape.org/namespaces/inkscape"
   xmlns:sodipodi="http://sodipodi.sourceforge.net/DTD/sodipodi-0.dtd"
   xmlns="http://www.w3.org/2000/svg"
   xmlns:svg="http://www.w3.org/2000/svg">
  <defs
     id="defs8" />
  <sodipodi:namedview
     id="namedview6"
     pagecolor="#ffffff"
     bordercolor="#666666"
     borderopacity="1.0"
     inkscape:pageshadow="2"
     inkscape:pageopacity="0.0"
     inkscape:pagecheckerboard="0"
     inkscape:document-units="pt"
     showgrid="false"
     inkscape:zoom="0.90255065"
     inkscape:cx="113.56703"
     inkscape:cy="327.95943"
     inkscape:window-width="1920"
     inkscape:window-height="991"
     inkscape:window-x="0"
     inkscape:window-y="0"
     inkscape:window-maximized="1"
     inkscape:current-layer="svg4"
     fit-margin-top="0"
     fit-margin-left="0"
     fit-margin-right="0"
     fit-margin-bottom="0" />
  <path
     d="m 392.6628,10.403072 c -3.20632,-5.8936786 -20.84468,-19.2877756 -35.27657,2.14146 -14.43188,21.428949 -27.25746,58.398142 -27.25746,58.398142 l -7.48253,-0.534422 c -7.4825,-0.534423 -16.03531,2.679624 -16.03531,2.679624 -4.27631,-1.60703 -9.61871,1.607027 -12.82846,1.072595 -3.2063,-0.534422 -8.55251,-3.214054 -12.82844,-5.893678 C 276.67771,66.125333 267.59205,51.120189 259.57678,29.156426 251.56113,6.6540204 234.45627,7.7274774 228.57702,7.7274774 222.69756,8.2618994 207.73233,17.908093 204.5264,48.445159 c -3.20629,30.540892 3.20632,61.077951 9.61873,66.971451 6.94936,5.35923 1.07,11.2531 1.60314,15.00159 0.53314,3.75223 3.2063,11.78698 1.60315,13.39429 -1.60315,2.14148 -8.55254,5.89367 -17.63781,5.89367 -8.55252,0 -23.51802,-11.78697 -43.29182,-18.7539 -19.77383,-6.96696 -65.206454,-6.9662 -93.533824,22.50239 -27.79386,29.4684 -34.739222,54.11198 -37.949914,66.97145 -3.2063,13.3943 1.60315,24.10878 -7.482513,44.46904 -8.552521,20.36028 -6.94937,38.04169 -5.346316,46.07636 1.60315,8.03503 -2.673158,18.21528 -4.276307,21.42895 -1.603151,3.7522 1.070007,15.00161 1.603149,19.82259 0.533133,4.82108 -1.603149,26.78858 -5.346315,47.68367 -3.7431673,20.89509 1.60315,29.46839 4.276308,31.07474 2.673158,1.60703 11.758534,-0.53442 11.758534,-0.53442 l 2.136294,1.07261 c 2.136292,1.07258 6.949369,1.60702 14.43188,0.5344 8.01566,-1.60702 4.80946,-6.96615 4.80946,-6.96615 0,0 4.27631,-0.53444 4.27631,-4.8211 0.53312,-4.28664 -4.80945,-10.18063 -9.08567,-15.00162 -4.276308,-4.82106 -3.206301,-19.82258 -2.673158,-32.14819 0.533133,-12.32179 5.879458,-20.36028 6.949378,-25.18126 0.53313,-4.82109 19.24123,-39.11037 19.24123,-39.11037 l 5.87946,-5.89369 c 5.87946,-5.89366 13.8955,-26.25375 13.8955,-26.25375 0,0 5.34631,0.53443 10.68862,0.53443 5.346314,-0.53443 8.552534,3.21405 13.361974,11.78697 4.2763,8.5732 14.96542,24.6474 14.96542,26.78857 0,2.14119 -2.1363,25.18127 -3.2063,35.36189 -1.07001,10.71447 -6.94938,21.42894 -6.94938,27.3234 0,5.89367 3.20631,16.0741 5.87945,18.7539 3.20632,2.67962 8.01567,1.60703 8.01567,1.60703 l 6.94938,2.14146 c 6.94936,2.14147 10.68862,-0.53443 14.9654,-2.14146 4.27631,-2.14145 2.1363,-5.89369 2.67316,-8.5732 0.53313,-2.67962 -2.67316,-9.10763 -3.74317,-10.71448 -1.07,-1.60703 -5.3463,-11.78697 -4.2763,-32.68207 1.07,-20.89508 9.08566,-23.57489 9.08566,-23.57489 0,0 3.2063,1.07258 4.80945,2.14144 1.60314,1.07261 12.82845,5.89369 13.36198,9.642 0.53313,3.21404 5.3463,56.25697 5.87944,62.15044 0.53315,5.89369 2.67318,20.89509 6.94938,26.78857 4.27631,5.89369 4.27631,20.8951 7.4825,32.14822 3.20631,11.2531 0.53316,33.75455 0,40.71768 -0.53312,6.96618 2.67319,10.71447 7.48254,12.32179 4.80945,1.60702 12.82844,-1.60704 12.82844,-1.60704 0,0 3.20631,2.14148 9.61871,4.28667 6.41262,2.14145 16.03532,0 16.03532,0 l 5.34632,-1.07261 c 5.34631,-1.07258 4.27631,-9.10764 4.27631,-9.10764 0,0 2.67315,1.07259 4.27631,0 1.60315,-1.07258 1.07,-4.28664 0.53315,-8.57318 -0.53315,-4.28668 -14.43189,-15.53548 -16.03534,-17.14664 -2.13629,-1.60701 -3.20629,-13.39426 -5.87945,-18.21526 -2.1363,-4.28665 -3.74317,-19.82259 -4.27631,-23.57491 -0.53314,-3.75222 -1.07001,-18.21527 -2.1363,-25.18126 -1.07,-6.96616 3.74315,-27.86108 4.80946,-35.36188 0.53313,-3.75222 3.20629,-6.42811 7.48249,-8.03504 0.53315,-2.14145 1.60316,-6.96619 6.9494,-8.57319 6.94935,-2.14147 21.91457,-8.57323 23.51801,-12.85949 2.1363,-4.28665 4.2763,-5.89367 4.2763,-7.50061 0,-1.0726 4.27632,-13.92911 -4.2763,-16.0741 -8.01565,-2.67963 -10.15605,-10.18063 -9.08566,-17.1466 1.07001,-6.42812 4.80945,-13.92911 6.41261,-18.21527 1.60314,-4.8211 -0.53315,-3.21407 3.74314,-6.9662 4.27632,-3.21405 4.80947,-3.75221 7.48253,-6.96618 2.13629,-2.67962 1.60313,-3.75221 3.74316,-4.82107 2.13629,-1.60703 5.87946,-1.60703 7.48252,-3.21404 1.60314,-1.60705 1.60314,-4.28666 1.60314,-5.89369 0,-1.60704 -0.53313,-2.67964 -0.53313,-4.28666 0,-1.60702 -9.6187,-2.67962 -10.15605,-5.35925 -0.53313,-2.67962 28.32739,-1.07258 28.32739,0 0.53312,1.07261 -9.08566,2.14146 1.60314,2.14146 1.60315,0 11.22596,-1.60701 13.36198,0 2.13629,1.60702 -5.87947,5.89371 -4.80944,7.50062 1.07,1.60703 1.07,6.4281 0,8.03504 -1.07003,1.60704 -3.20631,4.82109 -3.74318,7.50062 -0.53314,2.6796 -2.13628,2.14145 -0.53314,4.28664 1.60314,2.14147 0.53314,2.67965 2.67317,4.28664 2.13629,1.60704 0.53312,-0.53441 6.41259,4.82112 5.87945,5.35922 8.01566,10.71446 6.94937,17.14658 -1.07,6.42811 -1.07,11.25313 -10.15604,18.21527 -9.08567,7.50062 -19.24125,12.85948 -25.12052,18.75392 -5.87926,5.89445 -11.22596,2.67962 -17.63782,7.50061 -6.41258,4.8211 -10.15603,11.78698 -17.63779,13.39428 11.75856,-1.07259 22.98069,-7.5006 29.92986,-11.78696 8.01568,-4.82108 10.68862,-4.28665 10.15607,-1.60703 -1.07001,2.14146 0.53313,4.28665 0,13.39428 -0.53313,9.10765 -0.53313,35.89671 3.20628,48.75618 3.74317,12.85948 5.34632,26.25376 2.67318,32.68206 -2.67318,6.42812 3.20629,11.78698 6.41261,15.53546 3.20628,4.28664 5.3463,10.71449 5.87945,13.39429 0.53312,2.67962 4.2763,3.75221 11.22597,7.50062 6.94935,3.75222 14.43187,-1.60704 14.43187,-1.60704 0,0 2.67316,-0.53441 11.22596,1.60704 8.55254,2.14145 11.75854,-3.21405 11.75854,-3.21405 0,0 5.34632,-0.53443 3.74317,-9.64198 -1.60316,-9.10764 -16.03533,-13.39429 -22.44811,-18.75393 -6.41262,-5.89368 -12.82845,-27.32339 -9.61871,-44.46903 3.2063,-17.14662 18.70867,-43.93519 16.03532,-63.21913 -2.67316,-19.8226 5.87947,-31.07477 12.82845,-43.93518 6.94899,-12.86043 -0.53313,-33.75458 -4.80945,-48.21753 -4.27631,-14.46678 -1.60316,-14.46678 -1.60316,-14.46678 l 5.34632,-1.07261 c 5.34631,-1.0726 9.08566,-4.28664 11.75853,-6.96618 2.13631,-2.14146 4.27632,-11.25312 10.68863,-22.5024 6.4126,-11.78697 13.36199,-33.75456 10.15606,-46.07635 -3.20631,-12.32179 -2.1363,-21.42896 -1.60316,-25.18126 0.53315,-3.21406 -1.60315,-18.75393 -1.60315,-18.75393 0,0 3.20631,-3.21406 5.34633,-9.64196 2.13629,-5.893687 2.13629,-14.466797 0.53312,-19.822597 -1.60315,-5.359248 -0.53312,-18.753919 2.67316,-33.754567 5.33887,-16.589785 -0.5406,-33.197744 -3.74689,-39.091232 z"
     id="path2"
     style="stroke-width:0.955581" />
</svg>
