<?xml version="1.0" encoding="UTF-8" standalone="no"?>
<svg
   width="414.66pt"
   height="535.15pt"
   version="1.1"
   viewBox="0 0 414.66 535.15"
   id="svg4"
   sodipodi:docname="uEA02-bulldog.svg"
   inkscape:version="1.1.2 (0a00cf5339, 2022-02-04)"
   xmlns:inkscape="http://www.inkscape.org/namespaces/inkscape"
   xmlns:sodipodi="http://sodipodi.sourceforge.net/DTD/sodipodi-0.dtd"
   xmlns="http://www.w3.org/2000/svg"
   xmlns:svg="http://www.w3.org/2000/svg">
  <defs
     id="defs8" />
  <sodipodi:namedview
     id="namedview6"
     pagecolor="#ffffff"
     bordercolor="#666666"
     borderopacity="1.0"
     inkscape:pageshadow="2"
     inkscape:pageopacity="0.0"
     inkscape:pagecheckerboard="0"
     inkscape:document-units="pt"
     showgrid="false"
     inkscape:zoom="0.90255065"
     inkscape:cx="276.43878"
     inkscape:cy="356.76668"
     inkscape:window-width="1920"
     inkscape:window-height="991"
     inkscape:window-x="0"
     inkscape:window-y="0"
     inkscape:window-maximized="1"
     inkscape:current-layer="svg4" />
  <path
     d="m 402.66817,20.468567 c -3.24702,-5.923337 -21.10938,-19.3848365 -35.72453,2.152236 -14.61515,21.536784 -27.6036,58.692015 -27.6036,58.692015 l -7.57753,-0.537112 c -7.57753,-0.537112 -16.23895,2.693108 -16.23895,2.693108 -4.33061,-1.615115 -9.74086,1.615114 -12.99135,1.077993 -3.24702,-0.537112 -8.66113,-3.230229 -12.99135,-5.923337 C 285.21024,76.471234 276.0092,61.390581 267.89215,39.316291 259.7747,16.700649 242.45264,17.779508 236.49872,17.779508 c -5.95412,0.537111 -21.10938,10.231846 -24.35601,40.922581 -3.24702,30.694581 3.24702,61.385311 9.74086,67.308461 7.03761,5.38621 1.08359,11.30974 1.6235,15.07709 0.53991,3.7711 3.24702,11.84629 1.62351,13.46169 -1.62351,2.15224 -8.66113,5.92334 -17.86178,5.92334 -8.66113,0 -23.81667,-11.84629 -43.84158,-18.84829 -20.02491,-7.00201 -66.034462,-7.00124 -94.721563,22.61564 -28.146801,29.61668 -35.180361,54.38427 -38.431823,67.30846 -3.247017,13.46169 1.623508,24.23008 -7.577532,44.69282 -8.661126,20.46273 -7.037618,38.23313 -5.414207,46.30822 1.623509,8.07547 -2.707103,18.30694 -4.330611,21.53678 -1.623509,3.7711 1.083595,15.0771 1.623508,19.92234 0.539903,4.84535 -1.623508,26.92339 -5.4142072,47.92363 -3.7906989,21.00024 1.6235082,29.61668 4.3306112,31.23112 2.707104,1.61512 11.907854,-0.53711 11.907854,-0.53711 l 2.163421,1.07799 c 2.163421,1.078 7.037618,1.61512 14.61515,0.53712 8.117444,-1.61512 4.870525,-7.00124 4.870525,-7.00124 0,0 4.330611,-0.53711 4.330611,-4.84534 0.539904,-4.30822 -4.870524,-10.23185 -9.201039,-15.0771 -4.330612,-4.84534 -3.247017,-19.92234 -2.707104,-32.30998 0.539903,-12.3838 5.95412,-20.46273 7.037619,-25.30798 0.539903,-4.84534 19.485578,-39.30718 19.485578,-39.30718 l 5.95412,-5.92334 c 5.95412,-5.92333 14.071951,-26.38587 14.071951,-26.38587 0,0 5.414207,0.53711 10.824354,0.53711 5.414204,-0.53711 8.661124,3.23023 13.531654,11.84629 4.33061,8.61634 15.15545,24.77143 15.15545,26.92338 0,2.15195 -2.16342,25.30798 -3.24702,35.53983 -1.08359,10.76839 -7.03762,21.53678 -7.03762,27.46089 0,5.92334 3.24702,16.15499 5.95412,18.84829 3.24702,2.69311 8.11745,1.61511 8.11745,1.61511 l 7.03762,2.15224 c 7.03761,2.15224 10.82435,-0.53711 15.15545,-2.15224 4.33061,-2.15223 2.16342,-5.92333 2.7071,-8.61634 0.5399,-2.69311 -2.7071,-9.15347 -3.7907,-10.7684 -1.0836,-1.61511 -5.41421,-11.84628 -4.33061,-32.84652 1.08359,-21.00024 9.20104,-23.69354 9.20104,-23.69354 0,0 3.24701,1.07799 4.87052,2.15223 1.62351,1.078 12.99135,5.92334 13.53165,9.6905 0.53991,3.23023 5.41421,56.54007 5.95412,62.46321 0.53991,5.92334 2.70711,21.00024 7.03762,26.92338 4.33061,5.92334 4.33061,21.00024 7.57753,32.30999 3.24702,11.30974 0.53991,33.92442 0,40.92258 -0.5399,7.00123 2.70711,10.76839 7.57754,12.38379 4.87052,1.61512 12.99135,-1.61511 12.99135,-1.61511 0,0 3.24701,2.15224 9.74085,4.30822 6.49404,2.15224 16.23895,0 16.23895,0 l 5.41421,-1.07799 c 5.41421,-1.07799 4.33061,-9.15347 4.33061,-9.15347 0,0 2.7071,1.07799 4.33061,0 1.62351,-1.07799 1.0836,-4.30822 0.53991,-8.61635 -0.53991,-4.30822 -14.61515,-15.61364 -16.23895,-17.23289 -2.16342,-1.61511 -3.24702,-13.46169 -5.95412,-18.30694 -2.16342,-4.30822 -3.7907,-19.92234 -4.33061,-23.69354 -0.53991,-3.7711 -1.0836,-18.30694 -2.16343,-25.30798 -1.08359,-7.00123 3.7907,-28.00128 4.87053,-35.53983 0.5399,-3.7711 3.24702,-6.46045 7.57753,-8.07547 0.5399,-2.15224 1.62351,-7.00124 7.03762,-8.61635 7.03762,-2.15224 22.19287,-8.61635 23.81667,-12.92419 2.16342,-4.30822 4.33061,-5.92333 4.33061,-7.53835 0,-1.07799 4.33062,-13.9992 -4.33061,-16.15499 -8.11744,-2.69311 -10.28502,-10.23185 -9.20104,-17.23289 1.0836,-6.46046 4.87053,-13.9992 6.49404,-18.30694 1.6235,-4.84535 -0.53991,-3.23023 3.79069,-7.00124 4.33062,-3.23022 4.87053,-3.7711 7.57754,-7.00123 2.16342,-2.69311 1.6235,-3.7711 3.79069,-4.84534 2.16343,-1.61512 5.95412,-1.61512 7.57754,-3.23023 1.6235,-1.61512 1.6235,-4.30822 1.6235,-5.92334 0,-1.61511 -0.5399,-2.69311 -0.5399,-4.30822 0,-1.61512 -9.74085,-2.69311 -10.28502,-5.38622 -0.5399,-2.6931 28.6871,-1.07799 28.6871,0 0.5399,1.078 -9.20104,2.15224 1.62351,2.15224 1.62351,0 11.36852,-1.61511 13.53165,0 2.16342,1.61511 -5.95412,5.92334 -4.87052,7.53836 1.08359,1.61511 1.08359,6.46045 0,8.07547 -1.0836,1.61512 -3.24702,4.84535 -3.7907,7.53836 -0.53991,2.6931 -2.16342,2.15223 -0.53991,4.30822 1.62351,2.15224 0.53991,2.69311 2.70711,4.30822 2.16342,1.61512 0.5399,-0.53711 6.49403,4.84535 5.95412,5.38621 8.11744,10.76839 7.03762,17.23288 -1.0836,6.46046 -1.0836,11.30975 -10.28502,18.30694 -9.20104,7.53836 -19.48558,12.92419 -25.43951,18.8483 -5.95392,5.9241 -11.36852,2.6931 -17.86178,7.53835 -6.49403,4.84534 -10.28502,11.84629 -17.86178,13.46169 11.90786,-1.07799 23.27251,-7.53835 30.30993,-11.84629 8.11745,-4.84534 10.82436,-4.30822 10.28503,-1.61511 -1.0836,2.15224 0.5399,4.30822 0,13.46169 -0.53991,9.15347 -0.53991,36.07734 3.24701,49.00152 3.7907,12.92419 5.41421,26.38588 2.70711,32.84653 -2.70711,6.46046 3.24701,11.84629 6.49403,15.61364 3.24702,4.30822 5.41421,10.76839 5.95412,13.46169 0.5399,2.69311 4.33061,3.7711 11.36852,7.53836 7.03762,3.7711 14.61515,-1.61512 14.61515,-1.61512 0,0 2.7071,-0.53711 11.36852,1.61512 8.66113,2.15223 11.90785,-3.23023 11.90785,-3.23023 0,0 5.41421,-0.53711 3.7907,-9.6905 -1.62351,-9.15347 -16.23895,-13.46169 -22.73317,-18.84829 -6.49404,-5.92334 -12.99135,-27.46089 -9.74086,-44.69282 3.24702,-17.23289 18.94625,-44.15627 16.23895,-63.53726 -2.7071,-19.92234 5.95412,-31.23113 12.99135,-44.15627 7.03723,-12.92515 -0.5399,-33.92443 -4.87052,-48.46017 -4.33061,-14.53959 -1.62351,-14.53959 -1.62351,-14.53959 l 5.41421,-1.07799 c 5.4142,-1.078 9.20104,-4.30822 11.90785,-7.00124 2.16342,-2.15223 4.33061,-11.30974 10.82435,-22.61564 6.49404,-11.84629 13.53166,-33.92442 10.28503,-46.30822 -3.24702,-12.38379 -2.16343,-21.53678 -1.62351,-25.30798 0.5399,-3.23023 -1.62351,-18.84829 -1.62351,-18.84829 0,0 3.24702,-3.23023 5.41421,-9.6905 2.16342,-5.92333 2.16342,-14.539583 0.5399,-19.922336 -1.62351,-5.386216 -0.5399,-18.848292 2.7071,-33.924426 5.40667,-16.673267 -0.54746,-33.364803 -3.79447,-39.287947 z"
     id="path2"
     style="stroke-width:0.964045" />
</svg>
