<?xml version="1.0" encoding="UTF-8" standalone="no"?>
<svg
   version="1.1"
   viewBox="0 0 384 512"
   id="svg4"
   sodipodi:docname="uf1e6-plug-solid.svg"
   inkscape:version="1.1.2 (0a00cf5339, 2022-02-04)"
   xmlns:inkscape="http://www.inkscape.org/namespaces/inkscape"
   xmlns:sodipodi="http://sodipodi.sourceforge.net/DTD/sodipodi-0.dtd"
   xmlns="http://www.w3.org/2000/svg"
   xmlns:svg="http://www.w3.org/2000/svg">
  <defs
     id="defs8" />
  <sodipodi:namedview
     id="namedview6"
     pagecolor="#ffffff"
     bordercolor="#666666"
     borderopacity="1.0"
     inkscape:pageshadow="2"
     inkscape:pageopacity="0.0"
     inkscape:pagecheckerboard="0"
     showgrid="false"
     inkscape:zoom="1.2578125"
     inkscape:cx="192"
     inkscape:cy="256"
     inkscape:window-width="1920"
     inkscape:window-height="991"
     inkscape:window-x="0"
     inkscape:window-y="0"
     inkscape:window-maximized="1"
     inkscape:current-layer="svg4" />
  <path
     d="m 103.6883,11.518634 c -16.523128,0 -29.872322,13.648785 -29.872322,30.542735 V 133.68957 H 133.56062 V 42.061369 c 0,-16.89395 -13.34919,-30.542735 -29.87232,-30.542735 z m 179.23394,0 c -16.52313,0 -29.87233,13.648785 -29.87233,30.542735 v 91.628201 h 59.74465 V 42.061369 c 0,-16.89395 -13.34919,-30.542735 -29.87232,-30.542735 z M 43.943655,164.23231 c -16.523129,0 -29.872323,13.64878 -29.872323,30.54273 0,16.89395 13.349194,30.54274 29.872323,30.54274 v 30.54273 c 0,73.87524 51.343055,135.53339 119.489295,149.6594 v 64.13975 c 0,16.89395 13.34919,30.54273 29.87232,30.54273 16.52313,0 29.87232,-13.64878 29.87232,-30.54273 v -64.13975 c 68.14624,-14.12601 119.48929,-75.78416 119.48929,-149.6594 v -30.54273 c 16.52313,0 29.87233,-13.64879 29.87233,-30.54274 0,-16.89395 -13.3492,-30.54273 -29.87233,-30.54273 z"
     id="path2"
     style="stroke-width:0.943927" />
</svg>
