<?xml version="1.0" encoding="UTF-8" standalone="no"?>
<svg
   width="400"
   height="512"
   version="1.1"
   viewbox="0 0 497 600"
   id="svg8"
   sodipodi:docname="yuneta.svg"
   inkscape:version="1.1.2 (0a00cf5339, 2022-02-04)"
   xmlns:inkscape="http://www.inkscape.org/namespaces/inkscape"
   xmlns:sodipodi="http://sodipodi.sourceforge.net/DTD/sodipodi-0.dtd"
   xmlns="http://www.w3.org/2000/svg"
   xmlns:svg="http://www.w3.org/2000/svg"
   xmlns:rdf="http://www.w3.org/1999/02/22-rdf-syntax-ns#"
   xmlns:cc="http://creativecommons.org/ns#"
   xmlns:dc="http://purl.org/dc/elements/1.1/">
  <defs
     id="defs12" />
  <sodipodi:namedview
     id="namedview10"
     pagecolor="#ffffff"
     bordercolor="#666666"
     borderopacity="1.0"
     inkscape:pageshadow="2"
     inkscape:pageopacity="0.0"
     inkscape:pagecheckerboard="0"
     showgrid="false"
     inkscape:zoom="1.1582734"
     inkscape:cx="98.854036"
     inkscape:cy="272.81987"
     inkscape:window-width="1920"
     inkscape:window-height="991"
     inkscape:window-x="0"
     inkscape:window-y="0"
     inkscape:window-maximized="1"
     inkscape:current-layer="svg8"
     fit-margin-top="0"
     fit-margin-left="0"
     fit-margin-right="0"
     fit-margin-bottom="0" />
  <title
     id="title2">undefined</title>
  <path
     d="m 34.351891,0.5408553 c -1.031862,0 -5.253125,1.6575496 -9.38058,3.6834441 C 20.843855,6.250192 16.622593,9.3581 15.590731,11.130756 l -5.62835,9.669042 c -2.063725,3.545315 -4.38542,8.932351 -5.15932,11.971194 -0.773897,3.038841 -1.61815,7.804296 -1.876114,10.589902 -0.257967,2.785604 -0.680093,6.929478 -0.938058,9.20861 -0.257968,2.279131 -0.46903,6.215811 -0.46903,8.74818 0,2.532368 -0.211063,6.469048 -0.46903,8.74818 -0.257965,2.279129 -0.68009,8.702136 -0.938058,14.273345 -0.2579655,5.571214 -0.2579655,11.994221 0,14.273331 l 1.407088,12.43164 c 0.51593,4.55824 0.938057,11.18846 0.938057,14.73377 0,3.54531 0.422127,8.51795 0.938058,11.05034 0.515933,2.53234 0.726997,8.74815 0.469031,13.8129 -0.257966,5.06474 -0.680094,11.07334 -0.938058,13.35249 -0.257967,2.27913 -0.257967,4.97264 0,5.98561 0.257964,1.01293 0.257964,2.25608 0,2.76257 -0.257967,0.50648 0.797351,1.95681 2.345145,3.223 2.044966,1.67321 2.301057,2.55355 0.938058,3.22303 -1.031863,0.50648 -2.087179,0.71367 -2.345145,0.46042 -0.257966,-0.25324 -0.469031,1.6115 -0.469031,4.14389 0,2.53235 0.211065,6.46905 0.469031,8.74816 0.257966,2.27915 1.102218,7.87334 1.876115,12.43164 0.773899,4.55826 2.25134,10.35968 3.283205,12.89205 1.031862,2.53236 3.353557,7.91939 5.159317,11.97119 1.805761,4.05178 4.971708,10.26761 7.035436,13.8129 l 5.62835,9.66903 c 1.031862,1.77267 2.93143,4.25901 4.221261,5.52519 l 5.628348,5.52516 c 1.805762,1.77267 3.916396,5.50215 4.690295,8.28775 0.773899,2.78561 1.196018,6.51508 0.938045,8.28777 -0.257963,1.77264 -0.257963,5.08774 0,7.36687 0.257973,2.27914 1.10224,8.49495 1.87612,13.81293 0.773909,5.31798 0.773909,13.39852 0,17.9568 -0.77388,4.55825 -1.618147,12.22441 -1.87612,17.03592 -0.257963,4.81149 -0.469017,13.09927 -0.469017,18.41721 0,5.31799 1.055311,12.98414 2.345137,17.03593 1.289846,4.05179 4.244706,11.92515 6.566424,17.49637 2.321688,5.57119 5.27655,12.2014 6.566404,14.73377 1.289826,2.53236 4.455762,7.71222 7.035433,11.51076 l 8.442504,12.43163 c 2.063726,3.03883 4.807557,7.80429 6.097372,10.5899 1.289845,2.7856 3.189427,6.10071 4.221289,7.36687 1.031872,1.26619 2.509292,5.41008 3.283175,9.20862 0.773926,3.79854 1.829251,6.69927 2.345167,6.44603 0.515925,-0.25323 1.360155,-2.32518 1.876115,-4.60431 0.53186,-2.34819 2.36014,-4.94227 4.22126,-5.98558 l 3.28319,-1.84173 -2.34515,-0.46044 c -1.28983,-0.25323 -2.76726,-0.25323 -3.28319,0 -0.51595,0.25323 -1.14912,-1.4043 -1.4071,-3.68346 -0.25795,-2.2791 -0.68007,-4.55826 -0.93806,-5.06472 -0.257951,-0.50648 0.16418,-2.16402 0.93806,-3.68345 0.77391,-1.51943 2.04028,-3.59135 2.81418,-4.60429 0.77389,-1.01296 -0.28143,-0.59856 -2.34513,0.92086 -2.063734,1.5194 -4.174364,2.96978 -4.6903,3.22301 -0.515925,0.25323 -0.72701,0.0462 -0.469042,-0.46044 0.257989,-0.50648 0.891178,-1.95682 1.407125,-3.223 0.515915,-1.26617 1.360157,-4.3741 1.876082,-6.90646 l 1.407085,-6.90644 c 0.25798,-1.26621 0.25798,-3.13096 0,-4.14391 -0.25795,-1.01294 -0.25795,-2.04889 0,-2.30215 0.25798,-0.25323 0.25798,-0.66761 0,-0.92085 -0.25795,-0.25324 0.37524,-2.53237 1.4071,-5.06473 1.03185,-2.53236 3.14249,-6.26185 4.69028,-8.28775 1.5478,-2.02591 3.23629,-4.30503 3.75222,-5.06474 0.51596,-0.75971 0.0938,-1.58849 -0.93806,-1.84173 -1.27668,-0.31309 -0.97745,-1.04885 0.93806,-2.30216 1.54782,-1.01293 3.02523,-2.25609 3.28321,-2.76258 0.25796,-0.50646 -0.79734,-1.74962 -2.34515,-2.76257 l -2.81414,-1.84171 1.87608,-3.22303 c 1.03187,-1.77266 3.35356,-3.63739 5.15933,-4.14386 1.80575,-0.50649 4.12746,-1.12805 5.15932,-1.3813 1.28419,-0.31495 0.9887,-1.18607 -0.93805,-2.76259 l -2.81417,-2.30215 3.28317,-0.46044 c 1.80578,-0.25322 3.91643,-0.25322 4.69031,0 0.77391,0.25325 0.35178,-0.78273 -0.93808,-2.30215 -1.28982,-1.51941 -3.18937,-3.38417 -4.22123,-4.14386 -1.41555,-1.04241 -1.30111,-1.49456 0.469,-1.84171 1.28983,-0.25326 4.66686,0.57551 7.50449,1.84171 2.83762,1.26617 7.26993,3.5453 9.84959,5.06473 2.57966,1.51943 5.11244,3.17697 5.62836,3.68345 0.51593,0.50646 0.51593,1.74964 0,2.76258 -0.51592,1.01295 -1.78231,2.67049 -2.81418,3.68344 -1.03186,1.01294 -1.45397,2.2561 -0.93805,2.76259 0.51593,0.50646 0.72701,1.12805 0.46904,1.38128 -0.25797,0.25325 0.3752,1.4964 1.40707,2.7626 1.03186,1.26617 2.29825,3.75248 2.8142,5.52515 0.51593,1.77265 0.51593,3.01582 0,2.76258 -0.51595,-0.25323 -1.9934,0.36835 -3.28321,1.3813 -1.28986,1.01294 -2.76727,2.4633 -3.28323,3.22301 -0.51593,0.75971 -0.51593,1.79567 0,2.30216 0.51596,0.50646 1.14914,0.50646 1.40709,0 0.25797,-0.50649 0.89115,-0.71368 1.40709,-0.46043 0.51594,0.25324 1.14912,0.25324 1.4071,0 0.25796,-0.25325 0.68009,0.16114 0.93804,0.92085 0.258,0.75972 -0.37522,2.62445 -1.40708,4.14389 -1.13503,1.67136 -1.31984,4.94502 -0.46901,8.28774 0.77387,3.03884 2.04026,6.14673 2.81416,6.90647 0.92867,0.91164 0.29079,2.32057 -1.87611,4.14384 -1.80577,1.51945 -3.49428,3.79858 -3.75222,5.06475 -0.27864,1.36657 0.48401,2.48911 1.87611,2.7626 l 2.34515,0.46042 -4.22126,4.14387 c -2.32172,2.27914 -4.01022,4.97267 -3.75224,5.9856 0.25794,1.01294 1.10223,1.42734 1.8761,0.92086 0.77391,-0.50648 2.88453,-1.33524 4.69031,-1.84171 l 3.28321,-0.92088 -1.40712,3.22304 c -0.7739,1.77262 -1.8292,4.88055 -2.34514,6.90645 -0.51594,2.02588 -2.41549,7.20573 -4.22126,11.51076 -1.80574,4.30501 -3.49427,9.07046 -3.75223,10.58991 -0.25794,1.5194 -0.047,4.83451 0.46903,7.36687 0.51594,2.53237 0.72698,4.81151 0.46903,5.06475 -0.25797,0.25322 -0.25797,0.66763 0,0.92087 0.25795,0.25321 0.25795,1.91077 0,3.68342 -0.25797,1.77266 -0.047,3.63742 0.46904,4.14389 0.51593,0.50646 1.14911,0.50646 1.40707,0 0.25798,-0.50647 1.94649,-1.74966 3.75223,-2.76259 2.35641,-1.32144 3.68,-3.79117 4.6903,-8.74819 l 1.4071,-6.90643 0.93804,3.22299 c 0.51594,1.77266 1.57126,4.25899 2.34515,5.52517 1.12566,1.84174 1.5947,1.84174 2.34515,0 0.51593,-1.26618 1.36017,-3.54533 1.8761,-5.06476 0.51594,-1.51938 1.99337,-3.38415 3.28323,-4.14386 1.28982,-0.75972 2.76725,-1.58848 3.2832,-1.8417 0.51593,-0.25326 1.14911,-0.25326 1.40708,0 0.25796,0.25322 1.1022,0.0462 1.87612,-0.46043 0.77387,-0.50648 1.82921,0.1151 2.34513,1.38128 0.51591,1.26617 0.72701,2.50937 0.46904,2.76259 -0.25797,0.25323 -0.25797,0.66761 0,0.92085 0.25797,0.25325 0.047,1.91078 -0.46904,3.68345 l -0.93805,3.223 2.34514,-1.84171 c 1.28983,-1.01294 3.1894,-2.8777 4.22126,-4.14388 l 1.87613,-2.30216 v 9.20862 l 1.40708,-2.30215 c 0.77389,-1.26621 2.04027,-3.13093 2.81417,-4.1439 0.7739,-1.01292 2.04027,-1.42732 2.81418,-0.92083 0.77391,0.50646 2.46239,0.0922 3.75222,-0.92086 1.28986,-1.01296 3.18941,-1.42735 4.22127,-0.92088 1.28797,0.63171 2.31702,-0.23481 3.2832,-2.76258 0.7739,-2.02589 1.82921,-4.92662 2.34514,-6.44603 l 0.93807,-2.76257 2.34516,6.90646 c 1.28982,3.79856 2.76723,6.69927 3.28319,6.44602 l 1.87611,-0.92085 c 0.51594,-0.25322 1.14911,-0.25322 1.40709,0 0.25794,0.25323 0.89116,0.25323 1.40708,0 0.51595,-0.25322 1.14913,-0.25322 1.40708,0 0.258,0.25323 0.047,-0.78273 -0.46902,-2.30216 -0.51593,-1.51943 -1.57124,-3.17698 -2.34514,-3.68346 -0.7739,-0.50644 -0.7739,-1.7496 0,-2.76258 0.7739,-1.01294 2.67345,-2.2561 4.22125,-2.76259 l 2.81419,-0.92084 1.8761,4.14387 c 1.03188,2.27914 3.1425,7.0446 4.6903,10.58988 l 2.81417,6.44605 1.40709,-2.30215 c 0.77389,-1.26621 2.04027,-2.71655 2.81418,-3.22302 0.77388,-0.50647 0.98496,-1.74963 0.46903,-2.76257 -0.51593,-1.01296 -0.51593,-1.63455 0,-1.3813 0.51593,0.25324 1.36018,0.25324 1.87612,0 0.51592,-0.25325 1.36019,-0.0463 1.87611,0.46042 0.51595,0.50648 0.72699,0.50648 0.46904,0 -0.25799,-0.50647 0.79733,-0.0922 2.34511,0.92088 1.54783,1.01294 3.02526,1.63452 3.28324,1.38128 0.25796,-0.25324 1.10221,-0.25324 1.87609,0 0.77391,0.25324 1.19605,-0.78275 0.93806,-2.30216 -0.25794,-1.51941 -0.047,-2.96977 0.46906,-3.22299 0.51591,-0.25326 1.36017,0.98991 1.87611,2.76257 0.51593,1.77265 2.62655,4.88057 4.69028,6.90646 2.06372,2.02589 4.17436,3.89064 4.6903,4.14387 0.51592,0.25325 2.20442,1.70359 3.75223,3.22301 1.54779,1.51943 3.44733,3.17699 4.22126,3.68346 0.77389,0.50646 0.77389,-1.3583 0,-4.14389 -0.77393,-2.7856 -2.67347,-7.55105 -4.22126,-10.58992 -1.54781,-3.03882 -3.23631,-7.1827 -3.75223,-9.20859 -0.51594,-2.0259 -1.78231,-5.13379 -2.81419,-6.90646 -1.03185,-1.77265 -4.40886,-6.7453 -7.50447,-11.0503 -3.09558,-4.30504 -6.4726,-9.07051 -7.50448,-10.58992 -1.03183,-1.51943 -1.66503,-3.17697 -1.40708,-3.68346 0.25797,-0.50648 3.21286,1.97986 6.56641,5.52517 3.35357,3.54532 6.51952,6.86042 7.03543,7.3669 0.51598,0.50646 0.72701,1.12805 0.46906,1.38131 -0.25799,0.25322 -0.047,0.66761 0.46902,0.92082 0.51593,0.25325 1.99338,1.70361 3.2832,3.22303 1.28982,1.51943 2.76728,2.96978 3.2832,3.22301 0.51593,0.25322 0.51593,-1.19713 0,-3.22301 -0.51592,-2.0259 -1.36018,-5.13379 -1.8761,-6.90645 -0.51594,-1.77268 -1.78231,-4.25899 -2.81419,-5.52516 -1.03185,-1.26618 -2.08718,-2.92373 -2.34513,-3.68347 -0.25799,-0.75968 -0.25799,-1.58848 0,-1.84171 0.25795,-0.25323 0.047,-0.66763 -0.46906,-0.92086 -0.51591,-0.25324 -0.51591,-0.66762 0,-0.92087 0.51598,-0.25324 1.3602,-0.25324 1.87614,0 0.51592,0.25325 1.36017,0.25325 1.8761,0 0.51594,-0.25324 1.57127,-0.0462 2.34515,0.46044 0.77393,0.50645 2.0403,1.12806 2.81417,1.38129 0.77392,0.25323 -0.49246,-2.64748 -2.81417,-6.44602 -2.32168,-3.79855 -4.43233,-7.73524 -4.69029,-8.74819 -0.25797,-1.01293 -0.25797,-2.04891 0,-2.30213 0.25796,-0.25327 -0.58626,-2.53239 -1.8761,-5.06475 l -2.34515,-4.6043 3.75223,1.38128 c 2.06372,0.75972 4.80754,1.1741 6.09738,0.92086 1.8761,-0.36835 1.8761,-1.01295 0,-3.22301 -1.28984,-1.51942 -2.55619,-3.17697 -2.81418,-3.68344 -0.25798,-0.50647 -0.047,-2.57844 0.46903,-4.60433 0.51591,-2.02589 0.0937,-5.34097 -0.93807,-7.36687 -1.03186,-2.02589 -1.66504,-3.89064 -1.40706,-4.14388 0.25796,-0.25324 0.68008,-0.25324 0.93805,0 0.25796,0.25324 1.7354,0.25324 3.2832,0 1.54781,-0.25324 3.02524,-0.25324 3.28318,0 0.25799,0.25324 0.25799,0.0462 0,-0.46042 -0.25794,-0.50647 -1.52433,-1.33525 -2.81415,-1.84174 -1.28984,-0.50646 -2.13408,-1.12804 -1.87614,-1.38129 0.25799,-0.25321 0.25799,-0.66761 0,-0.92084 -0.25794,-0.25323 -0.25794,-2.32519 0,-4.60431 0.25799,-2.27912 0.25799,-4.55826 0,-5.06473 l -0.93804,-1.84173 c -0.25798,-0.50646 0.16417,-0.71367 0.93804,-0.46043 0.77392,0.25322 1.82924,0.0462 2.34516,-0.46043 0.51593,-0.50646 1.14914,-0.71366 1.40708,-0.46043 0.25798,0.25323 0.68011,0.0462 0.93805,-0.46044 0.25799,-0.50647 2.57967,-1.33526 5.15934,-1.8417 2.57966,-0.50648 6.58984,-1.12807 8.91156,-1.38132 2.32168,-0.25322 4.85445,-0.87481 5.62835,-1.38128 0.7739,-0.50646 2.67346,-0.71366 4.22124,-0.46045 1.54781,0.25326 3.02524,0.87484 3.28321,1.38132 0.25798,0.50646 0.047,1.33525 -0.46901,1.84173 -0.51595,0.50644 -0.30488,1.74961 0.46901,2.76257 0.7739,1.01294 2.46242,2.4633 3.75223,3.22303 1.28985,0.75969 2.97835,2.21007 3.75224,3.22297 0.7739,1.01298 1.19603,2.04894 0.93807,2.30217 -0.25798,0.25325 0.37522,2.32519 1.40707,4.6043 1.03186,2.27915 2.72037,8.28776 3.75224,13.3525 1.03186,5.06475 3.1425,11.48774 4.6903,14.27333 2.06466,3.7157 2.93893,4.45145 3.28319,2.7626 0.25796,-1.2662 0.25796,-2.50934 0,-2.7626 -0.25796,-0.25323 -0.25796,-0.66761 0,-0.92085 0.25796,-0.25324 0.047,-1.28921 -0.46904,-2.30214 -0.51593,-1.01294 -0.72698,-2.04892 -0.46903,-2.30217 0.25798,-0.25322 0.25798,-2.32517 0,-4.6043 -0.25795,-2.27912 -0.68007,-5.59424 -0.93806,-7.36689 -0.25796,-1.77265 -0.047,-3.43021 0.46904,-3.68345 0.51594,-0.25323 1.14913,-1.28919 1.40709,-2.30216 0.25796,-1.01293 -0.16417,-4.32804 -0.93807,-7.36686 -0.77391,-3.03888 -2.04027,-7.18274 -2.81416,-9.20862 -0.7739,-2.02589 -2.67346,-4.9266 -4.22126,-6.44603 -1.54781,-1.51943 -2.181,-2.55539 -1.40708,-2.30213 0.77388,0.2532 1.61814,0.2532 1.87611,0 0.25797,-0.25326 1.73541,0.98989 3.2832,2.76257 1.5947,1.82696 3.83009,8.41024 5.15933,15.19421 1.28981,6.58415 2.5562,15.70067 2.81417,20.25893 0.25795,4.55826 1.10222,10.35969 1.8761,12.89204 0.77391,2.53239 1.61816,5.2259 1.87612,5.98559 0.25796,0.75973 0.25796,1.5885 0,1.84175 -0.25796,0.25327 0.16417,2.53237 0.93806,5.06472 0.7739,2.53237 1.61817,5.01871 1.87611,5.52518 0.25798,0.50648 0.25798,1.12804 0,1.38128 -0.25794,0.25325 -0.047,0.66763 0.46902,0.92087 0.51595,0.25323 1.14915,0.0462 1.40713,-0.46043 0.25795,-0.50647 0.047,-0.71368 -0.46906,-0.46044 -0.51593,0.25325 -0.51593,0.0462 0,-0.46042 0.51594,-0.50648 1.99338,-0.0921 3.28322,0.92086 1.28981,1.01293 2.76725,1.42734 3.28318,0.92085 0.51593,-0.50648 0.0939,-2.164 -0.93805,-3.68343 -1.03187,-1.51942 -1.66504,-3.38418 -1.40708,-4.14388 0.25797,-0.75971 1.10222,0.0691 1.87611,1.84173 0.77392,1.77265 1.196,3.4302 0.93807,3.68343 -0.25798,0.25324 0.16416,0.25324 0.93805,0 0.77391,-0.25323 1.82919,0.16115 2.34513,0.92086 0.51595,0.75972 1.14914,1.1741 1.4071,0.92087 0.25798,-0.25324 -0.37523,-1.4964 -1.4071,-2.76258 -1.03185,-1.26617 -1.66503,-2.50936 -1.40706,-2.76258 0.25796,-0.25326 -0.37524,-1.91079 -1.4071,-3.68346 -1.03186,-1.77264 -1.66504,-3.43016 -1.40709,-3.68343 0.25797,-0.25325 0.047,-1.28922 -0.46903,-2.30215 -0.51592,-1.01296 -0.72698,-2.04893 -0.46904,-2.30215 0.25799,-0.25323 -0.79733,-2.5324 -2.34513,-5.06474 -1.99618,-3.2663 -2.26918,-4.87227 -0.93804,-5.52517 1.03186,-0.50648 1.66502,-0.50648 1.40708,0 -0.25797,0.50646 0.37521,1.33523 1.40708,1.84173 1.25042,0.61422 1.25042,-0.1538 0,-2.30217 -1.03187,-1.77265 -1.66505,-3.6374 -1.40708,-4.14386 0.25794,-0.50647 3.00178,0.11509 6.09736,1.38128 3.09559,1.2662 6.68368,3.13092 7.9735,4.14388 1.32924,1.04334 1.73542,2.24045 0.93806,2.76258 -0.77391,0.5065 2.39204,0.71367 7.03543,0.46043 4.6434,-0.25324 8.86464,-0.0462 9.38057,0.46043 0.51593,0.50649 1.14913,0.29927 1.40712,-0.46043 0.25796,-0.75973 0.047,-2.62444 -0.46904,-4.14387 -0.51593,-1.51943 -2.41552,-3.17697 -4.22127,-3.68346 -1.80576,-0.50647 -6.66022,-0.92084 -10.78765,-0.92084 -4.36196,0 -8.68268,-0.96416 -10.31867,-2.30214 l -2.81416,-2.30217 4.69029,0.92086 c 2.57966,0.50647 8.48942,0.71368 13.13281,0.46042 4.6434,-0.25322 9.70891,0.16116 11.2567,0.92089 1.787,0.87664 2.98586,0.70903 3.28319,-0.46047 0.25798,-1.01292 0.68011,-2.04889 0.93807,-2.30213 0.25798,-0.25325 -0.37523,-0.87482 -1.40709,-1.38129 -1.36299,-0.66946 -1.10689,-1.54981 0.93806,-3.22302 1.54781,-1.26619 3.23632,-3.95973 3.75223,-5.98559 l 0.93806,-3.68345 -7.03543,-2.76259 c -3.86951,-1.51945 -9.14607,-2.96977 -11.72572,-3.223 -2.57967,-0.25324 -6.37879,-0.0462 -8.44252,0.4604 -2.06375,0.50649 -4.59651,0.50649 -5.62836,0 -1.03185,-0.50645 -1.66505,-1.12803 -1.4071,-1.38128 0.25799,-0.25323 0.25799,-0.66758 0,-0.92084 -0.25795,-0.25325 0.58629,-0.0463 1.87613,0.46042 1.28983,0.50648 4.2447,-0.11509 6.56643,-1.38127 2.32166,-1.26621 5.69868,-2.92375 7.50444,-3.68346 1.80575,-0.75972 3.07215,-1.7957 2.81416,-2.30214 -0.25793,-0.50648 -2.57964,-1.33527 -5.15931,-1.84173 -2.57966,-0.50648 -5.53453,-1.74965 -6.56639,-2.76258 -1.03187,-1.01297 -1.66506,-2.04891 -1.40712,-2.30215 0.258,-0.25325 0.047,-0.87483 -0.46902,-1.38131 -0.51593,-0.50646 0.32836,-0.0922 1.87614,0.92086 1.5478,1.01297 6.19117,2.4633 10.31863,3.22301 4.12744,0.75971 7.29339,1.79569 7.03543,2.30217 -0.25796,0.50646 0.16416,0.71366 0.93808,0.46041 0.77388,-0.25322 3.51771,0.36835 6.09736,1.38132 l 4.69028,1.8417 -2.81417,0.46044 c -1.54778,0.25323 -3.02522,0.25323 -3.2832,0 -0.25796,-0.25323 -3.0018,0.57552 -6.09739,1.84172 -3.09558,1.26619 -5.83941,2.50934 -6.09737,2.76259 -0.25795,0.25326 2.90798,1.28922 7.03545,2.30212 4.12745,1.01298 8.13765,2.46333 8.91155,3.22305 0.95962,0.94201 1.55623,-0.0839 1.8761,-3.22305 0.25798,-2.53234 1.10224,-6.26182 1.87612,-8.28772 0.77391,-2.02589 1.19604,-5.13383 0.93807,-6.90647 -0.25799,-1.77265 -1.3133,-3.43021 -2.34516,-3.68342 -1.08626,-0.26706 -1.67911,0.31491 -1.40708,1.38127 0.25797,1.01294 0.047,1.63455 -0.46903,1.38131 -0.51593,-0.25325 -1.36017,-0.0462 -1.8761,0.46043 -0.51595,0.50646 -3.25976,0.50646 -6.09738,0 -2.83764,-0.50649 -7.0589,-0.71368 -9.38058,-0.46043 -2.32171,0.25324 -5.06553,-0.16118 -6.0974,-0.92087 -1.46804,-1.08109 -0.95775,-1.48166 2.34517,-1.84171 2.32169,-0.25326 5.90974,-0.87484 7.97349,-1.3813 2.06372,-0.50649 5.44074,-0.0922 7.50445,0.92086 2.06373,1.01296 3.96329,1.63452 4.22126,1.38129 0.25797,-0.25323 0.047,-0.87482 -0.46901,-1.38129 -0.51595,-0.50649 -0.51595,-0.71366 0,-0.46044 0.51593,0.25325 -0.11726,-0.36835 -1.4071,-1.38131 -1.28984,-1.01292 -4.66684,-1.84171 -7.50445,-1.84171 -3.70441,0 -4.63027,-0.38951 -3.28322,-1.38128 1.03187,-0.75973 4.83101,-1.58849 8.44252,-1.84172 3.61154,-0.25322 7.41067,0.16115 8.44252,0.92086 1.03187,0.7597 2.0872,1.58849 2.34516,1.84171 0.25795,0.25326 0.25795,0.66764 0,0.92087 -0.25796,0.25323 0.37521,0.25323 1.40708,0 1.06283,-0.2606 1.8761,-2.65487 1.8761,-5.52518 0,-2.78559 -1.05529,-7.34384 -2.34512,-10.12945 -1.28983,-2.78561 -2.55621,-5.27194 -2.81419,-5.52517 -0.25796,-0.25324 -0.25796,-0.66764 0,-0.92088 0.25798,-0.25322 0.047,-0.66761 -0.46903,-0.92085 -0.51592,-0.25324 -1.78229,-2.11798 -2.81417,-4.14386 -1.03186,-2.0259 -1.66506,-5.13382 -1.40709,-6.90646 0.25797,-1.77264 0.89116,-3.84461 1.40709,-4.60431 0.51594,-0.75972 -0.32832,-3.24605 -1.8761,-5.52518 -1.54779,-2.27913 -4.71375,-6.00859 -7.03543,-8.28774 -2.32171,-2.27913 -6.33191,-7.0446 -8.91156,-10.58991 -2.84795,-3.91365 -6.71652,-7.35029 -9.84962,-8.74815 -2.8376,-1.2662 -8.1142,-2.71656 -11.72573,-3.22304 -3.61151,-0.50645 -7.62171,-0.71365 -8.91155,-0.46041 -1.80013,0.35362 -2.01869,0.033 -0.93806,-1.38129 0.77389,-1.01295 3.51774,-2.25613 6.0974,-2.76259 2.57965,-0.50647 8.06729,0.11509 12.19475,1.3813 4.12745,1.26615 9.19296,3.7525 11.25668,5.52517 2.06374,1.77264 5.01862,4.88054 6.56642,6.90643 1.54779,2.0259 3.2363,4.51223 3.75223,5.52517 0.51593,1.01296 0.727,2.04891 0.46904,2.30214 -0.25799,0.25325 0.3752,2.118 1.40708,4.14387 1.03187,2.0259 4.40886,5.54819 7.50445,7.82734 3.0956,2.27913 5.41728,3.31512 5.15933,2.30215 -0.25796,-1.01294 -0.68009,-2.0489 -0.93806,-2.30215 -0.25799,-0.25325 -0.25799,-0.87482 0,-1.38128 0.25797,-0.50649 0.25797,-1.54246 0,-2.30217 -0.25799,-0.75969 -0.047,-4.69637 0.46902,-8.74817 0.51592,-4.05178 1.36018,-11.09638 1.87612,-15.65463 0.54688,-4.82809 0.15479,-9.24914 -0.93806,-10.58992 -1.03188,-1.26617 -4.1978,-3.13093 -7.03544,-4.14386 -2.83761,-1.01296 -5.58143,-2.46331 -6.09736,-3.22302 -0.54221,-0.79747 0.44932,-1.18698 2.34512,-0.92085 1.80576,0.25322 4.33852,0.25322 5.62836,0 1.28985,-0.25326 3.40046,-0.0462 4.6903,0.46041 1.28982,0.50649 3.18939,2.7856 4.22126,5.06476 1.03185,2.2791 1.87613,6.42298 1.87613,9.20861 0,2.78559 -0.42214,7.55103 -0.93808,10.58988 -0.51592,3.03883 -0.93805,8.2187 -0.93805,11.51077 0,3.29208 0.84425,8.8863 1.87613,12.43162 1.03185,3.5453 1.66504,7.0676 1.40707,7.82732 -0.25797,0.75972 -0.25797,1.58849 0,1.84173 0.25797,0.25325 0.047,0.66761 -0.46903,0.92084 -0.51595,0.25323 -2.20445,0.25323 -3.75225,0 -1.54778,-0.25323 -2.60309,-0.0462 -2.34512,0.46045 0.25796,0.50645 -0.58629,0.71365 -1.87612,0.46043 -1.28983,-0.25323 -0.65664,0.16115 1.40708,0.92086 2.06374,0.75969 3.96329,2.21006 4.22126,3.22301 0.25797,1.01295 0.89116,2.04891 1.40711,2.30217 0.51593,0.25321 1.1491,2.32516 1.40707,4.60429 0.25797,2.27912 -0.16416,7.66616 -0.93808,11.97118 -0.77386,4.30503 -1.61813,9.69209 -1.8761,11.9712 -0.25797,2.27913 -0.89117,5.80142 -1.4071,7.82732 -0.51593,2.02587 -1.7823,7.41292 -2.81416,11.97117 -1.03188,4.5583 -3.77569,13.05324 -6.09737,18.87768 -2.3217,5.82446 -4.64339,12.04024 -5.15933,13.81291 -0.51593,1.77266 -1.7823,4.88057 -2.81417,6.90647 -1.03185,2.0259 -2.08718,3.89062 -2.34513,4.14387 -0.25798,0.25323 -0.25798,0.66761 0,0.92086 0.25795,0.25327 -0.58629,2.53237 -1.87613,5.06472 -1.28983,2.53237 -2.76727,5.22589 -3.2832,5.9856 -0.51594,0.75971 -1.14911,2.83164 -1.40708,4.6043 -0.25798,1.77266 -0.89116,4.25901 -1.40709,5.52519 -0.51594,1.26616 -1.57126,2.71653 -2.34514,3.22299 -0.7739,0.50648 -3.93985,1.95684 -7.03544,3.22305 -3.0956,1.26615 -6.68367,3.13089 -7.97349,4.14385 -1.28984,1.01293 -3.18942,3.49927 -4.22127,5.52516 -1.03187,2.02591 -2.08717,5.75539 -2.34516,8.28775 -0.25796,2.53238 -1.52433,8.12659 -2.81417,12.43162 -1.28983,4.30503 -2.76726,9.07049 -3.28318,10.58989 -0.53752,1.5839 -2.33954,2.95874 -4.22127,3.22305 -1.80578,0.25322 -3.49428,0.25322 -3.75224,0 -0.25796,-0.25325 -0.25796,-0.0463 0,0.46043 0.25796,0.50646 -0.16417,1.12804 -0.93807,1.38127 -0.77391,0.25325 -2.46241,0.25325 -3.75223,0 -1.28984,-0.25323 -4.03365,1.19712 -6.09737,3.22301 -2.48398,2.43845 -5.97169,3.99472 -10.31863,4.60431 -3.61152,0.50647 -8.67703,0.50647 -11.2567,0 -2.57966,-0.50647 -6.16772,-1.54244 -7.97349,-2.30214 -1.8058,-0.75971 -3.9164,-1.1741 -4.69029,-0.92087 -0.77393,0.25323 -4.36198,-0.57554 -7.97349,-1.84171 -3.61152,-1.2662 -7.1996,-1.88777 -7.97351,-1.38132 -0.83486,0.547 0.49905,2.4182 3.28321,4.60431 2.57966,2.02589 6.8009,4.92664 9.38056,6.44605 -5.15932,-0.92086 -4.69026,-9.66904 13.60187,1.84171 -3.86951,-2.53237 -6.82437,-5.01869 -6.56642,-5.52517 0.25797,-0.50646 2.15755,-0.0923 4.22126,0.92087 2.06373,1.01292 9.66201,3.91366 16.88506,6.44602 15.50422,-4.98801 27.05077,-12.53843 37.93599,-22.46901 2.44693,-2.23252 -0.26786,-13.28434 2.14966,-15.755 2.77722,-2.83865 4.48026,-11.54116 7.39002,-14.27151 3.31725,-3.1127 11.7079,-5.14366 14.91138,-8.05551 2.37029,-2.15491 6.60131,-6.23773 6.60131,-6.23773 0,0 3.56976,-17.67316 8.5654,-25.17542 3.05301,-4.58469 4.61844,-14.31664 6.48339,-19.22666 3.24672,-6.43137 3.89219,-16.40789 6.70028,-20.05269 l 5.24666,-30.21247 c 0,0 0.64764,-21.77012 1.54365,-26.65988 2.46204,-4.58625 -1.30588,-9.8698 -2.81005,-14.7393 -1.90913,-6.1812 -1.97038,-11.69677 -0.7446,-14.2761 3.45103,-7.26249 1.01939,-16.44935 4.41921,-21.87229 42.98463,-79.26495 20.18231,-65.35813 12.76792,-29.42612 -0.3715,2.55262 -3.34326,-1.45865 0,0 7.50445,-23.02153 -5.10774,6.08937 -13.60185,12.43164 -0.51595,0.50645 -0.0938,-0.73671 0.93804,-2.76261 1.03185,-2.02589 2.72038,-4.92661 3.75226,-6.44602 l 5.62833,-8.28775 c 2.06374,-3.03885 4.59651,-6.97552 5.62837,-8.74819 1.5384,-3.12651 3.99601,-5.91108 5.1593,-9.2086 0.25796,-0.75971 0.047,-2.00286 -0.46905,-2.76259 -0.51592,-0.7597 -0.51592,-1.1741 0,-0.92085 0.51596,0.25324 0.72701,-0.57553 0.46905,-1.84173 -0.25798,-1.26618 0.37521,-3.54532 1.40709,-5.06472 1.03188,-1.51944 2.72037,-7.73522 3.75222,-13.81292 1.03188,-6.07769 2.29825,-10.42875 2.81416,-9.66904 0.51595,0.7597 0.25798,-2.27914 0,0 l -6.09737,-8.74819 c -1.80573,0.50648 -3.70532,0.29929 -4.22123,-0.46043 -0.51596,-0.7597 -0.72702,-3.03884 -0.46905,-5.06474 0.27862,-2.18702 1.80295,-4.43209 3.75222,-5.52517 l 3.28322,-1.84172 -0.46902,-13.8129 c -0.25798,-7.59712 0.16414,-17.54243 0.93806,-22.10066 0.77387,-4.55826 2.04026,-10.35971 2.81417,-12.89205 0.77388,-2.53239 1.61814,-5.84748 1.87609,-7.36689 0.25798,-1.51945 0.25798,-4.62734 0,-6.90646 -0.25795,-2.27913 -0.46901,-7.666174 -0.46901,-11.971194 0,-4.305025 0.21106,-9.692063 0.46901,-11.971196 0.25798,-2.27913 0.047,-5.801425 -0.46901,-7.827318 -0.51594,-2.025894 -1.36019,-5.75538 -1.87612,-8.287748 -0.51592,-2.532369 -0.93804,-6.883436 -0.93804,-9.669042 0,-2.785603 -0.84427,-8.379836 -1.87613,-12.431625 -1.03187,-4.051787 -3.77568,-10.681986 -6.0974,-14.733773 -2.32167,-4.05179 -5.27655,-8.610053 -6.56638,-10.129474 -1.28984,-1.519418 -4.03366,-4.005744 -6.09738,-5.525165 -2.06374,-1.51942 -6.28498,-3.384164 -9.38058,-4.1438737 -3.09559,-0.759712 -7.52792,-1.1740989 -9.84962,-0.920863 -2.32168,0.253238 -8.65356,2.9467557 -14.07088,5.9855977 -5.41728,3.038843 -12.59342,8.218685 -15.94695,11.510761 -3.35357,3.292079 -9.05228,9.715086 -12.6638,14.273347 -3.61152,4.558263 -7.83282,10.152493 -9.3806,12.431626 -1.54779,2.279129 -4.29161,6.423004 -6.09738,9.208609 -1.80575,2.785603 -4.12744,6.722284 -5.15932,8.748181 l -6.09737,11.97119 c -2.32169,4.558265 -6.96507,15.125137 -10.31862,23.48196 -3.35358,8.35679 -7.1527,17.68051 -8.44254,20.71936 -1.28982,3.03883 -3.18941,7.59709 -4.22124,10.12948 -1.03187,2.53236 -2.29826,6.05465 -2.8142,7.82731 -0.51592,1.77266 -1.14911,5.08775 -1.40708,7.36689 -0.25798,2.27914 -1.7354,4.97264 -3.28319,5.9856 -1.5478,1.01294 -6.82438,2.87768 -11.72573,4.14387 -4.90135,1.26617 -11.02219,2.30216 -13.60184,2.30216 -2.57967,0 -10.17793,1.03597 -16.88506,2.30215 -6.70713,1.26617 -14.51643,2.09497 -17.35406,1.84172 -2.83765,-0.25323 -6.84785,-0.87482 -8.91156,-1.38128 -2.06372,-0.50649 -5.6518,-0.71368 -7.97351,-0.46044 -2.32169,0.25322 -5.90975,0.8748 -7.97347,1.38128 -2.06373,0.50648 -8.18457,0.50648 -13.60185,0 -5.41728,-0.50648 -10.90492,-0.29926 -12.19478,0.46044 -1.68473,0.99268 -3.40138,0.47425 -6.09736,-1.84172 -2.06372,-1.77265 -3.96329,-4.67338 -4.22124,-6.44602 -0.25799,-1.77267 -0.047,-4.88056 0.46902,-6.90647 0.51593,-2.02589 0.30486,-6.79136 -0.46902,-10.58991 -0.77392,-3.79854 -2.25136,-8.564 -3.28323,-10.58991 -1.03189,-2.02587 -2.29824,-5.96255 -2.81416,-8.74816 -0.51592,-2.78559 -2.41551,-7.96545 -4.22125,-11.51076 -1.80578,-3.54531 -3.91639,-7.89638 -4.69031,-9.66904 -0.77389,-1.77264 -3.09559,-7.57408 -5.1593,-12.892053 -2.06375,-5.317971 -5.22967,-11.94817 -7.03545,-14.733774 -1.80575,-2.785606 -5.18277,-8.17264 -7.50446,-11.971196 C 99.10166,55.218268 94.45827,47.759293 91.10474,42.441321 87.751182,37.123351 83.529933,31.321925 81.724146,29.549267 L 75.626764,23.563672 C 74.078971,22.044249 69.857724,18.521958 66.2462,15.736352 62.634677,12.950747 57.569162,9.221259 54.989511,7.448603 52.409841,5.6759452 47.133252,3.3968137 43.263784,2.3838659 39.394278,1.37092 35.384084,0.5421443 34.352221,0.5421443 M 326.08827,66.84414 c 0.51595,0 0.727,0.621579 0.46905,1.381292 -0.25798,0.759708 -1.94649,2.210064 -3.75225,3.22301 l -3.28321,1.841722 2.81417,-3.223012 c 1.54781,-1.772657 3.23631,-3.223012 3.75224,-3.223012 M 64.839108,79.275763 c 0.773899,0.759709 3.095578,2.41726 5.159322,3.683442 2.063716,1.266184 3.330092,2.92374 2.814166,3.683447 -0.515907,0.759707 -2.626561,0.552518 -4.690286,-0.460432 -2.26823,-1.113322 -3.937957,-3.116194 -4.221267,-5.064737 -0.314236,-2.16218 -0.0059,-2.768108 0.938065,-1.84172 m 265.939452,0.920861 c 1.03187,0.253236 2.72038,1.08201 3.75223,1.841722 1.49995,1.104112 1.02906,1.658471 -2.34515,2.762584 -2.3217,0.759707 -4.85447,2.210067 -5.62832,3.223004 -0.77393,1.012957 -3.30669,3.084893 -5.62837,4.604311 -2.3217,1.519428 -4.0102,2.555389 -3.75223,2.302146 0.25797,-0.253232 1.94648,-2.946753 3.75223,-5.98559 1.80576,-3.038841 4.33854,-6.353937 5.62837,-7.366888 1.28982,-1.012945 3.18937,-1.634527 4.22124,-1.381289 m -22.51341,8.748177 c 0.51595,0 0.51595,1.035968 0,2.302161 -0.51592,1.266172 -2.20445,3.33812 -3.75223,4.604301 -1.54779,1.266177 -3.02523,2.094947 -3.28318,1.841717 -0.25799,-0.25323 1.0084,-2.325181 2.81417,-4.604297 1.80575,-2.279136 3.70532,-4.143882 4.22124,-4.143882 M 56.865611,97.23254 c 2.063735,1.51943 2.907983,2.55541 1.87611,2.30217 -1.031862,-0.25324 -2.720367,-1.4964 -3.75221,-2.76259 -1.211981,-1.487195 -0.54876,-1.324192 1.8761,0.46042 m 272.974889,-2.302149 1.87612,0.920872 c 0.51593,0.253237 0.51593,0.667617 0,0.920857 -0.51594,0.25323 -1.36018,-0.16115 -1.87612,-0.920857 -0.51592,-0.759717 -0.51592,-1.174104 0,-0.920872 m 10.78767,1.841729 c 0.25797,0.25323 0.047,1.91079 -0.46903,3.68345 -0.51594,1.77266 -2.4155,5.50212 -4.22126,8.28774 -1.80576,2.7856 -3.49429,6.92948 -3.75224,9.20861 l -0.46902,4.14389 1.87611,-3.22304 c 1.11348,-1.91354 2.25697,-2.66219 2.81417,-1.84172 0.51594,0.75974 0.727,2.83166 0.46905,4.60432 -0.25799,1.77265 -0.047,4.67336 0.46901,6.44602 0.51595,1.77267 1.57125,6.33091 2.34516,10.12946 0.77389,3.79857 1.19602,7.52805 0.93805,8.28776 -0.25796,0.75971 -1.10222,2.41727 -1.87611,3.68343 -0.7739,1.2662 -1.82922,3.75252 -2.34516,5.52519 -0.51592,1.77266 -0.72699,3.63739 -0.46902,4.14384 0.25794,0.5065 0.25794,2.16405 0,3.68348 -0.25797,1.51941 -1.73539,5.24891 -3.2832,8.28774 -1.54779,3.03884 -3.8695,6.14674 -5.15933,6.90647 -1.28984,0.75969 -4.45578,1.1741 -7.03543,0.92084 -2.57967,-0.25325 -5.74561,-0.87481 -7.03544,-1.38129 -1.28983,-0.50647 -3.1894,-1.12806 -4.22125,-1.3813 -1.03187,-0.25323 -2.29824,-2.94675 -2.81418,-5.98559 -0.51592,-3.03884 -1.14913,-5.31796 -1.40708,-5.06472 -0.25798,0.25322 -2.15754,0.87481 -4.22127,1.38127 -2.06373,0.50649 -3.33011,0.50649 -2.81417,0 0.51592,-0.50646 1.57125,-3.61437 2.34514,-6.90645 0.7739,-3.29206 1.82921,-7.43595 2.34515,-9.20862 0.51593,-1.77266 0.727,-3.84458 0.46904,-4.60429 -0.25796,-0.75971 0.16414,-2.21008 0.93805,-3.22303 0.77389,-1.01293 3.30664,-3.29207 5.62833,-5.06473 2.3217,-1.77264 4.43235,-3.6374 4.69031,-4.14387 0.25795,-0.50646 -0.16418,-0.71366 -0.93807,-0.46043 -0.7739,0.25324 -1.19602,0.25324 -0.93805,0 0.25797,-0.25323 0.047,-1.28922 -0.46904,-2.30215 -0.51593,-1.01296 -0.727,-2.87767 -0.46901,-4.14387 0.25797,-1.2662 1.94645,-2.92375 3.75222,-3.68344 1.80577,-0.75972 2.86106,-1.79569 2.34514,-2.30218 -0.51592,-0.50644 -0.30488,-1.33524 0.46904,-1.84169 0.77389,-0.50648 2.04027,-2.16403 2.81417,-3.68347 0.7739,-1.51942 1.82921,-2.34818 2.34513,-1.8417 0.51594,0.50649 0.72702,2.16403 0.46905,3.68344 -0.25798,1.51941 -0.047,2.55539 0.46903,2.30215 0.51592,-0.25323 1.78229,-3.36114 2.81419,-6.90645 1.40987,-4.84281 3.15936,-7.36228 7.03541,-10.12948 2.83763,-2.02589 5.37037,-4.30502 5.62836,-5.06473 0.25794,-0.7597 0.68009,-1.1741 0.93805,-0.92086 m -271.098787,7.82731 c 1.805782,0 3.072147,0.41439 2.814185,0.92086 -0.257963,0.5065 -0.680102,2.78561 -0.938056,5.06472 -0.257963,2.27917 -0.257963,4.76547 0,5.52518 0.257954,0.75972 0.257954,1.79569 0,2.30214 -0.257963,0.50649 -0.257963,0.71368 0,0.46044 0.257954,-0.25322 0.680093,-0.0462 0.938056,0.46045 0.257962,0.50645 -0.37522,1.12805 -1.407092,1.38129 -1.031853,0.25324 -3.142477,-0.78274 -4.690276,-2.30218 -1.547808,-1.51941 -3.236292,-3.38412 -3.752259,-4.14386 -0.515916,-0.75971 -0.726981,-1.17411 -0.469007,-0.92087 0.257963,0.25326 0.680091,0.25326 0.938054,0 0.257973,-0.25324 0.04701,-0.66761 -0.469047,-0.92084 -0.515916,-0.25324 -0.726981,-0.87482 -0.469007,-1.38128 0.257963,-0.50651 1.313284,-2.16404 2.345127,-3.68346 1.031872,-1.51941 3.35357,-2.76259 5.159322,-2.76259 m 8.911576,1.84173 c 0.515917,0 1.571238,1.24314 2.345127,2.76259 0.773913,1.51941 2.04028,3.17695 2.814184,3.68344 0.797336,0.52212 0.593789,1.12067 -0.469031,1.38128 -1.031872,0.25325 -2.931427,0.0462 -4.221244,-0.46042 -1.462455,-0.5746 -2.168802,-2.13457 -1.876139,-4.14387 0.257963,-1.77267 0.891156,-3.22302 1.407103,-3.22302 m -3.752244,7.36689 c 0.51592,1.01294 1.993372,2.46329 3.283207,3.223 1.289824,0.75974 3.822592,2.41726 5.628348,3.68346 1.805767,1.26618 4.338511,4.58125 5.628331,7.36688 1.876139,4.05179 1.876139,4.78847 0,3.68345 -1.28982,-0.75971 -2.767271,-1.1741 -3.283197,-0.92088 -0.515936,0.25326 0.117274,1.70361 1.407094,3.22302 1.289851,1.51942 4.033652,4.42013 6.097382,6.44601 2.06372,2.02593 3.54117,4.09786 3.28318,4.60433 -0.25795,0.50647 -1.10222,1.33522 -1.87608,1.84171 -0.77393,0.50648 -1.19605,1.12806 -0.93809,1.3813 0.25797,0.25322 0.25797,0.66763 0,0.92085 -0.25796,0.25325 -0.25796,1.08203 0,1.84172 0.25797,0.75971 0.89117,2.00288 1.40708,2.7626 0.51596,0.75969 0.72702,1.58849 0.46904,1.84173 -0.25797,0.25323 0.37523,1.70358 1.40712,3.22298 1.03183,1.51942 1.66502,2.96981 1.40706,3.22304 -0.25796,0.25323 -0.25796,0.87481 0,1.3813 0.25796,0.50646 0.25796,0.71366 0,0.46041 -0.25796,-0.25323 -0.6801,0.16117 -0.93806,0.92087 -0.25798,0.75971 -0.68008,0.96691 -0.93807,0.46042 -0.25795,-0.50647 -0.89113,-0.29927 -1.40709,0.46045 -0.51591,0.75969 -1.57122,2.83162 -2.34512,4.60429 l -1.40709,3.22301 -4.690293,-0.92086 c -2.579661,-0.50647 -4.479227,-0.50647 -4.221249,0 0.257947,0.50647 2.157536,2.16402 4.221249,3.68346 l 3.752253,2.76257 -5.628346,0.92087 c -3.095618,0.50646 -7.105812,0.29927 -8.911563,-0.46044 -1.805765,-0.75971 -3.494281,-2.00286 -3.752243,-2.76259 -0.257963,-0.75972 -0.04701,-1.1741 0.469028,-0.92084 0.515926,0.25322 0.515926,-0.36838 0,-1.38129 -0.515907,-1.01297 -0.515907,-3.70647 0,-5.9856 l 0.938054,-4.14389 -3.75222,-0.46043 c -2.063744,-0.25323 -5.22967,-1.70357 -7.035442,-3.223 -1.930515,-1.62441 -3.862918,-5.41836 -4.690294,-9.20861 -0.773889,-3.54532 -1.196,-7.27482 -0.938056,-8.28777 0.320825,-1.26063 0.764535,-1.11605 1.407083,0.46045 0.515926,1.26617 1.993386,4.99566 3.283213,8.28772 1.289815,3.2921 2.767266,5.77845 3.283201,5.52517 0.515936,-0.25322 0.515936,-2.11797 0,-4.14386 -0.515935,-2.02589 -0.515935,-4.9266 0,-6.44603 0.515936,-1.51941 0.515936,-3.79855 0,-5.06473 -0.515935,-1.26618 -0.515935,-3.75251 0,-5.52518 0.515936,-1.77264 0.515936,-4.46617 0,-5.98557 -0.515935,-1.51943 -0.304872,-2.34821 0.469028,-1.84175 0.773899,0.50648 2.040285,1.95686 2.814165,3.22304 0.77389,1.26617 1.618177,1.68056 1.87612,0.92085 0.257963,-0.75971 -0.37523,-2.83163 -1.407082,-4.6043 l -1.876101,-3.22301 2.814165,-1.38129 c 1.547789,-0.75972 3.236293,-2.41727 3.75222,-3.68345 0.515936,-1.26619 0.727001,-3.54533 0.469028,-5.06474 -0.275783,-1.6244 -0.08268,-2.0038 0.469037,-0.92085 m 261.249165,25.32366 c -0.33209,-2.93755 -0.87897,-1.59769 -1.87612,4.60432 -0.77388,4.81149 -2.04027,10.19853 -2.81417,11.9712 -0.7739,1.77266 -1.61815,3.43021 -1.87612,3.68344 -0.25794,0.25322 0.37522,0.0462 1.40709,-0.46046 1.03187,-0.50644 2.72038,-4.23595 3.75223,-8.28774 1.03186,-4.05177 1.66503,-9.23161 1.40709,-11.51076 m 32.83201,12.43164 c 0.258,0 0.258,1.03597 0,2.30215 -0.25795,1.26619 -1.31326,3.7525 -2.34512,5.52517 -1.25045,2.14836 -1.25045,1.38129 0,-2.30215 1.03186,-3.03885 2.08717,-5.52517 2.34512,-5.52517 m -247.17829,5.98557 c 3.61151,0.25328 8.04387,1.08203 9.84961,1.84175 1.80578,0.75971 4.33853,2.41726 5.62838,3.68344 1.28982,1.26617 1.923,2.09497 1.40706,1.84172 -0.51595,-0.25323 -1.99336,-0.25323 -3.2832,0 -1.28985,0.25325 -4.24471,0.25325 -6.5664,0 -2.32171,-0.25323 -4.64339,-0.25323 -5.15933,0 -0.51595,0.25325 -1.14911,0.25325 -1.40709,0 -0.25797,-0.25323 -0.68008,-0.25323 -0.93806,0 -0.25796,0.25325 -0.89116,0.0462 -1.40707,-0.46044 -0.51593,-0.50648 -1.99338,-1.33524 -3.28322,-1.84173 -1.28981,-0.50647 -1.71195,-0.50647 -0.93807,0 0.77391,0.50649 1.19604,1.12807 0.93807,1.3813 -0.25795,0.25325 0.37522,0.66764 1.40709,0.92087 1.03187,0.25325 1.66506,0.66763 1.40708,0.92087 -0.25797,0.25322 -0.25797,0.87481 0,1.38127 0.25798,0.50649 0.89118,0.71368 1.40709,0.46045 0.51594,-0.25326 0.72701,-0.87483 0.46903,-1.38129 -0.25796,-0.5065 -0.047,-0.71367 0.46903,-0.46043 0.51595,0.25322 0.72701,1.082 0.46903,1.84172 -0.25797,0.75971 -0.047,1.58847 0.46902,1.84169 0.51593,0.25326 1.14914,0.0462 1.4071,-0.46039 0.25796,-0.50651 0.89115,-0.71368 1.40708,-0.46044 0.51595,0.25323 0.72701,0.66761 0.46905,0.92083 -0.258,0.25326 -0.258,0.66764 0,0.92088 0.25796,0.25323 -0.37525,0.87482 -1.40708,1.3813 -1.03186,0.50646 -1.66508,0.71367 -1.40712,0.46041 0.25798,-0.25322 0.25798,-0.66762 0,-0.92085 -0.25796,-0.25323 -0.68007,-0.0462 -0.93805,0.46044 -0.25797,0.50646 -1.31327,0.50646 -2.34513,0 -1.03189,-0.50648 -2.5093,-0.50648 -3.28322,0 -0.77389,0.50646 -1.82921,0.50646 -2.34514,0 -0.51593,-0.50648 -0.51593,-0.71367 0,-0.46044 0.51593,0.25323 0.72699,0.0462 0.46905,-0.46043 -0.25799,-0.50648 -1.10222,-0.50648 -1.87614,0 -0.77388,0.50649 -1.19601,0.71366 -0.93808,0.46043 0.258,-0.25323 0.047,-0.66763 -0.46901,-0.92086 -0.51592,-0.25324 -1.36018,-1.70359 -1.87612,-3.22302 -0.51592,-1.51941 -0.51592,-3.38415 0,-4.14386 0.51594,-0.75971 1.99338,-2.41724 3.28321,-3.68344 1.50745,-1.47983 4.68936,-2.13732 8.91155,-1.84175 m 212.47016,4.14388 c -0.25796,0 -0.89115,0.6216 -1.40708,1.38131 -0.51594,0.75971 -1.14912,1.79567 -1.40709,2.30214 -0.25798,0.50649 -0.047,0.71367 0.46903,0.46045 0.51593,-0.25324 1.36018,-1.28921 1.87611,-2.30215 0.51594,-1.01298 0.727,-1.84175 0.46903,-1.84175 m -231.70034,9.66905 c 2.32169,0.25323 5.69869,1.08203 7.50446,1.84173 l 3.28322,1.3813 -2.81421,0.46041 c -1.54778,0.25326 -4.50265,0.0462 -6.5664,-0.46041 -2.06373,-0.50646 -4.17434,-1.54246 -4.69027,-2.30218 -0.5225,-0.76889 0.93243,-1.17685 3.2832,-0.92085 m 92.39874,5.52516 c 0.51591,0.75973 0.0937,2.83167 -0.93808,4.60432 -1.03186,1.77266 -1.66505,5.08777 -1.40709,7.36687 0.25796,2.27915 0.047,7.87336 -0.46904,12.43163 -0.65102,5.7508 -1.3686,7.72418 -2.34512,6.44604 -0.77391,-1.01298 -1.19605,-3.29209 -0.93806,-5.06473 0.25795,-1.77268 0.46901,-5.50216 0.46901,-8.28777 0,-2.78559 1.05532,-8.17265 2.34514,-11.97118 1.28983,-3.79857 2.76727,-6.2849 3.28324,-5.52518 m 150.08926,0.92087 c 0.51594,1.26618 0.30489,3.95971 -0.46903,5.9856 -0.77389,2.02592 -1.61814,3.06185 -1.87612,2.30215 -0.25794,-0.75969 -0.047,-3.45322 0.46904,-5.98559 0.71667,-3.5186 1.15946,-4.061 1.87611,-2.30216 m -46.90289,0.46043 h 2.81417 l -4.22126,3.22302 c -2.3217,1.77266 -5.27658,3.43021 -6.56639,3.68346 -1.6388,0.32136 -1.2148,-0.64922 1.40707,-3.22305 2.06373,-2.0259 5.01861,-3.68343 6.56641,-3.68343 m 5.62834,5.9856 c 1.94834,0.31861 0.21668,1.4522 -5.62834,3.68345 -4.6434,1.77265 -8.65361,3.01582 -8.91155,2.76257 -0.25798,-0.25324 0.37523,-1.08201 1.40709,-1.84173 1.03186,-0.75968 3.77567,-2.21005 6.09737,-3.223 2.32168,-1.01296 5.48763,-1.63452 7.03543,-1.38129 m 48.31001,2.30215 c 0.25795,0 0.25795,0.82876 0,1.84172 l -1.87613,7.36689 c -0.77389,3.03886 -2.04027,6.97554 -2.81417,8.74818 l -1.4071,3.22302 -0.46902,-4.14388 c -0.25796,-2.27913 0.37522,-5.38704 1.40709,-6.90645 1.03187,-1.51942 2.50931,-4.42013 3.2832,-6.44602 0.7739,-2.0259 1.61815,-3.68346 1.87613,-3.68346 m -327.38227,2.76259 c 0.773899,0 3.728782,2.48632 6.566406,5.52516 2.837626,3.03884 5.370381,6.35393 5.628354,7.36691 0.257954,1.01292 0.04692,3.91365 -0.469037,6.446 -0.716668,3.51861 -1.159436,4.061 -1.876112,2.30215 -0.515932,-1.26618 -1.360186,-2.09494 -1.876117,-1.84171 -0.515932,0.25324 -1.78231,0.25324 -2.814173,0 -1.031866,-0.25323 -2.931432,-0.87481 -4.221263,-1.38129 -1.289827,-0.50647 -2.978335,-0.50647 -3.752232,0 -0.773898,0.50648 -1.196025,0.29927 -0.938059,-0.46043 0.257967,-0.75971 1.313282,-1.58849 2.345145,-1.84172 1.031864,-0.25325 1.665053,-1.08201 1.407088,-1.84173 -0.257965,-0.75971 -0.257965,-3.24604 0,-5.52515 0.257965,-2.27914 0.04691,-5.17987 -0.469028,-6.44605 -0.515933,-1.26618 -0.30487,-2.30214 0.469028,-2.30214 m 355.52398,1.38128 c 1.39209,0.27349 2.15473,1.39603 1.87614,2.76258 l -2.34515,11.51078 -5.62833,1.8417 c -3.09562,1.01296 -6.26155,1.42736 -7.03545,0.92088 -0.77391,-0.50647 -1.19602,-2.37122 -0.93808,-4.14388 0.25797,-1.77266 1.10224,-4.25896 1.87614,-5.52515 0.77388,-1.26621 1.61815,-1.68058 1.8761,-0.92088 0.25798,0.75971 0.89115,1.1741 1.40709,0.92088 0.51595,-0.25325 2.20444,-2.11799 3.75223,-4.1439 1.62474,-2.12718 3.80477,-3.48913 5.15931,-3.22301 m -251.39954,10.5899 c 0.25796,0 0.25796,0.20719 0,0.46042 -0.25796,0.25327 -0.25796,0.87483 0,1.38129 0.25796,0.50651 0.89116,0.71369 1.40708,0.46045 0.51592,-0.25323 1.78227,0.16115 2.81416,0.92086 1.03187,0.75971 1.66508,1.5885 1.40708,1.84173 -0.25794,0.25323 -0.25794,0.87482 0,1.38129 0.258,0.50648 0.258,0.71365 0,0.46043 -0.25794,-0.25325 -0.68007,-0.0462 -0.93804,0.46042 -0.25797,0.50646 -0.89114,0.71368 -1.40707,0.46044 -0.51595,-0.25323 -0.51595,-1.28921 0,-2.30217 0.51593,-1.01294 0.72698,-1.63452 0.46901,-1.38127 -0.25795,0.25323 -0.6801,0.25323 -0.93806,0 -0.25796,-0.25325 -0.89116,-0.0462 -1.40708,0.46042 -0.51592,0.50647 -0.51592,0.71367 0,0.46044 0.51592,-0.25323 0.51592,0.16115 0,0.92086 -0.51592,0.7597 -1.57123,0.7597 -2.34516,0 l -0.93806,-0.92086 c 0.25798,0.25323 0.89117,0.25323 1.40711,0 0.51593,-0.25323 0.51593,-1.08202 0,-1.84173 -0.51594,-0.75971 -0.727,-1.79569 -0.46905,-2.30213 0.25799,-0.50649 0.68012,-0.92089 0.93808,-0.92089 m 171.66462,0 c 1.28984,0 5.30003,0.6216 8.91156,1.38131 3.61152,0.75972 7.41065,0.96691 8.44251,0.4604 1.03186,-0.50646 2.72037,-1.12802 3.75223,-1.38129 1.03186,-0.25323 4.19783,0.36837 7.03545,1.38129 l 5.15931,1.84175 -4.69029,0.92085 c -2.57965,0.50647 -8.27836,1.33526 -12.66378,1.84173 -4.38541,0.50648 -8.60668,0.50648 -9.38059,0 -0.77389,-0.50647 -3.09558,-1.54244 -5.15932,-2.30215 -2.06372,-0.75971 -3.9633,-1.17411 -4.22127,-0.92087 -0.25795,0.25326 -0.89113,0.25326 -1.40708,0 -0.51593,-0.25324 -0.30486,-1.08199 0.46904,-1.84171 0.77388,-0.75971 2.46238,-1.38131 3.75223,-1.38131 m -183.85939,5.52516 c 0.25797,0 2.36861,1.45038 4.69029,3.22302 2.32172,1.77267 4.0102,3.84461 3.75224,4.60432 -0.25797,0.75972 -1.94648,0.75972 -3.75224,0 -1.80576,-0.75971 -3.70532,-2.83165 -4.22126,-4.60432 -0.51595,-1.77264 -0.72698,-3.22302 -0.46903,-3.22302 m 221.38173,5.06476 c 4.40603,0.33243 5.57674,0.84348 4.22126,1.84171 -1.03189,0.75971 -5.04208,1.1741 -8.91157,0.92087 -3.86948,-0.25325 -6.82436,-0.66762 -6.56638,-0.92087 0.25795,-0.25324 1.52433,-0.87481 2.81415,-1.38129 1.28984,-0.50649 5.08898,-0.71367 8.44254,-0.46042 m -23.45146,6.44601 c 3.35355,0.25324 7.57481,0.87484 9.38058,1.38129 l 3.28322,0.92086 -4.22128,0.46044 c -2.32168,0.25323 -6.75404,0.0462 -9.84961,-0.46044 -3.0956,-0.50647 -5.4173,-1.33523 -5.15931,-1.84173 0.25794,-0.50644 3.21283,-0.71365 6.5664,-0.46042 m -242.48801,0.46042 c 2.063716,0 3.330095,0.41442 2.814175,0.92087 -0.515935,0.50646 -2.626569,1.12808 -4.690285,1.3813 -2.126575,0.2606 -3.346053,-0.13813 -2.814165,-0.92085 0.515917,-0.75972 2.62654,-1.38132 4.690275,-1.38132 m 62.84989,10.12948 c 1.03185,1.01296 2.5093,2.67051 3.28319,3.68345 0.7739,1.01293 2.25134,3.91365 3.2832,6.44603 1.03187,2.53238 1.66505,5.64028 1.40709,6.90645 l -0.46904,2.30214 -1.87611,-2.76257 c -1.03186,-1.5194 -2.72037,-4.42014 -3.75222,-6.44602 -1.03188,-2.02589 -2.29825,-5.54819 -2.81419,-7.82733 l -0.93806,-4.14387 1.87614,1.84172 m -20.16824,5.52519 c 1.28982,1.01291 1.92299,1.42733 1.40708,0.92086 -0.51596,-0.5065 -1.3602,-0.71366 -1.87613,-0.46045 -0.51593,0.25324 -0.727,0.0462 -0.46902,-0.46041 0.25795,-0.5065 -0.16415,-0.71369 -0.93807,-0.46044 -0.77388,0.25322 -1.19601,0.0462 -0.93808,-0.46044 0.258,-0.50645 1.52437,-0.0922 2.81422,0.92088 m 37.52232,3.68343 c 0.25794,1.5194 -0.16417,5.6633 -0.93807,9.20861 -0.77391,3.54531 -1.82923,7.0676 -2.34514,7.82731 -0.51595,0.75971 -0.0938,-3.38413 0.93806,-9.20861 1.03188,-5.82444 2.08716,-9.34675 2.34515,-7.82731 m -49.71709,-0.46045 c 1.28983,0.75973 2.55622,1.1741 2.81417,0.92087 0.25796,-0.25323 0.89116,0.16115 1.40707,0.92088 0.51597,0.75972 1.14912,1.17409 1.4071,0.92084 0.25796,-0.25322 0.89116,-0.25322 1.40708,0 0.51594,0.25325 0.72701,0.87484 0.46904,1.3813 -0.25796,0.50646 -2.57966,-0.5295 -5.15931,-2.30214 -2.57966,-1.77268 -3.63498,-2.60144 -2.34515,-1.84175 m 212.47015,-1.38127 c 2.06372,0 5.86286,0.41437 8.44251,0.92086 2.57968,0.50649 6.58986,1.74964 8.91156,2.76256 2.3217,1.01296 4.01018,2.04894 3.75224,2.30219 -0.25797,0.2532 0.16414,1.49636 0.93807,2.76258 0.77387,1.26618 3.93983,3.1309 7.03545,4.14387 3.09558,1.01293 6.47258,2.87768 7.50443,4.14386 l 1.87612,2.30215 -4.22125,-1.38129 c -2.3217,-0.7597 -5.90977,-2.00287 -7.9735,-2.76258 -2.06373,-0.7597 -5.86286,-2.21006 -8.44252,-3.22303 -2.57967,-1.01293 -7.01197,-2.87769 -9.84961,-4.14385 -2.83764,-1.26619 -6.84784,-2.92372 -8.91155,-3.68346 -2.06374,-0.75969 -3.54117,-2.00286 -3.28322,-2.76259 0.25798,-0.75969 2.15756,-1.38127 4.22127,-1.38127 m -189.95676,3.68342 c 1.28982,1.01296 2.76727,2.46331 3.28321,3.22303 0.51593,0.75972 1.14909,1.17411 1.40709,0.92087 0.25796,-0.25325 0.89115,-0.0462 1.40708,0.46042 0.51593,0.50649 2.20444,4.23596 3.75224,8.28775 1.5478,4.05179 2.60309,9.85321 2.34516,12.89208 l -0.46905,5.52514 -2.34517,-3.68345 c -1.28981,-2.02588 -2.76725,-4.30501 -3.28318,-5.06472 -0.51593,-0.75972 -3.04871,-4.07481 -5.62836,-7.3669 -2.57967,-3.29207 -5.32347,-6.81437 -6.09738,-7.82731 -0.7739,-1.01295 -1.8292,-1.63452 -2.34514,-1.3813 -0.51595,0.25327 -0.72698,0.0462 -0.46903,-0.46043 0.25797,-0.50648 1.10222,-0.50648 1.87613,0 0.77388,0.50647 1.61815,0.7137 1.87612,0.46043 0.25794,-0.25322 1.31326,0.36835 2.34512,1.3813 1.03187,1.01294 3.14251,2.6705 4.6903,3.68344 1.5478,1.01296 2.60312,2.25612 2.34516,2.76258 -0.258,0.50648 -0.258,0.71366 0,0.46043 0.25796,-0.25322 0.89115,-0.25322 1.40708,0 0.51593,0.25323 0.51593,-0.57553 0,-1.84172 -0.51593,-1.26618 -2.62655,-4.99567 -4.69029,-8.28774 -2.12659,-3.39245 -2.73632,-5.18719 -1.40709,-4.1439 m -28.61075,3.68347 c 1.03186,0 4.40884,1.03597 7.50443,2.30214 3.09558,1.26617 6.4726,2.92373 7.50447,3.68345 1.38271,1.01846 1.136,1.1391 -0.93807,0.46043 -1.54778,-0.50647 -5.13585,-1.74964 -7.97347,-2.76258 -2.83764,-1.01295 -5.7925,-2.2561 -6.56641,-2.76259 -0.82738,-0.54146 -0.63413,-0.92085 0.46905,-0.92085 m 203.55858,0.92085 c 1.5478,0 2.39205,0.41438 1.87611,0.92086 -0.51592,0.50647 -3.04868,1.95684 -5.62835,3.22301 -2.57965,1.26618 -6.58985,3.13095 -8.91155,4.14388 l -4.22126,1.84173 2.81419,-2.76258 c 1.54779,-1.51943 4.71373,-3.79856 7.03544,-5.06472 2.32167,-1.2662 5.48763,-2.30218 7.03542,-2.30218 m -20.16824,0.92086 c 0.25797,0 -0.16417,1.24318 -0.93807,2.76257 -0.77389,1.51944 -3.72878,4.42015 -6.56641,6.44605 -2.83761,2.02589 -5.58143,4.92661 -6.09737,6.44601 -0.51593,1.51943 -0.72701,3.17698 -0.46902,3.68345 0.25795,0.50648 0.25795,2.16404 0,3.68347 l -0.46903,2.76256 1.87612,-3.22301 c 1.03185,-1.77268 3.98671,-4.25899 6.5664,-5.52516 2.57965,-1.26619 5.53455,-3.33812 6.5664,-4.60429 1.03186,-1.26621 2.29825,-1.8878 2.81417,-1.38129 0.51594,0.50645 1.99337,0.50645 3.28319,0 1.28984,-0.50651 4.87792,-2.16405 7.97353,-3.68347 3.09558,-1.51943 6.47259,-2.55537 7.50444,-2.30216 1.03188,0.25324 -3.18939,2.73957 -9.38059,5.52519 -6.38066,2.87123 -11.86641,6.26183 -12.66376,7.8273 -0.96526,1.89513 -0.81799,2.61802 0.46902,2.30217 1.03186,-0.25325 4.19781,-1.2892 7.03543,-2.30217 2.83764,-1.01291 7.48102,-3.2921 10.31863,-5.06471 2.83765,-1.77267 9.80274,-4.4662 15.47798,-5.98562 5.67524,-1.51943 12.2182,-2.55537 14.53989,-2.30216 2.3217,0.25324 5.27658,0.66761 6.56641,0.92087 1.39209,0.27348 1.77388,0.8343 0.93807,1.38129 -0.7739,0.50648 -1.82922,0.71365 -2.34515,0.46043 -0.51594,-0.25324 -1.14912,-0.0462 -1.40709,0.46043 -0.25798,0.50648 -2.57966,0.71366 -5.15932,0.46043 l -4.6903,-0.46043 5.62838,1.84172 c 3.09558,1.01296 6.26153,2.6705 7.03541,3.68345 0.7739,1.01295 1.19603,1.42733 0.93807,0.92087 -0.25798,-0.50647 -0.6801,-0.71368 -0.93807,-0.46045 -0.25796,0.25323 -1.31327,0.25323 -2.34514,0 -1.03187,-0.25323 -3.56461,-1.28919 -5.62835,-2.30213 -2.06372,-1.01296 -3.54117,-1.42736 -3.2832,-0.92085 0.25798,0.50645 0.047,1.12803 -0.46904,1.38129 -0.51593,0.25323 -1.57125,0.87479 -2.34513,1.38127 -0.7739,0.50649 -0.14074,0.71365 1.40707,0.46042 1.5478,-0.25323 3.65846,0.16114 4.6903,0.92085 1.3555,0.99824 0.18478,1.50931 -4.22128,1.84175 -3.35354,0.25323 -5.8863,-0.16113 -5.62833,-0.92086 0.25796,-0.7597 -1.85266,-1.1741 -4.69028,-0.92089 -2.83763,0.25327 -7.6921,1.49641 -10.78768,2.76259 -3.52242,1.44026 -6.50638,3.8529 -7.97348,6.44603 -1.28985,2.27915 -2.55623,3.9367 -2.81417,3.68347 -0.25799,-0.25326 -0.89117,-0.0462 -1.4071,0.46041 -0.51594,0.50647 0.11725,-1.35826 1.4071,-4.14388 1.28981,-2.78561 1.71194,-4.65033 0.93805,-4.14384 -0.77391,0.50646 -4.57304,2.37121 -8.44253,4.14384 -3.86949,1.77266 -8.93501,5.50215 -11.2567,8.28776 l -4.22125,5.06473 -0.93807,-3.68343 c -0.51593,-2.0259 -0.72701,-4.09784 -0.46902,-4.6043 0.25795,-0.50648 0.047,-1.54246 -0.46903,-2.30217 -0.51594,-0.7597 -1.36019,-0.5525 -1.87614,0.46045 -0.51592,1.01293 -1.36017,1.42731 -1.87611,0.92084 -0.51592,-0.50647 -0.93804,-4.44315 -0.93804,-8.74817 0,-4.30502 0.63319,-10.31364 1.40708,-13.35248 0.7739,-3.03885 1.8292,-5.11077 2.34516,-4.60431 0.51592,0.50648 0.727,3.19998 0.46901,5.98559 -0.25796,2.78562 -0.047,4.65034 0.46904,4.14389 0.51592,-0.50648 3.25975,-2.57843 6.09737,-4.60432 2.83763,-2.02588 5.79251,-4.51222 6.56642,-5.52516 0.77387,-1.01295 1.61815,-1.84173 1.87611,-1.84173 m -36.58425,2.76257 c 0.25794,0 0.25794,1.24316 0,2.7626 -0.258,1.51942 0.16414,6.49208 0.93804,11.05032 0.77389,4.55826 1.19601,10.1525 0.93806,12.43162 -0.25797,2.27913 -0.25797,5.17987 0,6.44606 0.3302,1.62254 0.1923,1.75883 -0.46905,0.46044 -0.51592,-1.01297 -1.14911,-1.63453 -1.40705,-1.3813 -0.258,0.25324 -1.9465,-0.57556 -3.75226,-1.84174 -1.80575,-1.26618 -3.91639,-3.54532 -4.69029,-5.06472 -0.7739,-1.51944 -1.8292,-2.55541 -2.34514,-2.30217 -0.51593,0.25325 -0.72701,0.25325 -0.46903,0 0.25797,-0.25324 -0.16417,-1.49641 -0.93805,-2.76258 -1.12567,-1.84171 -0.75046,-1.84171 1.87611,0 1.80576,1.26617 4.33852,3.7525 5.62834,5.52518 1.28983,1.77265 2.76728,3.84458 3.28321,4.60429 0.51592,0.75972 0.72698,0.13814 0.46904,-1.38129 -0.25798,-1.51942 -0.89116,-4.42015 -1.4071,-6.44604 -0.51593,-2.02588 -1.14912,-6.79135 -1.40709,-10.5899 -0.25796,-3.79853 0.37523,-7.94241 1.40709,-9.20861 1.03187,-1.26616 2.08717,-2.30216 2.34517,-2.30216 m -159.938911,0.92089 c 1.031862,0 7.574801,1.24315 14.539891,2.76258 6.96508,1.51943 14.98548,4.21294 17.82308,5.98561 2.83766,1.77266 4.52615,3.43019 3.75224,3.68343 -0.7739,0.25322 -2.04025,0.0462 -2.81417,-0.46045 -0.77389,-0.50646 -4.7841,-1.95681 -8.91155,-3.22298 -4.12744,-1.26621 -10.0372,-2.30218 -13.13281,-2.30218 -3.09558,0 -6.683655,0.41438 -7.973495,0.92089 -1.289809,0.50645 -5.088931,1.33524 -8.442503,1.8417 -3.353575,0.50646 -7.785887,0.50646 -9.849612,0 l -3.752249,-0.92085 9.849617,-2.76259 c 1.805784,-0.50647 4.127473,-1.95684 5.159326,-3.22302 1.031871,-1.2662 2.720363,-2.30214 3.752235,-2.30214 m 172.133641,3.68343 c 0.25796,0 0.25796,0.62159 0,1.38129 -0.25797,0.75972 -0.46903,5.52516 -0.46903,10.5899 0,5.06473 -0.42212,9.00143 -0.93804,8.7482 -0.51596,-0.25326 -1.3602,-3.15397 -1.87613,-6.44602 -0.51595,-3.29209 -0.0938,-7.85036 0.93807,-10.1295 1.03186,-2.2791 2.08716,-4.14387 2.34513,-4.14387 m -160.4079,6.90645 c 2.32167,0.25323 4.01017,0.87483 3.75221,1.38129 -0.25796,0.50648 -1.52434,0.71367 -2.81418,0.46045 -1.28982,-0.25324 -2.76727,-0.25324 -3.2832,0 -0.51594,0.25322 -1.99338,0.25322 -3.283209,0 -1.713822,-0.33611 -1.840466,-0.70816 -0.468999,-1.38129 1.031851,-0.50647 3.775658,-0.71368 6.097378,-0.46045 m 204.49663,5.98563 c 0.25796,0 0.25796,0.62155 0,1.38129 -0.25795,0.75969 -1.94647,4.69636 -3.75223,8.74817 l -3.28322,7.36687 -0.46901,-3.22299 c -0.25795,-1.77267 0.16415,-4.8806 0.93807,-6.90646 0.77387,-2.0259 2.46239,-4.51222 3.75222,-5.52519 1.28983,-1.01294 2.55622,-1.84169 2.81417,-1.84169 m 28.14174,2.30213 c 0.7739,0.25322 2.25134,0.87481 3.28321,1.38129 1.03187,0.50649 3.77568,1.95685 6.09739,3.22301 2.32168,1.2662 5.0655,3.33812 6.09736,4.60432 l 1.87611,2.30215 -5.1593,-1.3813 c -2.83764,-0.75971 -4.94827,-0.9669 -4.69029,-0.46043 0.25796,0.50646 2.57966,2.7856 5.15931,5.06474 2.57967,2.27912 5.32349,5.17983 6.09736,6.44604 0.77392,1.26617 1.19603,2.50933 0.93808,2.76258 -0.25797,0.25322 -0.25797,0.8748 0,1.38129 0.25795,0.50647 -0.58627,-0.32233 -1.87612,-1.84174 -1.28982,-1.51941 -3.18941,-3.38415 -4.22126,-4.14388 -1.03186,-0.75969 -2.72036,-2.62443 -3.75224,-4.14387 -1.03185,-1.51942 -3.14247,-4.00573 -4.69028,-5.52516 -1.54779,-1.51944 -5.13587,-3.17698 -7.97349,-3.68345 -2.83765,-0.50647 -5.37039,-1.33523 -5.62836,-1.84172 -0.25796,-0.50647 1.43056,-1.12804 3.75224,-1.38129 2.32168,-0.25324 4.0102,-1.08202 3.75225,-1.8417 -0.25798,-0.75973 0.16413,-1.17411 0.93803,-0.92088 m -252.337614,1.84171 c 1.289827,0.25324 2.767276,0.25324 3.283223,0 0.515917,-0.25322 1.993376,-0.25322 3.283187,0 1.289841,0.25324 3.40047,0.87484 4.690279,1.3813 1.28984,0.50647 2.556207,0.71366 2.814176,0.46042 0.257969,-0.25322 0.680104,-0.25322 0.938079,0 0.25795,0.25324 1.7354,1.49642 3.2832,2.76258 l 2.81418,2.30217 -3.28321,-0.92085 c -1.80576,-0.50649 -6.027025,-1.12807 -9.38058,-1.38132 -3.353559,-0.25322 -7.785881,-0.0462 -9.84962,0.46046 -2.063734,0.50646 -5.65179,1.74962 -7.973487,2.76257 -2.321688,1.01295 -5.065505,1.63452 -6.097377,1.38129 -1.158513,-0.28452 -1.338601,-1.16487 -0.469028,-2.30215 0.77389,-1.01295 4.1509,-3.08489 7.50446,-4.60431 3.35357,-1.51942 7.152698,-2.55538 8.442518,-2.30216 m 94.274814,12.43163 c 0.51596,1.01296 0.72701,2.25611 0.46904,2.76258 -0.25795,0.50648 -0.68008,-0.32228 -0.93805,-1.84172 -0.27579,-1.62439 -0.0827,-2.00378 0.46901,-0.92086 m -72.69949,7.3669 c 1.80578,0.50646 4.54958,2.99281 6.0974,5.52517 1.83857,3.00845 2.48864,6.20016 1.87611,9.2086 -0.51596,2.53237 -1.99338,7.09063 -3.28321,10.12948 l -2.34514,5.52516 -1.40709,-3.22302 c -0.7739,-1.77265 -2.04029,-5.08774 -2.81415,-7.36688 -0.77393,-2.27912 -1.19605,-5.80142 -0.93809,-7.82732 0.25797,-2.0259 0.047,-5.13379 -0.46901,-6.90647 -0.51593,-1.77265 -1.14912,-2.80862 -1.40709,-2.30214 -0.25797,0.50646 -0.68011,0.71368 -0.93805,0.46041 -0.25797,-0.25323 0.16415,-1.2892 0.93805,-2.30212 0.77388,-1.01298 2.88453,-1.42734 4.69027,-0.92087 m 197.93025,1.84171 c 0.25798,0 0.047,0.62159 -0.469,1.38128 -0.51594,0.75974 -1.99338,2.41729 -3.28321,3.68347 -1.28984,1.26619 -2.1341,2.71653 -1.87612,3.22301 0.25794,0.50646 1.73539,1.95681 3.28318,3.22302 l 2.8142,2.30213 -9.38058,-0.92085 0.469,-3.68344 c 0.26644,-2.09218 2.09002,-4.8769 4.22129,-6.44603 2.06373,-1.51942 3.96328,-2.76259 4.22124,-2.76259 m 5.15933,1.84174 c 0.51595,0 1.14911,0.41439 1.4071,0.92085 0.25795,0.50649 0.68007,2.78559 0.93805,5.06474 0.25796,2.27912 0.25796,7.04458 0,10.58992 -0.25798,3.54531 -0.89116,6.6532 -1.40709,6.90643 -0.51593,0.25326 -1.36019,-1.1971 -1.87612,-3.22301 -0.51594,-2.02588 -1.14913,-5.96258 -1.4071,-8.74817 -0.25795,-2.7856 -0.047,-6.51509 0.46905,-8.28775 0.51592,-1.77266 1.36018,-3.22301 1.87611,-3.22301 m 21.10631,0.46042 c 1.28982,0.25321 3.61151,2.73958 5.15932,5.52517 1.5478,2.78559 2.60311,7.13669 2.34515,9.66904 -0.25797,2.53235 -1.10225,6.26185 -1.8761,8.28775 -0.77393,2.02587 -2.25136,4.30501 -3.28324,5.06474 -1.49901,1.10411 -1.68755,0.82694 -0.93805,-1.38132 0.51594,-1.5194 1.36017,-5.04169 1.87613,-7.8273 0.51592,-2.78561 0.51592,-7.13667 0,-9.66903 -0.51596,-2.53239 -1.99339,-5.84747 -3.28321,-7.36689 -1.87612,-2.21007 -1.87612,-2.67052 0,-2.30216 m -14.07088,0.46043 c 0.25798,0 1.73541,0.82877 3.28321,1.84173 1.5478,1.01295 3.02524,2.25612 3.2832,2.76259 0.25797,0.50645 0.25797,2.7856 0,5.0647 -0.25796,2.27916 -0.25796,4.3511 0,4.60433 0.25797,0.25321 0.047,0.66762 -0.46902,0.92086 -0.51593,0.25322 -0.51593,0.87481 0,1.38128 0.51593,0.50648 0.0938,0.71368 -0.93807,0.46045 -1.03187,-0.25324 -1.66504,-1.2892 -1.40709,-2.30216 0.25798,-1.01296 0.89116,-2.4633 1.40709,-3.22301 0.51593,-0.75971 0.72701,-2.21006 0.46904,-3.22303 -0.25797,-1.01293 -1.73539,-3.29207 -3.2832,-5.06473 -1.54781,-1.77265 -2.60311,-3.22301 -2.34516,-3.22301 m -227.948075,3.68345 c 0.773881,0 3.517719,0.4144 6.097379,0.92087 2.57965,0.50645 4.901331,1.74962 5.159306,2.76257 0.32174,1.26343 -0.708232,1.55256 -3.283213,0.92085 -2.063713,-0.50645 -3.963302,-0.71365 -4.221249,-0.46041 -0.257978,0.25323 -1.94649,0.0462 -3.752223,-0.46044 -1.901465,-0.53318 -2.888286,-1.50193 -2.345156,-2.30215 0.515926,-0.75973 1.571238,-1.38129 2.345156,-1.38129 m 33.770055,0 c 0.25796,0 1.10222,1.45036 1.87614,3.22301 0.77387,1.77267 1.19601,4.46618 0.93802,5.9856 -0.25793,1.51942 -1.10221,4.21293 -1.87609,5.98559 l -1.40709,3.223 -0.93807,-4.14386 c -0.51592,-2.27912 -0.51592,-6.423 0,-9.2086 0.51593,-2.78561 1.14912,-5.06474 1.40709,-5.06474 m 169.78852,5.98557 c 2.02621,1.42093 4.00176,4.94598 5.15932,9.20863 1.03186,3.79855 3.14248,8.56401 4.69027,10.58989 1.5478,2.0259 5.76908,4.92661 9.38059,6.44603 3.61154,1.51944 9.31023,2.55539 12.6638,2.30217 l 6.09737,-0.46043 -1.87612,1.84172 c -1.03186,1.01294 -3.56461,2.04891 -5.62834,2.30215 -2.06373,0.25325 -6.28499,0.0463 -9.38059,-0.46044 -3.09559,-0.50647 -6.68367,-1.33524 -7.97349,-1.84171 -1.28982,-0.50648 -3.61152,-2.78561 -5.15931,-5.06475 -1.54781,-2.27912 -3.65844,-6.63017 -4.69029,-9.66903 -1.03189,-3.03884 -2.72038,-7.3899 -3.75224,-9.66904 -1.03187,-2.27912 -2.08717,-4.97266 -2.34514,-5.98559 -0.29455,-1.15661 0.75232,-0.98532 2.81417,0.4604 m 10.31865,2.30217 c 0.77387,0 -0.0703,0.62158 -1.87612,1.38131 -1.80575,0.75969 -2.43897,0.75969 -1.4071,0 1.03187,-0.75973 2.5093,-1.38131 3.28322,-1.38131 m 42.21261,4.6043 c 0.25796,0 1.10219,2.27914 1.87612,5.06474 0.77387,2.7856 1.82918,5.68631 2.34512,6.44604 0.51592,0.75971 0.72699,1.58848 0.46905,1.84172 -0.25799,0.25324 -0.25799,0.6676 0,0.92086 0.25794,0.25324 0.047,0.87482 -0.46905,1.38128 -0.51594,0.50648 -0.51594,1.33525 0,1.84174 0.51592,0.50648 0.72699,1.12805 0.46905,1.38129 -0.25799,0.25323 -0.25799,0.87482 0,1.3813 0.25794,0.50646 0.047,0.50646 -0.46905,0 -0.51594,-0.50648 -1.36016,-0.71368 -1.87611,-0.46045 -0.51592,0.25322 -0.727,0.25322 -0.46901,0 0.25795,-0.25323 0.047,-0.66762 -0.46905,-0.92085 -0.51592,-0.25324 -0.51592,-0.87481 0,-1.38129 0.51594,-0.50649 0.51594,-0.71368 0,-0.46044 -0.51592,0.25322 -1.57124,0.0462 -2.34514,-0.46044 -0.77388,-0.50647 -0.98496,-4.44314 -0.46903,-8.74818 0.51594,-4.30501 1.14912,-7.82732 1.4071,-7.82732 m -156.18667,2.76259 c 1.5478,0 3.86947,0.62159 5.15932,1.38128 1.28982,0.75973 1.92302,1.17409 1.40707,0.92087 -0.51592,-0.25323 -3.68188,-0.46041 -7.03543,-0.46041 -3.35356,0 -5.25314,-0.4144 -4.22126,-0.92087 1.03186,-0.5065 3.14251,-0.92087 4.6903,-0.92087 m -12.19477,8.28775 c 2.06374,0 5.44075,0.41439 7.50447,0.92087 2.06373,0.50648 3.54117,1.12805 3.28321,1.38129 -0.25797,0.25324 -2.79072,1.2892 -5.62836,2.30214 -2.83764,1.01295 -7.48101,1.63452 -10.31863,1.3813 l -5.15934,-0.46044 3.28322,-2.76256 c 1.80575,-1.51943 4.97172,-2.7626 7.03543,-2.7626 m -98.027062,3.22302 c 0.77389,0.25324 2.884552,1.08201 4.690294,1.84173 1.805772,0.75969 5.81596,1.38129 8.911556,1.38129 3.095595,0 5.206214,0.41437 4.690289,0.92085 -0.515926,0.50646 -2.626545,1.12806 -4.690289,1.38129 -2.063735,0.25322 -5.22967,0.0462 -7.035442,-0.46044 -1.805765,-0.50646 -4.338508,-1.95683 -5.628353,-3.22299 -1.289806,-1.26618 -1.711935,-2.09499 -0.938055,-1.84173 m 81.142032,-0.46042 c 0.51591,0 0.0937,1.03597 -0.93806,2.30215 -1.03188,1.26616 -3.7757,3.3381 -6.09739,4.60428 -2.3217,1.26619 -4.85446,2.09497 -5.62832,1.84174 -0.77392,-0.25324 1.54778,-2.32518 5.15928,-4.60432 3.61154,-2.27912 6.98855,-4.14385 7.50449,-4.14385 m 200.74443,0.46042 c -0.51596,-0.25326 -1.14914,-0.0462 -1.40709,0.46044 -0.25798,0.50648 0.16416,1.12805 0.93805,1.38129 0.7739,0.25324 1.61815,0.25324 1.87613,0 0.25795,-0.25324 1.52432,-0.25324 2.81416,0 1.28981,0.25324 2.1341,0.0462 1.87611,-0.46045 -0.25796,-0.50646 -1.31327,-1.12804 -2.34514,-1.38128 -1.03185,-0.25326 -2.08718,-0.25326 -2.34513,0 -0.25798,0.25324 -0.89117,0.25324 -1.40709,0 m 9.8496,-0.46042 c 0.77387,0 2.04026,0.41435 2.81418,0.92086 0.77391,0.50648 0.1407,0.50648 -1.40709,0 -1.5478,-0.50651 -2.181,-0.92086 -1.40709,-0.92086 m -157.59376,6.44603 c 0.7739,0 2.88452,1.03594 4.69031,2.30214 1.80572,1.26617 3.07212,2.71653 2.81414,3.22302 -0.25794,0.50646 -0.25794,0.71366 0,0.4604 0.25798,-0.25323 1.52436,-0.0462 2.8142,0.46047 1.52339,0.59854 1.85169,1.40524 0.93805,2.30212 -0.7739,0.75973 -2.46241,1.17409 -3.75225,0.92087 -1.28982,-0.25324 -3.82257,-2.53236 -5.62835,-5.06474 -1.80576,-2.53236 -2.65,-4.60428 -1.8761,-4.60428 m -34.23912,8.28774 c 1.5478,0 6.1912,2.48631 10.31865,5.52515 4.4126,3.2488 8.6639,5.33546 10.31862,5.06475 1.54779,-0.25325 2.60312,-1.08203 2.34514,-1.84172 -0.25795,-0.75973 -0.68007,-1.79568 -0.93806,-2.30216 -0.25796,-0.50647 0.79736,-1.12805 2.34516,-1.38129 1.54779,-0.25325 3.02524,-0.87483 3.28322,-1.38129 0.25795,-0.50648 0.6801,-0.71366 0.93805,-0.46044 0.25796,0.25325 0.68009,0.25325 0.93805,0 0.25796,-0.25322 1.52434,-0.0463 2.81418,0.46044 1.28982,0.50646 4.45576,1.33523 7.03543,1.84171 2.57966,0.50649 5.95667,2.16404 7.50445,3.68344 1.54781,1.51945 3.02525,4.62733 3.28322,6.90647 0.31423,2.77365 -0.30676,4.44867 -1.87613,5.06471 -1.40333,0.55071 -2.90985,-0.004 -3.75221,-1.38127 -0.7739,-1.26617 -2.25134,-3.54531 -3.2832,-5.06472 -1.39772,-2.05813 -3.31042,-2.64564 -7.50448,-2.30216 -3.0956,0.25322 -5.41726,0.87481 -5.15931,1.38128 0.25796,0.50649 -0.5863,1.74963 -1.87613,2.76259 -1.46898,1.15289 -1.99431,3.0462 -1.40708,5.06474 0.51593,1.77264 0.51593,3.01583 0,2.76258 -0.51594,-0.25323 -1.78231,-1.4964 -2.81417,-2.76258 -1.03188,-1.26619 -2.72039,-2.71654 -3.75224,-3.22303 -1.03185,-0.50648 -6.94163,-3.19998 -13.13281,-5.98558 -6.1912,-2.78561 -11.46776,-5.89352 -11.72573,-6.90647 -0.25794,-1.01295 -1.10223,-1.63453 -1.87611,-1.38128 -0.7739,0.25323 -1.19604,1.91078 -0.93806,3.68344 0.25797,1.77264 0.89114,4.88057 1.40709,6.90647 0.51592,2.02588 1.14914,5.54819 1.40708,7.8273 0.25797,2.27914 -0.16416,3.93669 -0.93805,3.68344 -0.77392,-0.25323 -1.8292,-1.08198 -2.34514,-1.84171 -0.51594,-0.75971 -1.3602,-4.69638 -1.87613,-8.74819 -0.51594,-4.05179 -0.51594,-8.40287 0,-9.66903 0.51593,-1.26619 2.62656,-3.13092 4.6903,-4.14388 2.06374,-1.01294 5.0186,-1.84171 6.5664,-1.84171 m 109.75279,12.43162 c 3.61154,3.79854 5.93323,6.69927 5.15931,6.44603 -0.77389,-0.25324 -3.5177,-1.91078 -6.09737,-3.68344 -2.57966,-1.77267 -4.47923,-3.43022 -4.22125,-3.68348 0.25796,-0.2532 0.25796,-0.66762 0,-0.92083 -0.25798,-0.25325 -0.89116,-1.08203 -1.40708,-1.84172 -0.51593,-0.75973 -0.72701,-1.79568 -0.46904,-2.30216 0.25796,-0.50647 3.42392,2.18703 7.03543,5.9856 m -156.6557,-5.52516 c 0.51595,0.25324 1.99337,1.28918 3.28321,2.30213 1.28982,1.01296 0.8677,0.80575 -0.93806,-0.46041 -1.80576,-1.2662 -2.86108,-2.09497 -2.34515,-1.84172 m 103.65541,11.05032 c 0.25798,0.25325 1.31329,0.87481 2.34515,1.38131 1.03188,0.50646 2.08717,2.78558 2.34517,5.06472 0.25793,2.27913 -0.16416,4.97266 -0.93808,5.98562 -0.77387,1.01292 -0.98496,1.22012 -0.46901,0.46041 0.51592,-0.75972 0.72699,-2.21008 0.46901,-3.22302 -0.25795,-1.01294 -1.52435,-3.29208 -2.81416,-5.06474 -1.28984,-1.77266 -2.1341,-3.63739 -1.87612,-4.14388 0.25796,-0.50648 0.68009,-0.71365 0.93804,-0.46042 m 72.69952,6.90645 c 1.54779,2.53237 3.44734,6.26186 4.22126,8.28776 0.7739,2.0259 2.25133,5.34097 3.2832,7.36688 l 3.75224,7.36688 c 1.21948,2.39423 3.35356,4.00574 6.09737,4.60431 2.32171,0.50648 5.90977,0.71367 7.97348,0.46043 2.06375,-0.2532 5.01863,0.16115 6.56642,0.92089 l 2.81418,1.38127 -3.28321,1.38129 c -1.80576,0.75972 -5.81596,1.17411 -8.91155,0.92085 -3.09559,-0.25324 -7.52792,-1.49637 -9.84962,-2.76258 -2.32167,-1.26617 -5.06551,-4.16688 -6.09738,-6.44602 -1.03186,-2.27914 -2.50931,-5.80143 -3.28318,-7.82732 -0.77392,-2.02591 -2.67346,-6.58415 -4.22126,-10.12944 -1.54779,-3.54536 -2.60313,-6.65325 -2.34517,-6.90649 0.25798,-0.25323 0.25798,-0.66762 0,-0.92086 -0.25796,-0.25324 -0.25796,-0.8748 0,-1.38131 0.25798,-0.50644 1.73542,1.1511 3.28322,3.68346 m -234.983542,-3.223 c 1.573125,0.30849 1.727907,0.61237 0.469028,0.92085 -1.031852,0.25324 -2.087184,0.0462 -2.345138,-0.46043 -0.257973,-0.50648 0.586275,-0.71366 1.87611,-0.46042 m 213.877242,3.68345 c 2.32169,2.27913 4.43232,5.17984 4.69027,6.44602 0.25799,1.26617 0.89117,2.09495 1.40709,1.8417 0.51594,-0.25322 0.727,-0.25322 0.46902,0 -0.25795,0.25325 -0.25795,0.87485 0,1.3813 0.25798,0.50649 -0.37521,0.50649 -1.40707,0 -1.03187,-0.50645 -3.1425,-2.78558 -4.6903,-5.06471 -1.5478,-2.27914 -2.6031,-4.35109 -2.34515,-4.60431 0.25798,-0.25326 -0.16416,-1.28922 -0.93805,-2.30216 -0.77389,-1.01293 0.49249,0.0228 2.81419,2.30216 m -98.49611,-1.38131 c 1.28983,1.01295 2.55622,2.67051 2.81418,3.68345 0.25796,1.01294 0.68008,3.70646 0.93806,5.98558 0.25796,2.27916 0.25796,4.76546 0,5.52517 -0.25798,0.75974 -0.25798,2.62448 0,4.14387 0.25796,1.51945 0.46903,6.28488 0.46903,10.58994 0,4.30501 -0.6332,9.27765 -1.40709,11.05033 -0.77391,1.77263 -1.19604,2.80861 -0.93808,2.30212 0.25798,-0.50646 0.047,-2.99279 -0.46902,-5.52515 -0.51593,-2.53236 -1.57125,-4.39713 -2.34513,-4.14389 -0.77392,0.25326 -0.77392,0.0462 0,-0.46042 0.77388,-0.50647 1.19602,-1.12806 0.93805,-1.3813 -0.25797,-0.25322 -0.25797,-0.87479 0,-1.38129 0.25797,-0.50647 0.25797,-2.164 0,-3.68344 -0.27203,-1.59951 -1.85079,-3.15025 -3.75223,-3.68343 l -3.2832,-0.92088 1.40708,-3.22298 c 0.77388,-1.77267 2.04027,-6.53814 2.81417,-10.58992 0.7739,-4.05179 1.19602,-7.98846 0.93806,-8.74819 -0.25795,-0.75972 0.5863,-0.55251 1.87612,0.46043 m 127.57589,4.1439 c 0.25797,0.25322 0.89118,0.25322 1.40709,0 0.51595,-0.25324 0.72699,-0.25324 0.46905,0 -0.25799,0.25322 0.16415,1.2892 0.93804,2.30216 0.7739,1.01292 0.35178,0.80574 -0.93804,-0.46044 l -1.87614,-1.84172 m -113.50502,1.38128 c 0.25796,0 1.52432,1.65754 2.81417,3.68344 1.28983,2.0259 3.40047,5.75536 4.6903,8.28775 1.28982,2.53236 3.18939,5.64029 4.22125,6.90645 1.03185,1.26619 2.29823,2.50934 2.81419,2.7626 0.51592,0.25322 0.30487,0.66762 -0.46904,0.92084 -0.77389,0.25325 -0.35176,1.08201 0.93808,1.84175 l 2.34514,1.38127 -7.50448,0.92087 -0.93805,-5.06473 c -0.51594,-2.7856 -1.57125,-5.47913 -2.34515,-5.98561 -0.77391,-0.50648 -1.19602,-0.50648 -0.93806,0 0.25796,0.50648 0.047,1.54245 -0.46904,2.30215 -0.51592,0.7597 -1.99334,0.55252 -3.2832,-0.46042 -1.28983,-1.01296 -1.92302,-2.25614 -1.40708,-2.76259 0.51594,-0.50647 0.72701,-1.12805 0.46901,-1.38127 -0.25794,-0.25326 -0.25794,-0.66764 0,-0.9209 0.258,-0.25323 0.258,-0.87479 0,-1.38128 -0.25794,-0.50647 -0.68008,-3.19999 -0.93804,-5.98558 -0.25796,-2.78562 -0.25796,-5.06474 0,-5.06474 m 52.53126,9.20862 c -0.7739,-0.50647 -1.61816,-0.0923 -1.8761,0.92085 -0.258,1.01293 -0.258,2.0489 0,2.30213 0.25794,0.25326 -0.37526,1.08203 -1.40711,1.84174 -1.38269,1.01848 -1.13598,1.13911 0.93806,0.46043 1.54778,-0.50647 3.02524,-1.74964 3.28321,-2.76258 0.25796,-1.01294 -0.16415,-2.25613 -0.93806,-2.76257 m 17.35407,0.92085 c -0.51594,0 0.11726,0.62156 1.40708,1.3813 1.28984,0.75969 3.40047,1.58847 4.69029,1.84173 1.28984,0.25322 0.65664,-0.36837 -1.40707,-1.38131 -2.06374,-1.01294 -4.17437,-1.84172 -4.6903,-1.84172 m -39.86747,3.22303 c 2.3217,0.25322 4.01018,0.8748 3.75224,1.38127 -0.25798,0.50645 -2.15754,1.12805 -4.22127,1.3813 -2.06373,0.25323 -4.38542,0.0462 -5.15933,-0.46044 -0.77387,-0.50648 -0.77387,-1.33524 0,-1.84174 0.77391,-0.50644 3.30666,-0.71365 5.62836,-0.46039 m 107.40765,-0.46047 c 1.03187,0 2.93143,0.6216 4.22126,1.38131 1.77951,1.04793 1.21479,1.26988 -2.34514,0.92084 -2.57965,-0.25322 -4.47923,-0.87479 -4.22127,-1.38129 0.25797,-0.50644 1.31328,-0.92086 2.34515,-0.92086 m -169.31948,2.7626 c 0.25796,0 -0.16416,0.82877 -0.93806,1.84173 -0.77388,1.01294 -2.25134,2.04892 -3.28322,2.30217 -1.25043,0.30662 -1.25043,0.15374 0,-0.46045 1.03188,-0.50649 1.66507,-1.33524 1.40709,-1.84172 -0.25796,-0.50649 -0.25796,-0.71367 0,-0.46042 0.25798,0.25321 0.89117,0.0462 1.40711,-0.46046 0.51594,-0.50647 1.14909,-0.92085 1.40708,-0.92085 m -70.35434,7.82731 c 0.77389,0.7597 0.98495,4.69639 0.46904,8.74819 -0.51595,4.05179 -1.360214,7.57407 -1.876118,7.82731 -0.515958,0.25323 -0.727021,-3.68344 -0.469063,-8.74817 0.278648,-5.47084 1.040326,-8.64781 1.876141,-7.82733 m 75.98269,-0.92086 c 0.25796,0.25325 0.68008,0.25325 0.93807,0 0.25794,-0.25322 1.94644,0.36834 3.75223,1.3813 1.80575,1.01296 3.49425,2.25611 3.75222,2.76259 0.25798,0.50647 -0.16417,0.71366 -0.93806,0.46042 -0.77391,-0.25324 -1.61814,-0.87482 -1.87612,-1.38129 -0.25798,-0.50648 -0.68008,-0.71367 -0.93804,-0.46044 -0.25799,0.25325 -1.10222,0.25325 -1.87613,0 -0.77389,-0.25323 -1.82922,-1.08202 -2.34515,-1.84172 -0.51591,-0.75969 -0.72699,-1.17408 -0.46902,-0.92086 m 25.32755,2.76258 c 0.25798,0.25325 0.047,1.91079 -0.46901,3.68345 l -0.93806,3.22302 0.46901,-3.68344 c 0.25799,-2.02589 0.68011,-3.47626 0.93806,-3.22303 m 0.93807,15.19421 c 0.25796,0 1.31328,0.6216 2.34517,1.38129 1.03184,0.75971 1.66503,2.00289 1.40708,2.76258 -0.25798,0.75972 -0.25798,2.00289 0,2.76258 0.25795,0.75972 1.31327,3.45325 2.34513,5.98562 l 1.8761,4.60428 -2.34513,-1.38127 c -1.28983,-0.75972 -3.40045,-2.41726 -4.69031,-3.68347 -1.28981,-1.26616 -2.76725,-3.54532 -3.28318,-5.0647 -0.51592,-1.51943 -0.30486,-3.79858 0.46901,-5.06475 0.77392,-1.2662 1.61817,-2.30216 1.87613,-2.30216 m 136.95648,13.81292 c -0.25794,0 -0.89117,0.4144 -1.40708,0.92085 -0.51596,0.5065 -1.14912,0.71367 -1.40707,0.46044 -0.25798,-0.25323 -0.25798,-0.0462 0,0.46045 0.25795,0.50644 0.89111,1.54242 1.40707,2.30214 0.51591,0.7597 1.14914,0.96689 1.40708,0.46044 0.25797,-0.50648 0.68009,-0.71368 0.93805,-0.46044 0.25797,0.25324 0.89116,-0.16117 1.4071,-0.92085 0.51593,-0.75971 0.51593,-1.1741 0,-0.92087 -0.51594,0.25324 -1.14913,0.25324 -1.4071,0 -0.25796,-0.25323 -0.68008,-0.25323 -0.93805,0 -0.25794,0.25324 -0.25794,-0.16115 0,-0.92087 0.25797,-0.75972 0.25797,-1.38129 0,-1.38129 m -37.05331,4.60432 c -0.51592,0 -1.14911,0.62158 -1.40706,1.38129 -0.25796,0.7597 -0.047,2.21005 0.46902,3.22299 0.51595,1.01297 0.51595,3.91367 0,6.44603 l -0.93805,4.6043 1.87609,-3.68343 c 1.03187,-2.02591 1.66508,-5.54819 1.40711,-7.82731 -0.25798,-2.27915 -0.89117,-4.14387 -1.40711,-4.14387 m 12.66381,7.82731 c -0.25798,-0.25322 -0.6801,-0.0462 -0.93806,0.46044 -0.25797,0.50646 -0.68009,1.12802 -0.93805,1.3813 -0.25796,0.25322 -0.047,0.66759 0.46901,0.92083 0.51593,0.25325 0.727,0.66764 0.46904,0.92086 -0.25797,0.25325 0.16415,0.0462 0.93806,-0.46043 0.77388,-0.50647 1.61815,-0.29926 1.8761,0.46043 0.25798,0.75972 0.047,1.1741 -0.46902,0.92088 -0.51592,-0.25325 -1.14913,-0.0462 -1.40708,0.46041 -0.25798,0.50649 -0.047,0.71368 0.46902,0.46043 0.51591,-0.25323 1.14913,-0.0463 1.40708,0.46043 0.25798,0.50647 0.25798,1.12807 0,1.3813 -0.25795,0.25324 -0.047,0.25324 0.46903,0 0.51595,-0.25323 1.14912,-0.25323 1.40709,0 0.25796,0.25324 0.6801,0.25324 0.93805,0 0.25799,-0.25323 1.73542,0.57553 3.28322,1.84174 1.54778,1.26618 4.08055,2.09496 5.62834,1.84171 1.62941,-0.26707 2.02433,-0.65381 0.93806,-0.92086 -1.03188,-0.25323 -3.35357,-1.4964 -5.15931,-2.76259 -1.80576,-1.26618 -4.54959,-3.3381 -6.0974,-4.60431 -1.54778,-1.26617 -3.02523,-2.50935 -3.28318,-2.76257 m 17.35406,1.38129 c -1.54778,-0.50647 -2.39204,-0.29929 -1.87611,0.46045 0.51592,0.75969 1.14913,1.17408 1.40707,0.92083 0.25799,-0.25324 1.31331,0.57556 2.34517,1.84174 1.50089,1.84171 1.78229,1.84171 1.40707,0 -0.25796,-1.26618 -1.73539,-2.71655 -3.2832,-3.22302 m -124.29269,2.76258 c 0.25796,0 0.25796,0.20719 0,0.46044 -0.25796,0.25322 -0.25796,1.2892 0,2.30215 0.25796,1.01295 0.89117,2.46329 1.40708,3.22301 0.51594,0.7597 0.727,1.5885 0.46904,1.84172 -0.25795,0.25323 -0.25795,0.66762 0,0.92088 0.25796,0.25323 0.047,1.28918 -0.46904,2.30213 -0.51591,1.01295 -1.99336,2.04891 -3.28318,2.30216 -1.28984,0.25323 -3.82259,0.0462 -5.62838,-0.46043 -1.80574,-0.50648 -5.60487,-1.12806 -8.4425,-1.38128 -2.83764,-0.25325 -6.21463,0.16114 -7.50447,0.92083 -1.28982,0.75972 -3.18942,1.17411 -4.22127,0.92088 -1.03186,-0.25325 -2.29823,-1.08201 -2.81419,-1.84171 -0.5159,-0.75973 -0.72698,-2.41728 -0.46899,-3.68346 0.27859,-1.36658 0.84986,-1.74135 1.40707,-0.92086 0.51593,0.75972 1.36018,0.55251 1.87611,-0.46044 0.51595,-1.01292 1.99338,-2.67048 3.28321,-3.68343 1.28984,-1.01295 2.76727,-1.63454 3.2832,-1.38131 0.51592,0.25325 1.57125,0.87484 2.34514,1.38131 0.77389,0.50646 2.88455,1.54246 4.69031,2.30216 1.9596,0.82414 4.03928,0.63908 5.1593,-0.46044 1.03187,-1.01297 2.72037,-2.04893 3.75224,-2.30216 1.03186,-0.25323 2.5093,-0.87481 3.28322,-1.3813 0.77387,-0.50646 1.61814,-0.92085 1.8761,-0.92085 m -5.62835,5.52517 c -0.25796,0 -0.25796,0.41439 0,0.92085 0.25796,0.50649 1.10222,1.33525 1.87611,1.84173 0.77391,0.50648 0.77391,0.0923 0,-0.92087 -0.77389,-1.01295 -1.61815,-1.84171 -1.87611,-1.84171 m -65.66408,17.49634 c 0.25798,0 0.46904,2.69355 0.46904,5.98562 0,3.29205 -0.42213,6.60719 -0.93805,7.36689 -0.54314,0.80023 -1.33298,0.025 -1.8761,-1.84174 -0.51595,-1.77263 -0.72701,-3.84459 -0.46905,-4.6043 l 1.40708,-4.14388 c 0.51595,-1.51942 1.14913,-2.76259 1.40708,-2.76259 m -22.51339,12.89206 c -0.25795,0 -1.10221,0.4144 -1.8761,0.92089 -0.77391,0.50647 -1.61815,1.33524 -1.87613,1.8417 -0.25797,0.50646 0.5863,0.0922 1.87613,-0.92086 1.28983,-1.01293 2.13407,-1.84173 1.8761,-1.84173 m 144.92999,7.36691 c -0.51594,-1.51943 -0.72702,-0.69064 -0.46904,1.8417 0.25797,2.53238 0.68009,3.77553 0.93806,2.7626 0.25798,-1.01293 0.047,-3.08489 -0.46902,-4.6043 m -10.78768,24.86325 c -1.6294,-0.64001 -4.20625,0.76524 -8.4425,4.60429 8.4425,-4.60429 8.4425,-4.60429 15.47793,-0.46042 -0.51594,-0.25322 -1.7823,-1.08204 -2.81416,-1.84173 -1.03187,-0.7597 -2.93144,-1.79568 -4.22127,-2.30214"
     fill-rule="evenodd"
     id="path4"
     style="stroke-width:0.92942" />
  <metadata
     id="metadata6">
    <rdf:RDF>
      <cc:Work
         rdf:about="">
        <dc:title>undefined</dc:title>
      </cc:Work>
    </rdf:RDF>
  </metadata>
</svg>
