<?xml version="1.0" encoding="UTF-8"?>
<svg width="414.66pt" height="535.15pt" version="1.1" viewBox="0 0 414.66 535.15" xmlns="http://www.w3.org/2000/svg">
 <path d="m408.48 10.005c-3.3594-6.1602-21.84-20.16-36.961 2.2383-15.121 22.398-28.559 61.039-28.559 61.039l-7.8398-0.55859c-7.8398-0.55859-16.801 2.8008-16.801 2.8008-4.4805-1.6797-10.078 1.6797-13.441 1.1211-3.3594-0.55859-8.9609-3.3594-13.441-6.1602-4.4805-2.2383-14-17.922-22.398-40.879-8.3984-23.52-26.32-22.398-32.48-22.398-6.1602 0.55859-21.84 10.641-25.199 42.559-3.3594 31.922 3.3594 63.84 10.078 70 7.2812 5.6016 1.1211 11.762 1.6797 15.68 0.55859 3.9219 3.3594 12.32 1.6797 14-1.6797 2.2383-8.9609 6.1602-18.48 6.1602-8.9609 0-24.641-12.32-45.359-19.602s-68.32-7.2812-98 23.52c-29.121 30.801-36.398 56.559-39.762 70-3.3594 14 1.6797 25.199-7.8398 46.48-8.9609 21.281-7.2812 39.762-5.6016 48.16 1.6797 8.3984-2.8008 19.039-4.4805 22.398-1.6797 3.9219 1.1211 15.68 1.6797 20.719 0.55859 5.0391-1.6797 28-5.6016 49.84s1.6797 30.801 4.4805 32.48c2.8008 1.6797 12.32-0.55859 12.32-0.55859l2.2383 1.1211c2.2383 1.1211 7.2812 1.6797 15.121 0.55859 8.3984-1.6797 5.0391-7.2812 5.0391-7.2812s4.4805-0.55859 4.4805-5.0391c0.55859-4.4805-5.0391-10.641-9.5195-15.68-4.4805-5.0391-3.3594-20.719-2.8008-33.602 0.55859-12.879 6.1602-21.281 7.2812-26.32 0.55859-5.0391 20.16-40.879 20.16-40.879l6.1602-6.1602c6.1602-6.1602 14.559-27.441 14.559-27.441s5.6016 0.55859 11.199 0.55859c5.6016-0.55859 8.9609 3.3594 14 12.32 4.4805 8.9609 15.68 25.762 15.68 28s-2.2383 26.32-3.3594 36.961c-1.1211 11.199-7.2812 22.398-7.2812 28.559 0 6.1602 3.3594 16.801 6.1602 19.602 3.3594 2.8008 8.3984 1.6797 8.3984 1.6797l7.2812 2.2383c7.2812 2.2383 11.199-0.55859 15.68-2.2383 4.4805-2.2383 2.2383-6.1602 2.8008-8.9609 0.55859-2.8008-2.8008-9.5195-3.9219-11.199-1.1211-1.6797-5.6016-12.32-4.4805-34.16s9.5195-24.641 9.5195-24.641 3.3594 1.1211 5.0391 2.2383c1.6797 1.1211 13.441 6.1602 14 10.078 0.55859 3.3594 5.6016 58.801 6.1602 64.961 0.55859 6.1602 2.8008 21.84 7.2812 28 4.4805 6.1602 4.4805 21.84 7.8398 33.602 3.3594 11.762 0.55859 35.281 0 42.559-0.55859 7.2812 2.8008 11.199 7.8398 12.879 5.0391 1.6797 13.441-1.6797 13.441-1.6797s3.3594 2.2383 10.078 4.4805c6.7188 2.2383 16.801 0 16.801 0l5.6016-1.1211c5.6016-1.1211 4.4805-9.5195 4.4805-9.5195s2.8008 1.1211 4.4805 0 1.1211-4.4805 0.55859-8.9609c-0.55859-4.4805-15.121-16.238-16.801-17.922-2.2383-1.6797-3.3594-14-6.1602-19.039-2.2383-4.4805-3.9219-20.719-4.4805-24.641-0.55859-3.9219-1.1211-19.039-2.2383-26.32-1.1211-7.2812 3.9219-29.121 5.0391-36.961 0.55859-3.9219 3.3594-6.7188 7.8398-8.3984 0.55859-2.2383 1.6797-7.2812 7.2812-8.9609 7.2812-2.2383 22.961-8.9609 24.641-13.441 2.2383-4.4805 4.4805-6.1602 4.4805-7.8398 0-1.1211 4.4805-14.559-4.4805-16.801-8.3984-2.8008-10.641-10.641-9.5195-17.922 1.1211-6.7188 5.0391-14.559 6.7188-19.039 1.6797-5.0391-0.55859-3.3594 3.9219-7.2812 4.4805-3.3594 5.0391-3.9219 7.8398-7.2812 2.2383-2.8008 1.6797-3.9219 3.9219-5.0391 2.2383-1.6797 6.1602-1.6797 7.8398-3.3594 1.6797-1.6797 1.6797-4.4805 1.6797-6.1602s-0.55859-2.8008-0.55859-4.4805-10.078-2.8008-10.641-5.6016c-0.55859-2.8008 29.68-1.1211 29.68 0 0.55859 1.1211-9.5195 2.2383 1.6797 2.2383 1.6797 0 11.762-1.6797 14 0 2.2383 1.6797-6.1602 6.1602-5.0391 7.8398 1.1211 1.6797 1.1211 6.7188 0 8.3984-1.1211 1.6797-3.3594 5.0391-3.9219 7.8398-0.55859 2.8008-2.2383 2.2383-0.55859 4.4805 1.6797 2.2383 0.55859 2.8008 2.8008 4.4805 2.2383 1.6797 0.55859-0.55859 6.7188 5.0391 6.1602 5.6016 8.3984 11.199 7.2812 17.922-1.1211 6.7188-1.1211 11.762-10.641 19.039-9.5195 7.8398-20.16 13.441-26.32 19.602s-11.762 2.8008-18.48 7.8398c-6.7188 5.0391-10.641 12.32-18.48 14 12.32-1.1211 24.078-7.8398 31.359-12.32 8.3984-5.0391 11.199-4.4805 10.641-1.6797-1.1211 2.2383 0.55859 4.4805 0 14s-0.55859 37.52 3.3594 50.961c3.9219 13.441 5.6016 27.441 2.8008 34.16-2.8008 6.7188 3.3594 12.32 6.7188 16.238 3.3594 4.4805 5.6016 11.199 6.1602 14 0.55859 2.8008 4.4805 3.9219 11.762 7.8398 7.2812 3.9219 15.121-1.6797 15.121-1.6797s2.8008-0.55859 11.762 1.6797c8.9609 2.2383 12.32-3.3594 12.32-3.3594s5.6016-0.55859 3.9219-10.078c-1.6797-9.5195-16.801-14-23.52-19.602-6.7188-6.1602-13.441-28.559-10.078-46.48 3.3594-17.922 19.602-45.922 16.801-66.078-2.8008-20.719 6.1602-32.48 13.441-45.922s-0.55859-35.281-5.0391-50.398c-4.4805-15.121-1.6797-15.121-1.6797-15.121l5.6016-1.1211c5.6016-1.1211 9.5195-4.4805 12.32-7.2812 2.2383-2.2383 4.4805-11.762 11.199-23.52 6.7188-12.32 14-35.281 10.641-48.16-3.3594-12.879-2.2383-22.398-1.6797-26.32 0.55859-3.3594-1.6797-19.602-1.6797-19.602s3.3594-3.3594 5.6016-10.078c2.2383-6.1602 2.2383-15.121 0.55859-20.719-1.6797-5.6016-0.55859-19.602 2.8008-35.281 5.5938-17.34-0.56641-34.699-3.9258-40.859z"/>
</svg>
