<?xml version="1.0" encoding="UTF-8" standalone="no"?>
<svg
   width="426.41"
   height="556"
   version="1.1"
   viewbox="0 0 497 600"
   id="svg8"
   sodipodi:docname="uEA01-yuneta.svg"
   inkscape:version="1.1.2 (0a00cf5339, 2022-02-04)"
   xmlns:inkscape="http://www.inkscape.org/namespaces/inkscape"
   xmlns:sodipodi="http://sodipodi.sourceforge.net/DTD/sodipodi-0.dtd"
   xmlns="http://www.w3.org/2000/svg"
   xmlns:svg="http://www.w3.org/2000/svg"
   xmlns:rdf="http://www.w3.org/1999/02/22-rdf-syntax-ns#"
   xmlns:cc="http://creativecommons.org/ns#"
   xmlns:dc="http://purl.org/dc/elements/1.1/">
  <defs
     id="defs12" />
  <sodipodi:namedview
     id="namedview10"
     pagecolor="#ffffff"
     bordercolor="#666666"
     borderopacity="1.0"
     inkscape:pageshadow="2"
     inkscape:pageopacity="0.0"
     inkscape:pagecheckerboard="0"
     showgrid="false"
     inkscape:zoom="1.1582734"
     inkscape:cx="212.81677"
     inkscape:cy="278"
     inkscape:window-width="1920"
     inkscape:window-height="991"
     inkscape:window-x="0"
     inkscape:window-y="0"
     inkscape:window-maximized="1"
     inkscape:current-layer="svg8" />
  <title
     id="title2">undefined</title>
  <path
     d="m 44.241373,12.402968 c -1.058833,0 -5.390424,1.727092 -9.625756,3.837983 -4.235333,2.11089 -8.566923,5.349188 -9.625756,7.196217 l -5.775454,10.074705 c -2.117666,3.694059 -4.500041,9.307108 -5.294166,12.473444 -0.794124,3.166336 -1.660442,8.131726 -1.925151,11.034201 -0.264708,2.902474 -0.697867,7.220205 -0.962575,9.594957 -0.264709,2.374752 -0.481288,6.476596 -0.481288,9.115209 0,2.638613 -0.21658,6.740457 -0.481288,9.115209 -0.2647082,2.374752 -0.6978672,9.067234 -0.9625755,14.872183 -0.2647083,5.804954 -0.2647083,12.497434 0,14.872184 l 1.4438635,12.95319 c 0.529416,4.74951 0.962575,11.65788 0.962575,15.35193 0,3.69406 0.433159,8.87534 0.962576,11.51395 0.529417,2.63862 0.745996,9.11521 0.481288,14.39244 -0.264708,5.27722 -0.697867,11.53793 -0.962576,13.91269 -0.264708,2.37475 -0.264708,5.18127 0,6.23672 0.264709,1.05544 0.264709,2.35076 0,2.87848 -0.264708,0.52773 0.81819,2.03893 2.406439,3.35824 2.098415,1.7434 2.361198,2.66068 0.962576,3.35823 -1.058833,0.52773 -2.141731,0.74361 -2.406439,0.47975 -0.264708,-0.26386 -0.481288,1.67912 -0.481288,4.31773 0,2.63862 0.21658,6.74046 0.481288,9.11521 0.264708,2.37475 1.131026,8.20369 1.925151,12.95319 0.794125,4.74951 2.310182,10.79433 3.369015,13.43294 1.058833,2.63862 3.441207,8.25167 5.294165,12.47345 1.852958,4.22178 5.101651,10.69837 7.219317,14.39243 l 5.775454,10.07471 c 1.058833,1.84703 3.008049,4.43767 4.33159,5.75697 l 5.775454,5.75698 c 1.852958,1.84703 4.018753,5.73298 4.812878,8.63546 0.794125,2.90247 1.227284,6.78843 0.962575,8.63546 -0.264708,1.84703 -0.264708,5.30121 0,7.67596 0.264709,2.37476 1.131027,8.85135 1.925152,14.39244 0.794124,5.54109 0.794124,13.96066 0,18.71017 -0.794125,4.7495 -1.660443,12.7373 -1.925152,17.75067 -0.264708,5.01336 -0.481287,13.64882 -0.481287,19.18991 0,5.54109 1.082897,13.52889 2.406439,17.75067 1.323541,4.22178 4.355654,12.42547 6.738029,18.23042 2.382374,5.80495 5.414488,12.71332 6.738029,15.35193 1.323541,2.63861 4.572234,8.03578 7.219317,11.9937 l 8.66318,12.95319 c 2.117667,3.16633 4.9332,8.13172 6.256742,11.0342 1.323541,2.90247 3.272757,6.35666 4.33159,7.67596 1.058833,1.31931 2.57489,5.63704 3.369015,9.59496 0.794125,3.95792 1.877022,6.98033 2.406441,6.71647 0.52941,-0.26386 1.39573,-2.42273 1.92515,-4.79748 0.54578,-2.44671 2.42184,-5.14961 4.33159,-6.23672 l 3.36901,-1.91899 -2.40643,-0.47975 c -1.32355,-0.26386 -2.8396,-0.26386 -3.36902,0 -0.52942,0.26386 -1.17915,-1.46323 -1.44386,-3.83798 -0.26471,-2.37475 -0.69787,-4.74951 -0.96258,-5.27723 -0.26471,-0.52772 0.16845,-2.25481 0.96258,-3.83798 0.79412,-1.58317 2.0936,-3.74203 2.88772,-4.79748 0.79413,-1.05544 -0.28877,-0.62367 -2.40643,0.9595 -2.11767,1.58316 -4.283467,3.09437 -4.812883,3.35823 -0.529417,0.26386 -0.745997,0.048 -0.481288,-0.47975 0.264708,-0.52772 0.914447,-2.03893 1.443863,-3.35823 0.529417,-1.31931 1.395738,-4.55761 1.925148,-7.19622 l 1.44387,-7.19622 c 0.26471,-1.3193 0.26471,-3.26228 0,-4.31773 -0.26471,-1.05544 -0.26471,-2.13488 0,-2.39874 0.26471,-0.26386 0.26471,-0.69563 0,-0.95949 -0.26471,-0.26386 0.38503,-2.63862 1.44386,-5.27723 1.05883,-2.63861 3.22463,-6.52457 4.81288,-8.63546 1.58825,-2.11089 3.32088,-4.48564 3.8503,-5.27723 0.52942,-0.79158 0.0963,-1.65513 -0.96258,-1.91899 -1.31006,-0.32623 -1.003,-1.09286 0.96258,-2.39874 1.58825,-1.05544 3.1043,-2.35076 3.36901,-2.87848 0.26471,-0.52773 -0.81819,-1.82305 -2.40644,-2.87849 l -2.88772,-1.91899 1.92515,-3.35824 c 1.05883,-1.84703 3.44121,-3.79001 5.29416,-4.31773 1.85296,-0.52772 4.23534,-1.17538 5.29417,-1.43924 1.31777,-0.32815 1.01455,-1.23583 -0.96258,-2.87849 l -2.88772,-2.39874 3.36901,-0.47975 c 1.85296,-0.26386 4.01876,-0.26386 4.81288,0 0.79413,0.26387 0.36097,-0.81557 -0.96258,-2.39874 -1.32354,-1.58316 -3.27275,-3.52614 -4.33159,-4.31773 -1.45252,-1.08614 -1.33509,-1.55726 0.48129,-1.91899 1.32354,-0.26386 4.78882,0.59969 7.70061,1.91899 2.91179,1.31931 7.45996,3.69406 10.10704,5.27723 2.64708,1.58317 5.24604,3.31026 5.77545,3.83798 0.52942,0.52773 0.52942,1.82305 0,2.87849 -0.52941,1.05545 -1.82889,2.78254 -2.88772,3.83798 -1.05884,1.05545 -1.49199,2.35077 -0.96258,2.87849 0.52942,0.52772 0.746,1.17538 0.48129,1.43924 -0.26471,0.26387 0.38503,1.55918 1.44386,2.87849 1.05884,1.31931 2.35831,3.90995 2.88773,5.75697 0.52942,1.84703 0.52942,3.14235 0,2.87849 -0.52942,-0.26386 -2.04547,0.3838 -3.36901,1.43925 -1.32355,1.05544 -2.8396,2.56665 -3.36902,3.35823 -0.52942,0.79158 -0.52942,1.87102 0,2.39874 0.52942,0.52772 1.17916,0.52772 1.44386,0 0.26471,-0.52772 0.91445,-0.74361 1.44387,-0.47975 0.52941,0.26386 1.17915,0.26386 1.44386,0 0.26471,-0.26386 0.69787,0.16791 0.96258,0.9595 0.26471,0.79158 -0.38503,2.73456 -1.44387,4.31773 -1.16471,1.74148 -1.35434,5.15249 -0.48128,8.63546 0.79412,3.16634 2.0936,6.40463 2.88772,7.19622 0.95295,0.9499 0.2984,2.41793 -1.92515,4.31773 -1.85296,1.58317 -3.58559,3.95792 -3.8503,5.27722 -0.28589,1.4239 0.49669,2.59352 1.92515,2.87849 l 2.40644,0.47975 -4.33159,4.31773 c -2.38238,2.37475 -4.11501,5.18128 -3.8503,6.23672 0.2647,1.05545 1.13102,1.48722 1.92515,0.9595 0.79412,-0.52773 2.95992,-1.39127 4.81288,-1.91899 l 3.36901,-0.9595 -1.44386,3.35824 c -0.79413,1.84702 -1.87703,5.08532 -2.40644,7.19621 -0.52942,2.11089 -2.47863,7.50806 -4.33159,11.9937 -1.85296,4.48564 -3.5856,9.45103 -3.8503,11.0342 -0.26471,1.58317 -0.0481,5.03735 0.48128,7.67597 0.52942,2.63861 0.746,5.01336 0.48129,5.27722 -0.26471,0.26386 -0.26471,0.69564 0,0.9595 0.26471,0.26386 0.26471,1.99095 0,3.83798 -0.26471,1.84703 -0.0481,3.79001 0.48129,4.31773 0.52942,0.52772 1.17915,0.52772 1.44386,0 0.26471,-0.52772 1.99735,-1.82304 3.8503,-2.87849 2.41799,-1.37687 3.77619,-3.95024 4.81288,-9.11521 l 1.44387,-7.19621 0.96257,3.35823 c 0.52942,1.84703 1.61232,4.43767 2.40644,5.75698 1.15509,1.91899 1.63638,1.91899 2.40644,0 0.52942,-1.31931 1.39573,-3.69406 1.92515,-5.27723 0.52942,-1.58317 2.04547,-3.52615 3.36902,-4.31773 1.32354,-0.79159 2.83959,-1.65513 3.36901,-1.91899 0.52942,-0.26386 1.17916,-0.26386 1.44386,0 0.26471,0.26386 1.13103,0.048 1.92515,-0.47975 0.79413,-0.52772 1.87703,0.11994 2.40644,1.43924 0.52942,1.31931 0.746,2.61463 0.48129,2.87849 -0.26471,0.26386 -0.26471,0.69563 0,0.9595 0.26471,0.26386 0.0481,1.99095 -0.48129,3.83798 l -0.96257,3.35823 2.40644,-1.91899 c 1.32354,-1.05544 3.27275,-2.99842 4.33159,-4.31773 l 1.92515,-2.39874 v 9.59496 l 1.44386,-2.39874 c 0.79413,-1.31931 2.0936,-3.26229 2.88773,-4.31773 0.79412,-1.05545 2.0936,-1.48722 2.88773,-0.9595 0.79412,0.52773 2.52676,0.0959 3.8503,-0.95949 1.32354,-1.05545 3.27275,-1.48722 4.33159,-0.9595 1.32161,0.65822 2.37756,-0.24467 3.36901,-2.87848 0.79413,-2.1109 1.87703,-5.13331 2.40644,-6.71647 l 0.96258,-2.87849 2.40644,7.19622 c 1.32354,3.95792 2.83959,6.98033 3.36901,6.71647 l 1.92515,-0.9595 c 0.52942,-0.26386 1.17916,-0.26386 1.44387,0 0.2647,0.26386 0.91444,0.26386 1.44386,0 0.52942,-0.26386 1.17915,-0.26386 1.44386,0 0.26471,0.26386 0.0481,-0.81557 -0.48129,-2.39874 -0.52941,-1.58317 -1.61231,-3.31026 -2.40643,-3.83798 -0.79413,-0.52772 -0.79413,-1.82304 0,-2.87849 0.79412,-1.05544 2.74334,-2.35076 4.33159,-2.87849 l 2.88772,-0.95949 1.92515,4.31773 c 1.05884,2.37475 3.22463,7.34014 4.81288,11.0342 l 2.88773,6.71647 1.44386,-2.39874 c 0.79413,-1.31931 2.0936,-2.83051 2.88773,-3.35823 0.79412,-0.52773 1.0107,-1.82305 0.48129,-2.87849 -0.52942,-1.05545 -0.52942,-1.70311 0,-1.43925 0.52941,0.26387 1.39573,0.26387 1.92515,0 0.52941,-0.26386 1.39573,-0.048 1.92515,0.47975 0.52942,0.52772 0.746,0.52772 0.48129,0 -0.26471,-0.52772 0.81819,-0.096 2.40644,0.9595 1.58825,1.05544 3.1043,1.7031 3.36901,1.43924 0.26471,-0.26386 1.13103,-0.26386 1.92515,0 0.79413,0.26386 1.22729,-0.81557 0.96258,-2.39874 -0.26471,-1.58317 -0.0481,-3.09437 0.48129,-3.35823 0.52941,-0.26386 1.39573,1.03146 1.92515,2.87848 0.52941,1.84703 2.69521,5.08533 4.81287,7.19622 2.11767,2.11089 4.28347,4.05387 4.81288,4.31773 0.52942,0.26386 2.26205,1.77507 3.8503,3.35824 1.58825,1.58317 3.53747,3.31026 4.33159,3.83798 0.79413,0.52772 0.79413,-1.41526 0,-4.31773 -0.79412,-2.90247 -2.74334,-7.86786 -4.33159,-11.0342 -1.58825,-3.16634 -3.32088,-7.48407 -3.8503,-9.59496 -0.52941,-2.11089 -1.82889,-5.34919 -2.88772,-7.19622 -1.05884,-1.84702 -4.52411,-7.0283 -7.70061,-11.51394 -3.1765,-4.48565 -6.64177,-9.45104 -7.7006,-11.0342 -1.05884,-1.58317 -1.70858,-3.31026 -1.44387,-3.83799 0.26471,-0.52772 3.29682,2.06292 6.73803,5.75698 3.44121,3.69406 6.6899,7.14824 7.21932,7.67596 0.52942,0.52773 0.74599,1.17539 0.48129,1.43925 -0.26471,0.26386 -0.0481,0.69563 0.48128,0.95949 0.52942,0.26386 2.04548,1.77507 3.36902,3.35824 1.32354,1.58316 2.8396,3.09437 3.36901,3.35823 0.52942,0.26386 0.52942,-1.24734 0,-3.35823 -0.52941,-2.11089 -1.39573,-5.34919 -1.92515,-7.19622 -0.52941,-1.84703 -1.82889,-4.43767 -2.88772,-5.75697 -1.05884,-1.31931 -2.14174,-3.0464 -2.40644,-3.83799 -0.26471,-0.79158 -0.26471,-1.65513 0,-1.91899 0.2647,-0.26386 0.0481,-0.69563 -0.48129,-0.95949 -0.52942,-0.26387 -0.52942,-0.69564 0,-0.9595 0.52942,-0.26386 1.39573,-0.26386 1.92515,0 0.52942,0.26386 1.39573,0.26386 1.92515,0 0.52942,-0.26386 1.61232,-0.048 2.40644,0.47975 0.79412,0.52772 2.0936,1.17538 2.88773,1.43924 0.79412,0.26386 -0.50536,-2.75855 -2.88773,-6.71647 -2.38237,-3.95792 -4.54817,-8.05976 -4.81288,-9.11521 -0.26471,-1.05544 -0.26471,-2.13488 0,-2.39874 0.26471,-0.26386 -0.60161,-2.63861 -1.92515,-5.27722 l -2.40644,-4.79748 3.8503,1.43924 c 2.11767,0.79159 4.9332,1.22336 6.25675,0.9595 1.92515,-0.3838 1.92515,-1.05545 0,-3.35824 -1.32355,-1.58317 -2.62302,-3.31026 -2.88773,-3.83798 -0.26471,-0.52772 -0.0481,-2.68659 0.48129,-4.79748 0.52941,-2.11089 0.0962,-5.56507 -0.96258,-7.67596 -1.05883,-2.11089 -1.70857,-4.05387 -1.44386,-4.31774 0.26471,-0.26386 0.69786,-0.26386 0.96257,0 0.26471,0.26387 1.78077,0.26387 3.36902,0 1.58825,-0.26386 3.1043,-0.26386 3.36901,0 0.26471,0.26387 0.26471,0.048 0,-0.47974 -0.26471,-0.52773 -1.56418,-1.39127 -2.88772,-1.91899 -1.32355,-0.52773 -2.18986,-1.17539 -1.92516,-1.43925 0.26471,-0.26386 0.26471,-0.69563 0,-0.95949 -0.2647,-0.26386 -0.2647,-2.42273 0,-4.79748 0.26471,-2.37475 0.26471,-4.74951 0,-5.27723 l -0.96257,-1.91899 c -0.26471,-0.52772 0.16845,-0.74361 0.96257,-0.47975 0.79413,0.26386 1.87703,0.048 2.40644,-0.47975 0.52942,-0.52772 1.17916,-0.7436 1.44387,-0.47974 0.26471,0.26386 0.69786,0.048 0.96257,-0.47975 0.26471,-0.52772 2.64709,-1.39127 5.29417,-1.91899 2.64708,-0.52773 6.76209,-1.17538 9.14447,-1.43925 2.38237,-0.26386 4.98133,-0.91152 5.77545,-1.43924 0.79413,-0.52772 2.74334,-0.74361 4.33159,-0.47975 1.58825,0.26386 3.10431,0.91152 3.36901,1.43925 0.26471,0.52772 0.0481,1.39126 -0.48128,1.91899 -0.52942,0.52772 -0.31284,1.82304 0.48128,2.87848 0.79413,1.05545 2.52677,2.56666 3.85031,3.35824 1.32354,0.79158 3.05617,2.30279 3.8503,3.35823 0.79412,1.05545 1.22728,2.13488 0.96258,2.39874 -0.26471,0.26387 0.38503,2.42273 1.44386,4.79748 1.05883,2.37475 2.79147,8.63546 3.8503,13.91269 1.05883,5.27723 3.22463,11.96971 4.81288,14.87218 2.11863,3.87157 3.01575,4.63821 3.36901,2.87849 0.26471,-1.31931 0.26471,-2.61463 0,-2.87849 -0.2647,-0.26386 -0.2647,-0.69563 0,-0.95949 0.26471,-0.26386 0.0481,-1.3433 -0.48128,-2.39874 -0.52942,-1.05545 -0.746,-2.13488 -0.48129,-2.39874 0.26471,-0.26386 0.26471,-2.42273 0,-4.79748 -0.26471,-2.37475 -0.69787,-5.82894 -0.96258,-7.67597 -0.26471,-1.84702 -0.0481,-3.57412 0.48129,-3.83798 0.52942,-0.26386 1.17916,-1.34329 1.44386,-2.39874 0.26471,-1.05544 -0.16845,-4.50963 -0.96257,-7.67596 -0.79413,-3.16634 -2.0936,-7.48407 -2.88773,-9.59496 -0.79412,-2.11089 -2.74334,-5.1333 -4.33159,-6.71647 -1.58825,-1.58317 -2.23799,-2.6626 -1.44386,-2.39874 0.79412,0.26386 1.66044,0.26386 1.92515,0 0.26471,-0.26386 1.78076,1.03146 3.36901,2.87849 1.63638,1.90364 3.9302,8.76307 5.29417,15.83168 1.32354,6.86039 2.62302,16.3594 2.88773,21.1089 0.2647,4.74951 1.13102,10.79433 1.92515,13.43294 0.79412,2.63862 1.66044,5.44514 1.92515,6.23672 0.26471,0.79159 0.26471,1.65513 0,1.919 -0.26471,0.26386 0.16845,2.63861 0.96257,5.27722 0.79413,2.63862 1.66045,5.22925 1.92516,5.75698 0.2647,0.52772 0.2647,1.17538 0,1.43924 -0.26471,0.26386 -0.0481,0.69563 0.48128,0.9595 0.52942,0.26386 1.17916,0.048 1.44387,-0.47975 0.26471,-0.52773 0.0481,-0.74361 -0.48129,-0.47975 -0.52942,0.26386 -0.52942,0.048 0,-0.47975 0.52942,-0.52772 2.04547,-0.0959 3.36901,0.9595 1.32354,1.05544 2.8396,1.48722 3.36902,0.95949 0.52941,-0.52772 0.0963,-2.25481 -0.96258,-3.83798 -1.05883,-1.58317 -1.70857,-3.52615 -1.44386,-4.31773 0.26471,-0.79158 1.13103,0.072 1.92515,1.91899 0.79413,1.84703 1.22728,3.57412 0.96258,3.83798 -0.26471,0.26387 0.16845,0.26387 0.96257,0 0.79413,-0.26386 1.87702,0.16792 2.40644,0.9595 0.52942,0.79158 1.17916,1.22336 1.44386,0.9595 0.26471,-0.26387 -0.38503,-1.55919 -1.44386,-2.87849 -1.05883,-1.31931 -1.70857,-2.61463 -1.44386,-2.87849 0.26471,-0.26386 -0.38503,-1.99095 -1.44387,-3.83798 -1.05883,-1.84703 -1.70857,-3.57412 -1.44386,-3.83798 0.26471,-0.26387 0.0481,-1.3433 -0.48129,-2.39874 -0.52941,-1.05545 -0.74599,-2.13488 -0.48129,-2.39874 0.26471,-0.26386 -0.81818,-2.63862 -2.40643,-5.27723 -2.04837,-3.40333 -2.32847,-5.07669 -0.96258,-5.75697 1.05883,-0.52773 1.70857,-0.52773 1.44386,0 -0.2647,0.52772 0.38503,1.39127 1.44387,1.91899 1.28311,0.63998 1.28311,-0.16024 0,-2.39874 -1.05884,-1.84703 -1.70857,-3.79001 -1.44387,-4.31773 0.26471,-0.52772 3.08025,0.11994 6.25674,1.43924 3.1765,1.31931 6.85836,3.26229 8.1819,4.31773 1.36397,1.08711 1.78076,2.33446 0.96257,2.87849 -0.79412,0.52772 2.45457,0.74361 7.21932,0.47975 4.76475,-0.26386 9.09634,-0.048 9.62576,0.47975 0.52941,0.52772 1.17915,0.31183 1.44386,-0.47975 0.26471,-0.79159 0.0481,-2.73457 -0.48129,-4.31773 -0.52941,-1.58317 -2.47863,-3.31026 -4.33159,-3.83799 -1.85296,-0.52772 -6.83429,-0.95949 -11.06962,-0.95949 -4.47597,0 -8.9096,-1.00459 -10.58833,-2.39874 l -2.88773,-2.39874 4.81288,0.9595 c 2.64708,0.52772 8.71131,0.7436 13.47606,0.47974 4.76475,-0.26386 9.96266,0.16792 11.55091,0.9595 1.8337,0.91344 3.06388,0.73881 3.36901,-0.47975 0.26471,-1.05544 0.69787,-2.13488 0.96258,-2.39874 0.26471,-0.26386 -0.38503,-0.91152 -1.44387,-1.43924 -1.39862,-0.69756 -1.13583,-1.61483 0.96258,-3.35824 1.58825,-1.3193 3.32089,-4.12583 3.8503,-6.23672 l 0.96258,-3.83798 -7.21932,-2.87849 c -3.97062,-1.58317 -9.38511,-3.09437 -12.03219,-3.35823 -2.64709,-0.26386 -6.54552,-0.048 -8.66318,0.47974 -2.11767,0.52773 -4.71663,0.52773 -5.77546,0 -1.05883,-0.52772 -1.70857,-1.17538 -1.44386,-1.43924 0.26471,-0.26386 0.26471,-0.69563 0,-0.95949 -0.26471,-0.26387 0.60161,-0.048 1.92515,0.47974 1.32354,0.52773 4.35565,-0.11993 6.73803,-1.43924 2.38237,-1.31931 5.84765,-3.0464 7.7006,-3.83798 1.85296,-0.79159 3.15244,-1.87102 2.88773,-2.39874 -0.26471,-0.52773 -2.64708,-1.39127 -5.29417,-1.91899 -2.64708,-0.52773 -5.67919,-1.82305 -6.73802,-2.87849 -1.05884,-1.05545 -1.70858,-2.13488 -1.44387,-2.39874 0.26471,-0.26386 0.0481,-0.91152 -0.48129,-1.43924 -0.52941,-0.52773 0.33691,-0.096 1.92516,0.95949 1.58825,1.05545 6.35299,2.56665 10.58833,3.35824 4.23533,0.79158 7.48402,1.87101 7.21931,2.39874 -0.2647,0.52772 0.16845,0.74361 0.96258,0.47974 0.79412,-0.26386 3.60966,0.3838 6.25674,1.43925 l 4.81288,1.91899 -2.88773,0.47975 c -1.58825,0.26386 -3.1043,0.26386 -3.36901,0 -0.26471,-0.26386 -3.08024,0.59968 -6.25674,1.91899 -3.1765,1.3193 -5.99204,2.61462 -6.25675,2.87849 -0.2647,0.26386 2.98399,1.34329 7.21932,2.39873 4.23533,1.05545 8.35035,2.56666 9.14447,3.35824 0.98471,0.98156 1.59691,-0.0873 1.92515,-3.35824 0.26471,-2.63861 1.13103,-6.52457 1.92515,-8.63546 0.79413,-2.11089 1.22729,-5.34919 0.96258,-7.19621 -0.26471,-1.84703 -1.34761,-3.57413 -2.40644,-3.83799 -1.11466,-0.27825 -1.72301,0.32815 -1.44386,1.43925 0.2647,1.05544 0.0481,1.7031 -0.48129,1.43924 -0.52942,-0.26386 -1.39574,-0.048 -1.92515,0.47975 -0.52942,0.52772 -3.34495,0.52772 -6.25674,0 -2.9118,-0.52772 -7.24339,-0.74361 -9.62576,-0.47975 -2.38238,0.26386 -5.19791,-0.16791 -6.25674,-0.9595 -1.50643,-1.12644 -0.98279,-1.54382 2.40644,-1.91899 2.38237,-0.26386 6.06422,-0.91152 8.18189,-1.43924 2.11767,-0.52772 5.58294,-0.096 7.7006,0.95949 2.11767,1.05545 4.06689,1.70311 4.33159,1.43925 0.26471,-0.26386 0.0481,-0.91152 -0.48128,-1.43925 -0.52942,-0.52772 -0.52942,-0.7436 0,-0.47974 0.52941,0.26386 -0.12033,-0.3838 -1.44387,-1.43925 -1.32354,-1.05544 -4.78881,-1.91899 -7.7006,-1.91899 -3.80121,0 -4.75127,-0.40586 -3.36902,-1.43924 1.05884,-0.79159 4.95727,-1.65513 8.66318,-1.91899 3.70592,-0.26386 7.60435,0.16791 8.66318,0.95949 1.05884,0.79159 2.14174,1.65513 2.40644,1.91899 0.26471,0.26387 0.26471,0.69564 0,0.9595 -0.2647,0.26386 0.38503,0.26386 1.44387,0 1.0906,-0.27154 1.92515,-2.76623 1.92515,-5.75697 0,-2.90248 -1.0829,-7.65198 -2.40644,-10.55446 -1.32354,-2.90247 -2.62302,-5.49311 -2.88773,-5.75697 -0.26471,-0.26386 -0.26471,-0.69564 0,-0.9595 0.26471,-0.26386 0.0481,-0.69563 -0.48129,-0.95949 -0.52941,-0.26386 -1.82889,-2.20684 -2.88772,-4.31773 -1.05884,-2.11089 -1.70857,-5.34919 -1.44387,-7.19622 0.26471,-1.84703 0.91445,-4.0059 1.44387,-4.79748 0.52941,-0.79158 -0.3369,-3.38222 -1.92515,-5.75697 -1.58825,-2.37476 -4.83695,-6.26071 -7.21932,-8.63546 -2.38237,-2.37476 -6.49739,-7.34015 -9.14447,-11.03421 -2.92238,-4.07785 -6.89204,-7.65869 -10.10704,-9.1152 -2.91179,-1.31931 -8.32628,-2.83052 -12.0322,-3.35824 -3.70591,-0.52772 -7.82092,-0.74361 -9.14447,-0.47975 -1.84718,0.36845 -2.07146,0.0345 -0.96257,-1.43924 0.79412,-1.05545 3.60966,-2.35076 6.25674,-2.87849 2.64708,-0.52772 8.27815,0.11994 12.51348,1.43925 4.23534,1.3193 9.43324,3.90994 11.55091,5.75697 2.11767,1.84703 5.14978,5.08533 6.73803,7.19622 1.58825,2.11089 3.32089,4.70153 3.8503,5.75697 0.52942,1.05545 0.746,2.13488 0.48129,2.39874 -0.26471,0.26386 0.38503,2.20684 1.44386,4.31773 1.05884,2.11089 4.52411,5.78096 7.70061,8.15572 3.1765,2.37475 5.55887,3.45418 5.29416,2.39873 -0.2647,-1.05544 -0.69786,-2.13487 -0.96257,-2.39873 -0.26471,-0.26387 -0.26471,-0.91153 0,-1.43925 0.26471,-0.52772 0.26471,-1.60715 0,-2.39874 -0.26471,-0.79158 -0.0481,-4.89343 0.48129,-9.11521 0.52941,-4.22178 1.39573,-11.56192 1.92515,-16.31142 0.56118,-5.03064 0.15882,-9.63718 -0.96258,-11.0342 -1.05883,-1.31931 -4.30752,-3.26229 -7.21932,-4.31773 -2.91179,-1.05545 -5.72732,-2.56666 -6.25674,-3.35824 -0.55637,-0.83092 0.46108,-1.23679 2.40644,-0.9595 1.85296,0.26387 4.45191,0.26387 5.77546,0 1.32354,-0.26386 3.48933,-0.048 4.81287,0.47975 1.32355,0.52773 3.27276,2.90248 4.33159,5.27723 1.05884,2.37475 1.92516,6.69248 1.92516,9.59496 0,2.90247 -0.43316,7.86786 -0.96258,11.0342 -0.52942,3.16633 -0.96258,8.5635 -0.96258,11.99369 0,3.4302 0.86632,9.25914 1.92516,12.95319 1.05883,3.69406 1.70857,7.36413 1.44386,8.15572 -0.26471,0.79158 -0.26471,1.65513 0,1.91899 0.26471,0.26386 0.0481,0.69563 -0.48129,0.95949 -0.52942,0.26387 -2.26205,0.26387 -3.8503,0 -1.58825,-0.26386 -2.67115,-0.048 -2.40644,0.47975 0.26471,0.52773 -0.60161,0.74361 -1.92515,0.47975 -1.32354,-0.26386 -0.6738,0.16791 1.44386,0.9595 2.11767,0.79158 4.06688,2.30279 4.33159,3.35823 0.26471,1.05545 0.91445,2.13488 1.44387,2.39874 0.52941,0.26386 1.17915,2.42273 1.44386,4.79748 0.26471,2.37475 -0.16845,7.9878 -0.96258,12.47344 -0.79412,4.48565 -1.66044,10.0987 -1.92515,12.47345 -0.26471,2.37475 -0.91445,6.04482 -1.44386,8.15571 -0.52942,2.11089 -1.8289,7.72394 -2.88773,12.47344 -1.05883,4.74951 -3.87437,13.60086 -6.25674,19.66967 -2.38237,6.06881 -4.76475,12.5454 -5.29417,14.39243 -0.52941,1.84703 -1.82889,5.08533 -2.88772,7.19622 -1.05884,2.11089 -2.14173,4.05387 -2.40644,4.31773 -0.26471,0.26386 -0.26471,0.69563 0,0.9595 0.26471,0.26386 -0.60161,2.63861 -1.92515,5.27722 -1.32354,2.63862 -2.8396,5.44514 -3.36902,6.23672 -0.52941,0.79159 -1.17915,2.95045 -1.44386,4.79748 -0.26471,1.84703 -0.91445,4.43767 -1.44386,5.75698 -0.52942,1.3193 -1.61232,2.83051 -2.40644,3.35823 -0.79413,0.52772 -4.04282,2.03893 -7.21932,3.35824 -3.1765,1.3193 -6.85835,3.26228 -8.18189,4.31773 -1.32354,1.05544 -3.27276,3.64608 -4.33159,5.75697 -1.05884,2.11089 -2.14173,5.99685 -2.40644,8.63546 -0.26471,2.63862 -1.56419,8.46755 -2.88773,12.95319 -1.32354,4.48565 -2.8396,9.45104 -3.36901,11.0342 -0.55156,1.65034 -2.40067,3.08286 -4.33159,3.35824 -1.85296,0.26386 -3.5856,0.26386 -3.85031,0 -0.2647,-0.26386 -0.2647,-0.048 0,0.47975 0.26471,0.52772 -0.16845,1.17538 -0.96257,1.43924 -0.79413,0.26386 -2.52676,0.26386 -3.8503,0 -1.32355,-0.26386 -4.13908,1.24735 -6.25675,3.35824 -2.5489,2.54074 -6.12775,4.16229 -10.58833,4.79747 -3.70591,0.52773 -8.90382,0.52773 -11.5509,0 -2.64709,-0.52772 -6.32894,-1.60715 -8.1819,-2.39873 -1.85296,-0.79159 -4.01875,-1.22336 -4.81288,-0.9595 -0.79412,0.26386 -4.47597,-0.59969 -8.18189,-1.91899 -3.70591,-1.31931 -7.38777,-1.96697 -8.18189,-1.43925 -0.85669,0.56995 0.51209,2.51964 3.36901,4.79748 2.64709,2.11089 6.97868,5.13331 9.62576,6.71647 -5.29417,-0.95949 -4.81288,-10.0747 13.95735,1.91899 -3.97063,-2.63861 -7.00274,-5.22925 -6.73803,-5.75697 0.26471,-0.52772 2.21392,-0.096 4.33159,0.9595 2.11766,1.05544 9.91453,4.07785 17.32636,6.71647 15.90945,-5.1973 27.75779,-13.0645 38.92752,-23.4117 2.51088,-2.3262 -0.27486,-13.84168 2.20584,-16.41601 2.8498,-2.95774 4.59735,-12.02536 7.58317,-14.87027 3.40395,-3.24328 12.0139,-5.35945 15.3011,-8.39347 2.43224,-2.24532 6.77384,-6.49943 6.77384,-6.49943 0,0 3.66308,-18.41464 8.78927,-26.23166 3.1328,-4.77704 4.73915,-14.91728 6.65285,-20.03331 3.33157,-6.70121 3.99391,-17.09629 6.87538,-20.89398 l 5.38379,-31.48009 c 0,0 0.66456,-22.68344 1.58401,-27.77836 2.52638,-4.77867 -1.34,-10.28387 -2.88349,-15.35769 -1.95904,-6.44052 -2.02189,-12.18751 -0.76405,-14.87506 3.54122,-7.56716 1.04604,-17.13947 4.5347,-22.78994 44.1081,-82.59051 20.70981,-68.10021 13.10161,-30.66069 -0.38118,2.65973 -3.43062,-1.51984 0,0 7.70061,-23.98739 -5.24122,6.34486 -13.95734,12.9532 -0.52942,0.52772 -0.0963,-0.7676 0.96257,-2.87849 1.05884,-2.11089 2.79147,-5.1333 3.85031,-6.71647 l 5.77545,-8.63546 c 2.11767,-3.16634 4.71662,-7.26818 5.77545,-9.11521 1.57863,-3.25768 4.10048,-6.1591 5.29417,-9.59496 0.26471,-0.79158 0.0481,-2.0869 -0.48129,-2.87849 -0.52942,-0.79158 -0.52942,-1.22335 0,-0.95949 0.52942,0.26386 0.746,-0.59969 0.48129,-1.91899 -0.26471,-1.31931 0.38503,-3.69406 1.44386,-5.27723 1.05884,-1.58317 2.79147,-8.05976 3.8503,-14.39243 1.05884,-6.33268 2.35832,-10.86629 2.88773,-10.07471 0.52942,0.79159 0.26471,-2.37475 0,0 l -6.25674,-9.11521 c -1.85296,0.52772 -3.80217,0.31184 -4.33159,-0.47975 -0.52942,-0.79158 -0.746,-3.16633 -0.48129,-5.27722 0.28589,-2.2788 1.85007,-4.61805 3.8503,-5.75698 l 3.36902,-1.91899 -0.48129,-14.39243 c -0.26471,-7.91584 0.16845,-18.2784 0.96258,-23.0279 0.79412,-4.7495 2.0936,-10.79433 2.88772,-13.43294 0.79413,-2.63861 1.66045,-6.0928 1.92516,-7.67596 0.2647,-1.58317 0.2647,-4.82147 0,-7.19622 -0.26471,-2.37475 -0.48129,-7.98781 -0.48129,-12.47345 0,-4.48564 0.21658,-10.098691 0.48129,-12.473443 0.2647,-2.374751 0.0481,-6.044822 -0.48129,-8.155713 -0.52942,-2.110891 -1.39574,-5.996848 -1.92515,-8.635461 -0.52942,-2.638613 -0.96258,-7.172231 -0.96258,-10.074705 0,-2.902474 -0.86632,-8.731411 -1.92515,-12.953192 -1.05883,-4.221781 -3.87437,-11.13015 -6.25674,-15.351931 -2.38238,-4.221781 -5.41449,-8.971285 -6.73803,-10.554453 -1.32354,-1.583167 -4.13908,-4.173806 -6.25674,-5.756974 -2.11767,-1.583168 -6.44926,-3.526146 -9.62576,-4.31773 -3.1765,-0.791584 -7.72467,-1.223357 -10.10704,-0.959496 -2.38238,0.263861 -8.87976,3.070386 -14.43864,6.236722 -5.55887,3.166336 -12.92257,8.563499 -16.36378,11.993696 -3.44121,3.430197 -9.28886,10.12268 -12.99477,14.872183 -3.70592,4.749504 -8.03751,10.57844 -9.62576,12.953192 -1.58825,2.374752 -4.40378,6.692483 -6.25674,9.594957 -1.85296,2.902475 -4.23533,7.004319 -5.29417,9.115209 l -6.25674,12.473444 c -2.38237,4.749504 -7.14712,15.759715 -10.58833,24.467145 -3.44121,8.70742 -7.33964,18.42231 -8.66318,21.58865 -1.32354,3.16634 -3.27276,7.91584 -4.33159,10.55445 -1.05883,2.63862 -2.35831,6.30869 -2.88773,8.15572 -0.52941,1.84703 -1.17915,5.30121 -1.44386,7.67596 -0.26471,2.37475 -1.78076,5.18128 -3.36901,6.23672 -1.58825,1.05545 -7.00274,2.99843 -12.0322,4.31773 -5.02946,1.31931 -11.31026,2.39874 -13.95735,2.39874 -2.64708,0 -10.44394,1.07944 -17.32636,2.39874 -6.88241,1.31931 -14.89585,2.18286 -17.80765,1.91899 -2.91179,-0.26386 -7.0268,-0.91152 -9.14446,-1.43924 -2.11767,-0.52772 -5.79952,-0.74361 -8.1819,-0.47975 -2.38237,0.26386 -6.06422,0.91152 -8.18189,1.43925 -2.11766,0.52772 -8.39847,0.52772 -13.95734,0 -5.55888,-0.52773 -11.18995,-0.31184 -12.51349,0.47974 -1.72878,1.03434 -3.4903,0.49414 -6.25674,-1.91899 -2.11767,-1.84703 -4.06688,-4.86944 -4.33159,-6.71647 -0.26471,-1.84703 -0.0481,-5.08532 0.48129,-7.19621 0.52941,-2.11089 0.31284,-7.07629 -0.48129,-11.0342 -0.79412,-3.95792 -2.31018,-8.92331 -3.36901,-11.03421 -1.05884,-2.11089 -2.35831,-6.21273 -2.88773,-9.1152 -0.52942,-2.90248 -2.47863,-8.29964 -4.33159,-11.9937 -1.85296,-3.69406 -4.01875,-8.22768 -4.81288,-10.07471 -0.79412,-1.84702 -3.1765,-7.89185 -5.29416,-13.43294 -2.11767,-5.541085 -5.36636,-12.449454 -7.21932,-15.351928 -1.85296,-2.902475 -5.31823,-8.515524 -7.70061,-12.473444 -2.38237,-3.95792 -7.14712,-11.729835 -10.58833,-17.270923 -3.441204,-5.541087 -7.772794,-11.58591 -9.625752,-13.432939 L 86.595036,36.391704 C 85.006786,34.808536 80.675196,31.138465 76.96928,28.23599 73.263364,25.333516 68.065456,21.447558 65.418373,19.600529 62.77129,17.7535 57.356802,15.378748 53.386178,14.323303 49.415554,13.267858 45.300543,12.404311 44.24171,12.404311 m 299.36101,69.08369 c 0.52942,0 0.746,0.64766 0.48129,1.439244 -0.26471,0.791584 -1.99735,2.302789 -3.8503,3.358235 l -3.36902,1.918991 2.88773,-3.358235 c 1.58825,-1.847029 3.32088,-3.358235 3.8503,-3.358235 M 75.525417,94.441193 c 0.794125,0.791584 3.176499,2.518676 5.294166,3.837983 2.117666,1.319306 3.417143,3.046404 2.887726,3.837984 -0.529416,0.79158 -2.695211,0.5757 -4.812878,-0.47975 -2.327507,-1.16003 -4.040892,-3.246933 -4.33159,-5.277225 -0.322463,-2.252896 -0.0058,-2.884245 0.962576,-1.918992 M 348.4156,95.400689 c 1.05883,0.263861 2.79147,1.127407 3.8503,1.918991 1.53916,1.150436 1.05595,1.728052 -2.40644,2.87849 -2.38237,0.79158 -4.98133,2.30279 -5.77545,3.35823 -0.79413,1.05545 -3.39308,3.21431 -5.77546,4.79748 -2.38237,1.58317 -4.11501,2.6626 -3.8503,2.39874 0.26471,-0.26386 1.99735,-3.07039 3.8503,-6.23672 1.85296,-3.16634 4.45192,-6.620522 5.77546,-7.675968 1.32354,-1.055445 3.27276,-1.703105 4.33159,-1.439243 m -23.10182,9.115211 c 0.52942,0 0.52942,1.07943 0,2.39874 -0.52941,1.3193 -2.26205,3.47817 -3.8503,4.79748 -1.58825,1.3193 -3.1043,2.18285 -3.36901,1.91899 -0.26471,-0.26386 1.03477,-2.42273 2.88772,-4.79748 1.85296,-2.37475 3.80218,-4.31773 4.33159,-4.31773 m -257.970256,8.63546 c 2.117666,1.58317 2.983984,2.6626 1.925151,2.39874 -1.058833,-0.26386 -2.791469,-1.55918 -3.850302,-2.87849 -1.243648,-1.54958 -0.563107,-1.37975 1.925151,0.47975 m 280.109496,-2.39874 1.92515,0.9595 c 0.52942,0.26386 0.52942,0.69563 0,0.95949 -0.52941,0.26386 -1.39573,-0.16791 -1.92515,-0.95949 -0.52941,-0.79159 -0.52941,-1.22336 0,-0.9595 m 11.06962,1.91899 c 0.26471,0.26386 0.0481,1.99096 -0.48129,3.83799 -0.52941,1.84703 -2.47863,5.73298 -4.33159,8.63546 -1.85295,2.90247 -3.58559,7.2202 -3.8503,9.59495 l -0.48129,4.31773 1.92516,-3.35823 c 1.14257,-1.99383 2.31595,-2.7739 2.88772,-1.91899 0.52942,0.79158 0.746,2.95045 0.48129,4.79748 -0.26471,1.84703 -0.0481,4.86944 0.48129,6.71647 0.52941,1.84703 1.61231,6.59653 2.40644,10.55445 0.79412,3.95792 1.22728,7.84388 0.96257,8.63546 -0.26471,0.79158 -1.13102,2.51868 -1.92515,3.83798 -0.79412,1.31931 -1.87702,3.90995 -2.40644,5.75698 -0.52941,1.84703 -0.74599,3.79001 -0.48129,4.31773 0.26471,0.52772 0.26471,2.25481 0,3.83798 -0.2647,1.58317 -1.78076,5.46913 -3.36901,8.63546 -1.58825,3.16634 -3.97062,6.40464 -5.29417,7.19622 -1.32354,0.79158 -4.57223,1.22336 -7.21931,0.9595 -2.64709,-0.26387 -5.89578,-0.91153 -7.21932,-1.43925 -1.32354,-0.52772 -3.27276,-1.17538 -4.33159,-1.43924 -1.05883,-0.26386 -2.35831,-3.07039 -2.88773,-6.23672 -0.52941,-3.16634 -1.17915,-5.54109 -1.44386,-5.27723 -0.26471,0.26386 -2.21392,0.91152 -4.33159,1.43924 -2.11767,0.52773 -3.41714,0.52773 -2.88773,0 0.52942,-0.52772 1.61232,-3.76602 2.40644,-7.19621 0.79413,-3.4302 1.87702,-7.74793 2.40644,-9.59496 0.52942,-1.84703 0.746,-4.0059 0.48129,-4.79748 -0.26471,-0.79158 0.16845,-2.30279 0.96257,-3.35823 0.79413,-1.05545 3.39308,-3.4302 5.77546,-5.27723 2.38237,-1.84703 4.54817,-3.79001 4.81288,-4.31773 0.2647,-0.52772 -0.16846,-0.74361 -0.96258,-0.47975 -0.79413,0.26386 -1.22728,0.26386 -0.96258,0 0.26471,-0.26386 0.0481,-1.34329 -0.48128,-2.39874 -0.52942,-1.05544 -0.746,-2.99842 -0.48129,-4.31773 0.26471,-1.31931 1.99734,-3.0464 3.8503,-3.83798 1.85296,-0.79159 2.93586,-1.87102 2.40644,-2.39874 -0.52942,-0.52772 -0.31284,-1.39127 0.48129,-1.91899 0.79412,-0.52772 2.0936,-2.25482 2.88772,-3.83798 0.79413,-1.58317 1.87703,-2.44672 2.40644,-1.919 0.52942,0.52773 0.746,2.25482 0.48129,3.83799 -0.26471,1.58316 -0.0481,2.6626 0.48129,2.39874 0.52942,-0.26387 1.82889,-3.50216 2.88773,-7.19622 1.44675,-5.04599 3.24195,-7.67117 7.21931,-10.55445 2.91179,-2.1109 5.51075,-4.48565 5.77546,-5.27723 0.2647,-0.79158 0.69786,-1.22336 0.96257,-0.9595 m -278.184345,8.15572 c 1.852958,0 3.152435,0.43177 2.887727,0.95949 -0.264709,0.52773 -0.697868,2.90248 -0.962576,5.27723 -0.264708,2.37475 -0.264708,4.96539 0,5.75697 0.264708,0.79159 0.264708,1.87102 0,2.39874 -0.264708,0.52772 -0.264708,0.74361 0,0.47975 0.264708,-0.26386 0.697867,-0.048 0.962576,0.47975 0.264708,0.52772 -0.385031,1.17538 -1.443864,1.43924 -1.058833,0.26386 -3.224628,-0.81557 -4.812878,-2.39874 -1.58825,-1.58317 -3.320886,-3.52614 -3.850302,-4.31773 -0.529417,-0.79158 -0.745996,-1.22336 -0.481288,-0.95949 0.264708,0.26386 0.697867,0.26386 0.962576,0 0.264708,-0.26387 0.04813,-0.69564 -0.481288,-0.9595 -0.529417,-0.26386 -0.745996,-0.91152 -0.481288,-1.43924 0.264708,-0.52773 1.347606,-2.25482 2.406439,-3.83799 1.058833,-1.58316 3.441208,-2.87848 5.294166,-2.87848 m 9.144468,1.91899 c 0.529417,0 1.612314,1.29532 2.406439,2.87849 0.794125,1.58316 2.093602,3.31026 2.887727,3.83798 0.818189,0.54403 0.60931,1.1677 -0.481288,1.43924 -1.058833,0.26386 -3.008049,0.048 -4.33159,-0.47975 -1.500656,-0.59872 -2.225475,-2.22411 -1.925151,-4.31773 0.264708,-1.84703 0.914446,-3.35823 1.443863,-3.35823 m -3.850302,7.67596 c 0.529416,1.05545 2.045473,2.56665 3.369014,3.35824 1.323542,0.79158 3.922496,2.51867 5.775454,3.83798 1.852958,1.31931 4.451912,4.77349 5.775451,7.67597 1.92515,4.22178 1.92515,4.98937 0,3.83798 -1.323539,-0.79158 -2.839596,-1.22336 -3.369012,-0.9595 -0.529417,0.26387 0.120322,1.77507 1.443863,3.35824 1.323542,1.58317 4.139079,4.60558 6.256739,6.71647 2.11767,2.11089 3.63373,4.26975 3.36902,4.79748 -0.26471,0.52772 -1.13103,1.39127 -1.92515,1.91899 -0.79413,0.52772 -1.22729,1.17538 -0.96258,1.43924 0.26471,0.26386 0.26471,0.69564 0,0.9595 -0.26471,0.26386 -0.26471,1.12741 0,1.91899 0.26471,0.79158 0.91445,2.0869 1.44386,2.87849 0.52942,0.79158 0.746,1.65513 0.48129,1.91899 -0.26471,0.26386 0.38503,1.77506 1.44387,3.35823 1.05883,1.58317 1.70856,3.09438 1.44386,3.35824 -0.26471,0.26386 -0.26471,0.91152 0,1.43924 0.2647,0.52772 0.2647,0.74361 0,0.47975 -0.26471,-0.26386 -0.69787,0.16791 -0.96258,0.95949 -0.26471,0.79159 -0.69786,1.00748 -0.96257,0.47975 -0.26471,-0.52772 -0.91445,-0.31183 -1.44387,0.47975 -0.52941,0.79158 -1.61231,2.95045 -2.40643,4.79748 l -1.44387,3.35823 -4.812877,-0.95949 c -2.647082,-0.52772 -4.596298,-0.52772 -4.33159,0 0.264709,0.52772 2.213924,2.25481 4.33159,3.83798 l 3.850307,2.87849 -5.775458,0.95949 c -3.176499,0.52773 -7.29151,0.31184 -9.144468,-0.47974 -1.852958,-0.79159 -3.585594,-2.08691 -3.850302,-2.87849 -0.264709,-0.79159 -0.04813,-1.22336 0.481287,-0.9595 0.529417,0.26386 0.529417,-0.3838 0,-1.43924 -0.529416,-1.05545 -0.529416,-3.86197 0,-6.23672 l 0.962576,-4.31773 -3.850302,-0.47975 c -2.117667,-0.26386 -5.366359,-1.77507 -7.219317,-3.35824 -1.980981,-1.69255 -3.963887,-5.64567 -4.812878,-9.59495 -0.794125,-3.69406 -1.227284,-7.58002 -0.962576,-8.63546 0.329201,-1.31355 0.784499,-1.16291 1.443863,0.47974 0.529417,1.31931 2.045473,5.20527 3.369015,8.63546 1.323541,3.4302 2.839598,6.02084 3.369015,5.75698 0.529416,-0.26386 0.529416,-2.20684 0,-4.31773 -0.529417,-2.11089 -0.529417,-5.1333 0,-6.71647 0.529416,-1.58317 0.529416,-3.95792 0,-5.27723 -0.529417,-1.3193 -0.529417,-3.90994 0,-5.75697 0.529416,-1.84703 0.529416,-4.65356 0,-6.23672 -0.529417,-1.58317 -0.312838,-2.44672 0.481287,-1.919 0.794125,0.52773 2.093602,2.03893 2.887727,3.35824 0.794125,1.31931 1.660443,1.75108 1.925151,0.9595 0.264709,-0.79159 -0.38503,-2.95045 -1.443863,-4.79748 l -1.925151,-3.35824 2.887727,-1.43924 c 1.588249,-0.79159 3.320885,-2.51868 3.850302,-3.83798 0.529417,-1.31931 0.745996,-3.69406 0.481288,-5.27723 -0.282997,-1.69255 -0.08471,-2.08786 0.481288,-0.9595 m 268.077299,26.38614 c -0.34075,-3.0608 -0.90193,-1.66473 -1.92515,4.79747 -0.79412,5.01337 -2.0936,10.62642 -2.88772,12.47345 -0.79413,1.84703 -1.66045,3.57412 -1.92516,3.83798 -0.2647,0.26386 0.38504,0.048 1.44387,-0.47975 1.05883,-0.52772 2.79147,-4.41368 3.8503,-8.63546 1.05883,-4.22178 1.70857,-9.61894 1.44386,-11.99369 m 33.69015,12.95319 c 0.26471,0 0.26471,1.07943 0,2.39874 -0.26471,1.3193 -1.34761,3.90994 -2.40644,5.75697 -1.28311,2.2385 -1.28311,1.43924 0,-2.39874 1.05883,-3.16633 2.14173,-5.75697 2.40644,-5.75697 m -253.63867,6.23672 c 3.70591,0.26386 8.25408,1.12741 10.10704,1.91899 1.85296,0.79158 4.45191,2.51868 5.77546,3.83798 1.32354,1.31931 1.97328,2.18286 1.44386,1.91899 -0.52942,-0.26386 -2.04547,-0.26386 -3.36901,0 -1.32355,0.26387 -4.35566,0.26387 -6.73803,0 -2.38238,-0.26386 -4.76475,-0.26386 -5.29417,0 -0.52942,0.26387 -1.17916,0.26387 -1.44386,0 -0.26471,-0.26386 -0.69787,-0.26386 -0.96258,0 -0.26471,0.26387 -0.91445,0.048 -1.44386,-0.47974 -0.52942,-0.52773 -2.04548,-1.39127 -3.36902,-1.91899 -1.32354,-0.52773 -1.7567,-0.52773 -0.96257,0 0.79412,0.52772 1.22728,1.17538 0.96257,1.43924 -0.26471,0.26386 0.38503,0.69563 1.44387,0.95949 1.05883,0.26387 1.70857,0.69564 1.44386,0.9595 -0.26471,0.26386 -0.26471,0.91152 0,1.43924 0.26471,0.52773 0.91445,0.74361 1.44386,0.47975 0.52942,-0.26386 0.746,-0.91152 0.48129,-1.43924 -0.26471,-0.52772 -0.0481,-0.74361 0.48129,-0.47975 0.52942,0.26386 0.74599,1.12741 0.48129,1.91899 -0.26471,0.79159 -0.0481,1.65513 0.48128,1.91899 0.52942,0.26386 1.17916,0.048 1.44387,-0.47974 0.26471,-0.52773 0.91444,-0.74361 1.44386,-0.47975 0.52942,0.26386 0.746,0.69563 0.48129,0.95949 -0.26471,0.26386 -0.26471,0.69564 0,0.9595 0.26471,0.26386 -0.38503,0.91152 -1.44386,1.43924 -1.05884,0.52772 -1.70858,0.74361 -1.44387,0.47975 0.26471,-0.26386 0.26471,-0.69563 0,-0.9595 -0.26471,-0.26386 -0.69787,-0.048 -0.96257,0.47975 -0.26471,0.52772 -1.34761,0.52772 -2.40644,0 -1.05884,-0.52772 -2.57489,-0.52772 -3.36902,0 -0.79412,0.52772 -1.87702,0.52772 -2.40644,0 -0.52941,-0.52772 -0.52941,-0.74361 0,-0.47975 0.52942,0.26387 0.746,0.048 0.48129,-0.47974 -0.26471,-0.52773 -1.13102,-0.52773 -1.92515,0 -0.79412,0.52772 -1.22728,0.74361 -0.96258,0.47974 0.26471,-0.26386 0.0481,-0.69563 -0.48128,-0.95949 -0.52942,-0.26386 -1.39574,-1.77507 -1.92515,-3.35824 -0.52942,-1.58316 -0.52942,-3.52614 0,-4.31773 0.52941,-0.79158 2.04547,-2.51867 3.36901,-3.83798 1.54686,-1.54191 4.81192,-2.22699 9.14447,-1.91899 m 218.02337,4.31773 c -0.26471,0 -0.91444,0.64766 -1.44386,1.43924 -0.52942,0.79159 -1.17916,1.87102 -1.44386,2.39874 -0.26471,0.52773 -0.0481,0.74361 0.48128,0.47975 0.52942,-0.26386 1.39574,-1.34329 1.92516,-2.39874 0.52941,-1.05544 0.74599,-1.91899 0.48128,-1.91899 m -237.75617,10.0747 c 2.38237,0.26387 5.84765,1.12741 7.7006,1.919 l 3.36902,1.43924 -2.88773,0.47975 c -1.58825,0.26386 -4.62036,0.048 -6.73803,-0.47975 -2.11766,-0.52772 -4.28346,-1.60716 -4.81288,-2.39874 -0.53615,-0.80118 0.9568,-1.22624 3.36902,-0.9595 m 94.8137,5.75698 c 0.52941,0.79158 0.0962,2.95045 -0.96258,4.79748 -1.05883,1.84703 -1.70857,5.30121 -1.44386,7.67596 0.26471,2.37475 0.0481,8.20369 -0.48129,12.95319 -0.66803,5.99206 -1.4044,8.04825 -2.40644,6.71647 -0.79412,-1.05544 -1.22728,-3.43019 -0.96258,-5.27722 0.26471,-1.84703 0.48129,-5.73299 0.48129,-8.63546 0,-2.90248 1.0829,-8.51553 2.40644,-12.47345 1.32354,-3.95792 2.8396,-6.54856 3.36902,-5.75697 m 154.01209,0.95949 c 0.52942,1.31931 0.31284,4.12584 -0.48129,6.23673 -0.79412,2.11089 -1.66044,3.19032 -1.92515,2.39874 -0.2647,-0.79159 -0.0481,-3.59811 0.48129,-6.23673 0.73541,-3.66623 1.18974,-4.23137 1.92515,-2.39874 m -48.12878,0.47975 h 2.88773 l -4.33159,3.35824 c -2.38238,1.84703 -5.41449,3.57412 -6.73803,3.83798 -1.68162,0.33486 -1.24654,-0.67644 1.44386,-3.35824 2.11767,-2.11089 5.14978,-3.83798 6.73803,-3.83798 m 5.77546,6.23672 c 1.99927,0.33199 0.22235,1.51313 -5.77546,3.83799 -4.76475,1.84703 -8.87976,3.14235 -9.14447,2.87848 -0.2647,-0.26386 0.38503,-1.1274 1.44387,-1.91899 1.05883,-0.79158 3.87436,-2.30279 6.25674,-3.35823 2.38237,-1.05545 5.63107,-1.70311 7.21932,-1.43925 m 49.57264,2.39874 c 0.26471,0 0.26471,0.86355 0,1.91899 l -1.92515,7.67597 c -0.79413,3.16634 -2.0936,7.26818 -2.88773,9.11521 l -1.44386,3.35823 -0.48129,-4.31773 c -0.26471,-2.37475 0.38503,-5.61305 1.44386,-7.19621 1.05884,-1.58317 2.57489,-4.60558 3.36902,-6.71647 0.79412,-2.11089 1.66044,-3.83799 1.92515,-3.83799 m -335.938884,2.87849 c 0.794125,0 3.826238,2.59064 6.738029,5.75697 2.911791,3.16634 5.510745,6.62052 5.775454,7.67597 0.264708,1.05545 0.04813,4.07786 -0.481288,6.71647 -0.735408,3.66623 -1.189744,4.23138 -1.925151,2.39874 -0.529417,-1.31931 -1.395735,-2.18285 -1.925152,-1.91899 -0.529416,0.26386 -1.828893,0.26386 -2.887726,0 -1.058834,-0.26386 -3.008049,-0.91152 -4.331591,-1.43925 -1.323541,-0.52772 -3.056177,-0.52772 -3.850302,0 -0.794125,0.52773 -1.227284,0.31184 -0.962576,-0.47974 0.264709,-0.79159 1.347606,-1.65513 2.406439,-1.91899 1.058834,-0.26387 1.708572,-1.12741 1.443864,-1.919 -0.264708,-0.79158 -0.264708,-3.38222 0,-5.75697 0.264708,-2.37475 0.04813,-5.39716 -0.481288,-6.71647 -0.529417,-1.31931 -0.312837,-2.39874 0.481288,-2.39874 m 364.816154,1.43924 c 1.42846,0.28497 2.21103,1.4546 1.92515,2.87849 l -2.40644,11.9937 -5.77545,1.91899 c -3.1765,1.05544 -6.4252,1.48722 -7.21932,0.95949 -0.79413,-0.52772 -1.22728,-2.4707 -0.96258,-4.31773 0.26471,-1.84703 1.13103,-4.43766 1.92515,-5.75697 0.79413,-1.31931 1.66045,-1.75108 1.92516,-0.9595 0.2647,0.79159 0.91444,1.22336 1.44386,0.9595 0.52942,-0.26386 2.26205,-2.20684 3.8503,-4.31773 1.66718,-2.21644 3.90421,-3.63553 5.29417,-3.35824 m -257.97026,11.0342 c 0.2647,0 0.2647,0.21589 0,0.47975 -0.26471,0.26386 -0.26471,0.91152 0,1.43925 0.2647,0.52772 0.91444,0.74361 1.44386,0.47974 0.52942,-0.26386 1.82889,0.16792 2.88773,0.9595 1.05883,0.79158 1.70857,1.65513 1.44386,1.91899 -0.26471,0.26386 -0.26471,0.91152 0,1.43924 0.26471,0.52773 0.26471,0.74361 0,0.47975 -0.26471,-0.26386 -0.69787,-0.048 -0.96258,0.47975 -0.2647,0.52772 -0.91444,0.74361 -1.44386,0.47975 -0.52942,-0.26386 -0.52942,-1.3433 0,-2.39874 0.52942,-1.05545 0.746,-1.70311 0.48129,-1.43924 -0.26471,0.26386 -0.69787,0.26386 -0.96258,0 -0.26471,-0.26387 -0.91444,-0.048 -1.44386,0.47974 -0.52942,0.52773 -0.52942,0.74361 0,0.47975 0.52942,-0.26386 0.52942,0.16791 0,0.9595 -0.52942,0.79158 -1.61231,0.79158 -2.40644,0 l -0.96258,-0.9595 c 0.26471,0.26386 0.91445,0.26386 1.44387,0 0.52941,-0.26386 0.52941,-1.12741 0,-1.91899 -0.52942,-0.79158 -0.746,-1.87102 -0.48129,-2.39874 0.26471,-0.52772 0.69787,-0.9595 0.96258,-0.9595 m 176.15133,0 c 1.32354,0 5.43855,0.64766 9.14447,1.43925 3.70592,0.79158 7.60435,1.00747 8.66318,0.47975 1.05883,-0.52773 2.79147,-1.17539 3.8503,-1.43925 1.05884,-0.26386 4.30753,0.3838 7.21932,1.43925 l 5.29417,1.91899 -4.81288,0.95949 c -2.64709,0.52773 -8.49473,1.39127 -12.99477,1.91899 -4.50004,0.52773 -8.83163,0.52773 -9.62576,0 -0.79412,-0.52772 -3.1765,-1.60715 -5.29417,-2.39873 -2.11766,-0.79159 -4.06688,-1.22336 -4.33159,-0.9595 -0.2647,0.26386 -0.91444,0.26386 -1.44386,0 -0.52942,-0.26386 -0.31284,-1.12741 0.48129,-1.91899 0.79412,-0.79159 2.52676,-1.43925 3.8503,-1.43925 m -188.66482,5.75698 c 0.26471,0 2.43051,1.5112 4.81288,3.35823 2.38238,1.84703 4.11501,4.0059 3.8503,4.79748 -0.2647,0.79159 -1.99734,0.79159 -3.8503,0 -1.85296,-0.79158 -3.80217,-2.95045 -4.33159,-4.79748 -0.52942,-1.84703 -0.746,-3.35823 -0.48129,-3.35823 m 227.16785,5.27723 c 4.52121,0.34637 5.72251,0.87889 4.33159,1.91899 -1.05884,0.79158 -5.17385,1.22335 -9.14447,0.95949 -3.97063,-0.26386 -7.00274,-0.69563 -6.73803,-0.95949 0.26471,-0.26386 1.56418,-0.91152 2.88772,-1.43925 1.32355,-0.52772 5.22198,-0.74361 8.66319,-0.47974 m -24.06439,6.71646 c 3.4412,0.26387 7.77279,0.91153 9.62575,1.43925 l 3.36902,0.95949 -4.33159,0.47975 c -2.38238,0.26386 -6.93055,0.048 -10.10705,-0.47975 -3.1765,-0.52772 -5.55887,-1.39126 -5.29416,-1.91899 0.2647,-0.52772 3.29682,-0.74361 6.73803,-0.47975 m -248.825796,0.47975 c 2.117666,0 3.417143,0.43178 2.887727,0.9595 -0.529417,0.52772 -2.695212,1.17538 -4.812878,1.43924 -2.182159,0.27154 -3.433508,-0.14392 -2.887727,-0.95949 0.529416,-0.79159 2.695211,-1.43925 4.812878,-1.43925 m 64.492566,10.55446 c 1.05883,1.05544 2.57489,2.78253 3.36901,3.83798 0.79413,1.05544 2.31018,4.07785 3.36902,6.71647 1.05883,2.63861 1.70857,5.87691 1.44386,7.19622 l -0.48129,2.39873 -1.92515,-2.87848 c -1.05883,-1.58317 -2.79147,-4.60558 -3.8503,-6.71647 -1.05883,-2.11089 -2.35831,-5.78096 -2.88773,-8.15572 l -0.96257,-4.31773 1.92515,1.919 m -20.69538,5.75697 c 1.32354,1.05544 1.97328,1.48722 1.44387,0.9595 -0.52942,-0.52773 -1.39574,-0.74361 -1.92516,-0.47975 -0.52941,0.26386 -0.74599,0.048 -0.48128,-0.47975 0.2647,-0.52772 -0.16845,-0.74361 -0.96258,-0.47975 -0.79412,0.26386 -1.22728,0.048 -0.96258,-0.47975 0.26471,-0.52772 1.56419,-0.0959 2.88773,0.9595 m 38.50303,3.83798 c 0.2647,1.58317 -0.16845,5.9009 -0.96258,9.59496 -0.79412,3.69406 -1.87702,7.36413 -2.40644,8.15571 -0.52942,0.79159 -0.0963,-3.52614 0.96258,-9.59495 1.05883,-6.06881 2.14173,-9.73889 2.40644,-8.15572 m -51.01651,-0.47975 c 1.32354,0.79159 2.62302,1.22336 2.88773,0.9595 0.2647,-0.26386 0.91444,0.16791 1.44386,0.9595 0.52942,0.79158 1.17915,1.22335 1.44386,0.95949 0.26471,-0.26386 0.91445,-0.26386 1.44387,0 0.52941,0.26386 0.74599,0.91152 0.48128,1.43925 -0.2647,0.52772 -2.64708,-0.55171 -5.29416,-2.39874 -2.64709,-1.84703 -3.72998,-2.71058 -2.40644,-1.919 m 218.02337,-1.43924 c 2.11767,0 6.0161,0.43177 8.66318,0.9595 2.64709,0.52772 6.7621,1.82304 9.14447,2.87848 2.38238,1.05545 4.11501,2.13488 3.8503,2.39874 -0.2647,0.26386 0.16845,1.55918 0.96258,2.87849 0.79412,1.31931 4.04282,3.26229 7.21932,4.31773 3.1765,1.05545 6.64177,2.99842 7.7006,4.31773 l 1.92515,2.39874 -4.33159,-1.43924 c -2.38237,-0.79159 -6.06422,-2.08691 -8.18189,-2.87849 -2.11767,-0.79158 -6.0161,-2.30279 -8.66318,-3.35824 -2.64708,-1.05544 -7.19525,-2.99842 -10.10704,-4.31773 -2.9118,-1.3193 -7.02681,-3.04639 -9.14447,-3.83798 -2.11767,-0.79158 -3.63373,-2.0869 -3.36902,-2.87849 0.26471,-0.79158 2.21393,-1.43924 4.33159,-1.43924 m -194.92156,3.83798 c 1.32354,1.05545 2.8396,2.56665 3.36902,3.35824 0.52941,0.79158 1.17915,1.22336 1.44386,0.95949 0.26471,-0.26386 0.91445,-0.048 1.44386,0.47975 0.52942,0.52772 2.26206,4.41368 3.85031,8.63546 1.58825,4.22178 2.67114,10.26661 2.40644,13.43294 l -0.48129,5.75698 -2.40644,-3.83799 c -1.32354,-2.11089 -2.8396,-4.48564 -3.36902,-5.27722 -0.52941,-0.79159 -3.12837,-4.24577 -5.77545,-7.67597 -2.64708,-3.43019 -5.46262,-7.10027 -6.25674,-8.15571 -0.79413,-1.05545 -1.87702,-1.70311 -2.40644,-1.43924 -0.52942,0.26386 -0.746,0.048 -0.48129,-0.47975 0.26471,-0.52772 1.13103,-0.52772 1.92515,0 0.79413,0.52772 1.66045,0.74361 1.92516,0.47975 0.2647,-0.26387 1.3476,0.38379 2.40643,1.43924 1.05884,1.05544 3.22463,2.78254 4.81288,3.83798 1.58825,1.05545 2.67115,2.35077 2.40644,2.87849 -0.26471,0.52772 -0.26471,0.74361 0,0.47975 0.26471,-0.26386 0.91445,-0.26386 1.44386,0 0.52942,0.26386 0.52942,-0.59969 0,-1.91899 -0.52941,-1.31931 -2.69521,-5.20527 -4.81287,-8.63547 -2.18216,-3.53478 -2.80784,-5.40483 -1.44387,-4.31773 m -29.35855,3.83799 c 1.05883,0 4.5241,1.07943 7.7006,2.39874 3.1765,1.3193 6.64177,3.04639 7.70061,3.83798 1.41883,1.0612 1.16568,1.18689 -0.96258,0.47975 -1.58825,-0.52773 -5.2701,-1.82305 -8.18189,-2.87849 -2.91179,-1.05545 -5.9439,-2.35077 -6.73803,-2.87849 -0.84899,-0.56418 -0.6507,-0.95949 0.48129,-0.95949 m 208.8789,0.95949 c 1.58825,0 2.45457,0.43178 1.92515,0.9595 -0.52941,0.52772 -3.12837,2.03893 -5.77545,3.35823 -2.64708,1.31931 -6.76209,3.26229 -9.14447,4.31773 l -4.33159,1.91899 2.88773,-2.87848 c 1.58825,-1.58317 4.83694,-3.95792 7.21932,-5.27723 2.38237,-1.31931 5.63106,-2.39874 7.21931,-2.39874 m -20.69537,0.9595 c 0.26471,0 -0.16845,1.29532 -0.96258,2.87848 -0.79412,1.58317 -3.82624,4.60558 -6.73803,6.71647 -2.91179,2.1109 -5.72732,5.13331 -6.25674,6.71647 -0.52941,1.58317 -0.74599,3.31026 -0.48129,3.83799 0.26471,0.52772 0.26471,2.25481 0,3.83798 l -0.48128,2.87849 1.92515,-3.35824 c 1.05883,-1.84703 4.09094,-4.43767 6.73803,-5.75697 2.64708,-1.31931 5.67919,-3.47817 6.73803,-4.79748 1.05883,-1.31931 2.35831,-1.96697 2.88772,-1.43924 0.52942,0.52772 2.04548,0.52772 3.36902,0 1.32354,-0.52773 5.00539,-2.25482 8.18189,-3.83799 3.1765,-1.58316 6.64177,-2.6626 7.7006,-2.39874 1.05884,0.26387 -3.27275,2.8545 -9.62575,5.75698 -6.54744,2.99171 -12.17658,6.52457 -12.99477,8.15571 -0.99049,1.97464 -0.83937,2.72785 0.48129,2.39874 1.05883,-0.26386 4.30752,-1.34329 7.21931,-2.39874 2.91179,-1.05544 7.67654,-3.4302 10.58833,-5.27722 2.9118,-1.84703 10.05892,-4.65356 15.8825,-6.23673 5.82358,-1.58316 12.53755,-2.6626 14.91992,-2.39874 2.38238,0.26387 5.41449,0.69564 6.73803,0.9595 1.42847,0.28497 1.82023,0.8693 0.96258,1.43924 -0.79413,0.52773 -1.87702,0.74361 -2.40644,0.47975 -0.52942,-0.26386 -1.17916,-0.048 -1.44386,0.47975 -0.26471,0.52772 -2.64709,0.74361 -5.29417,0.47975 l -4.81288,-0.47975 5.77546,1.91899 c 3.1765,1.05545 6.42519,2.78254 7.21931,3.83798 0.79413,1.05545 1.22729,1.48722 0.96258,0.9595 -0.26471,-0.52772 -0.69787,-0.74361 -0.96258,-0.47975 -0.26471,0.26386 -1.3476,0.26386 -2.40644,0 -1.05883,-0.26386 -3.65778,-1.34329 -5.77545,-2.39874 -2.11767,-1.05544 -3.63372,-1.48722 -3.36901,-0.95949 0.2647,0.52772 0.0481,1.17538 -0.48129,1.43924 -0.52942,0.26386 -1.61232,0.91152 -2.40644,1.43924 -0.79413,0.52773 -0.14439,0.74361 1.44386,0.47975 1.58825,-0.26386 3.75405,0.16791 4.81288,0.9595 1.39092,1.04009 0.18963,1.57261 -4.33159,1.91899 -3.44121,0.26386 -6.04016,-0.16791 -5.77545,-0.9595 0.2647,-0.79158 -1.90109,-1.22335 -4.81288,-0.95949 -2.91179,0.26386 -7.89312,1.55918 -11.06962,2.87848 -3.61447,1.50066 -6.67643,4.01453 -8.18189,6.71647 -1.32355,2.37476 -2.62302,4.10185 -2.88773,3.83799 -0.26471,-0.26386 -0.91445,-0.048 -1.44386,0.47974 -0.52942,0.52773 0.12032,-1.41525 1.44386,-4.31773 1.32354,-2.90247 1.7567,-4.84545 0.96258,-4.31773 -0.79413,0.52773 -4.69256,2.4707 -8.66319,4.31773 -3.97062,1.84703 -9.16853,5.73299 -11.5509,8.63546 l -4.33159,5.27723 -0.96258,-3.83798 c -0.52941,-2.11089 -0.74599,-4.26976 -0.48129,-4.79748 0.26471,-0.52772 0.0481,-1.60716 -0.48128,-2.39874 -0.52942,-0.79158 -1.39574,-0.5757 -1.92516,0.47975 -0.52941,1.05544 -1.39573,1.48722 -1.92515,0.95949 -0.52941,-0.52772 -0.96257,-4.62956 -0.96257,-9.1152 0,-4.48565 0.64974,-10.74636 1.44386,-13.91269 0.79413,-3.16634 1.87702,-5.3252 2.40644,-4.79748 0.52942,0.52772 0.746,3.33425 0.48129,6.23672 -0.26471,2.90248 -0.0481,4.84545 0.48129,4.31773 0.52941,-0.52772 3.34495,-2.68659 6.25674,-4.79748 2.91179,-2.11089 5.9439,-4.70153 6.73803,-5.75697 0.79412,-1.05545 1.66044,-1.91899 1.92515,-1.91899 m -37.54045,2.87848 c 0.26471,0 0.26471,1.29532 0,2.87849 -0.26471,1.58317 0.16845,6.76445 0.96258,11.51395 0.79412,4.7495 1.22728,10.57844 0.96257,12.95319 -0.26471,2.37475 -0.26471,5.39717 0,6.71647 0.33883,1.69063 0.19733,1.83264 -0.48129,0.47975 -0.52941,-1.05545 -1.17915,-1.7031 -1.44386,-1.43924 -0.26471,0.26386 -1.99734,-0.59969 -3.8503,-1.919 -1.85296,-1.3193 -4.01876,-3.69405 -4.81288,-5.27722 -0.79413,-1.58317 -1.87702,-2.6626 -2.40644,-2.39874 -0.52942,0.26386 -0.746,0.26386 -0.48129,0 0.26471,-0.26386 -0.16845,-1.55918 -0.96257,-2.87849 -1.15509,-1.91899 -0.77006,-1.91899 1.92515,0 1.85296,1.31931 4.45191,3.90995 5.77545,5.75698 1.32354,1.84703 2.8396,4.00589 3.36902,4.79747 0.52941,0.79159 0.74599,0.14393 0.48128,-1.43924 -0.2647,-1.58317 -0.91444,-4.60558 -1.44386,-6.71647 -0.52942,-2.11089 -1.17915,-7.07628 -1.44386,-11.0342 -0.26471,-3.95792 0.38503,-8.27565 1.44386,-9.59496 1.05883,-1.3193 2.14173,-2.39874 2.40644,-2.39874 m -164.119139,0.9595 c 1.058833,0 7.772799,1.29532 14.919919,2.87849 7.14712,1.58317 15.37715,4.38969 18.28894,6.23672 2.91179,1.84703 4.64442,3.57412 3.8503,3.83798 -0.79413,0.26386 -2.0936,0.048 -2.88773,-0.47975 -0.79412,-0.52772 -4.90913,-2.03892 -9.14447,-3.35823 -4.23533,-1.31931 -10.29955,-2.39874 -13.47605,-2.39874 -3.1765,0 -6.858353,0.43177 -8.181894,0.9595 -1.323542,0.52772 -5.221973,1.39126 -8.663181,1.91899 -3.441208,0.52772 -7.989377,0.52772 -10.107044,0 l -3.850302,-0.9595 10.107044,-2.87849 c 1.852958,-0.52772 4.235332,-2.03892 5.294166,-3.35823 1.058833,-1.31931 2.791469,-2.39874 3.850302,-2.39874 m 176.632619,3.83798 c 0.26471,0 0.26471,0.64766 0,1.43925 -0.26471,0.79158 -0.48129,5.75697 -0.48129,11.0342 0,5.27722 -0.43315,9.37907 -0.96257,9.11521 -0.52942,-0.26386 -1.39574,-3.28628 -1.92515,-6.71647 -0.52942,-3.4302 -0.0963,-8.1797 0.96257,-10.55446 1.05884,-2.37475 2.14173,-4.31773 2.40644,-4.31773 m -164.60042,7.19622 c 2.38237,0.26386 4.115,0.91152 3.8503,1.43924 -0.26471,0.52773 -1.56419,0.74361 -2.88773,0.47975 -1.32354,-0.26386 -2.8396,-0.26386 -3.36901,0 -0.52942,0.26386 -2.04548,0.26386 -3.36902,0 -1.758623,-0.35021 -1.888571,-0.73785 -0.48128,-1.43924 1.05883,-0.52772 3.87436,-0.74361 6.25674,-0.47975 m 209.84148,6.23672 c 0.2647,0 0.2647,0.64766 0,1.43925 -0.26471,0.79158 -1.99735,4.89342 -3.85031,9.11521 l -3.36901,7.67596 -0.48129,-3.35823 c -0.26471,-1.84703 0.16845,-5.08533 0.96258,-7.19622 0.79412,-2.11089 2.52676,-4.70153 3.8503,-5.75698 1.32354,-1.05544 2.62302,-1.91899 2.88773,-1.91899 m 28.87726,2.39874 c 0.79413,0.26386 2.31019,0.91152 3.36902,1.43925 1.05883,0.52772 3.87437,2.03892 6.25674,3.35823 2.38237,1.31931 5.19791,3.47817 6.25674,4.79748 l 1.92515,2.39874 -5.29416,-1.43925 c -2.91179,-0.79158 -5.07759,-1.00747 -4.81288,-0.47974 0.26471,0.52772 2.64708,2.90247 5.29416,5.27722 2.64709,2.37476 5.46262,5.39717 6.25675,6.71647 0.79412,1.31931 1.22728,2.61463 0.96257,2.87849 -0.26471,0.26386 -0.26471,0.91152 0,1.43924 0.26471,0.52773 -0.60161,-0.33582 -1.92515,-1.91899 -1.32354,-1.58317 -3.27276,-3.52614 -4.33159,-4.31773 -1.05883,-0.79158 -2.79147,-2.73456 -3.8503,-4.31773 -1.05884,-1.58317 -3.22463,-4.1738 -4.81288,-5.75697 -1.58825,-1.58317 -5.2701,-3.31026 -8.18189,-3.83799 -2.91179,-0.52772 -5.51075,-1.39126 -5.77546,-1.91899 -0.26471,-0.52772 1.46793,-1.17538 3.85031,-1.43924 2.38237,-0.26386 4.11501,-1.12741 3.8503,-1.91899 -0.26471,-0.79159 0.16845,-1.22336 0.96257,-0.9595 M 86.113748,293.0568 c 1.323542,0.26387 2.839598,0.26387 3.369015,0 0.529417,-0.26386 2.045473,-0.26386 3.369015,0 1.323541,0.26387 3.489336,0.91152 4.812878,1.43925 1.323541,0.52772 2.623014,0.74361 2.887724,0.47975 0.26471,-0.26387 0.69787,-0.26387 0.96258,0 0.26471,0.26386 1.78076,1.55918 3.36901,2.87848 l 2.88773,2.39874 -3.36901,-0.95949 c -1.85296,-0.52773 -6.184553,-1.17539 -9.625761,-1.43925 -3.441208,-0.26386 -7.989378,-0.048 -10.107044,0.47975 -2.117666,0.52772 -5.799518,1.82304 -8.181893,2.87849 -2.382374,1.05544 -5.197908,1.7031 -6.256741,1.43924 -1.188781,-0.29648 -1.373595,-1.21376 -0.481288,-2.39874 0.794125,-1.05544 4.259397,-3.21431 7.700605,-4.79748 3.441208,-1.58316 7.339639,-2.6626 8.66318,-2.39874 M 182.85259,306.01 c 0.52942,1.05544 0.746,2.35076 0.48129,2.87848 -0.26471,0.52773 -0.69786,-0.33582 -0.96257,-1.91899 -0.283,-1.69255 -0.0847,-2.08786 0.48128,-0.95949 m -74.5996,7.67596 c 1.85295,0.52772 4.66849,3.11836 6.25674,5.75698 1.88664,3.13467 2.55371,6.46028 1.92515,9.59495 -0.52942,2.63862 -2.04548,7.38812 -3.36902,10.55445 l -2.40644,5.75698 -1.44386,-3.35824 c -0.79412,-1.84703 -2.0936,-5.30121 -2.88772,-7.67596 -0.79413,-2.37475 -1.22729,-6.04482 -0.96258,-8.15571 0.26471,-2.1109 0.0481,-5.34919 -0.48129,-7.19622 -0.52941,-1.84703 -1.17915,-2.92646 -1.44386,-2.39874 -0.26471,0.52772 -0.69787,0.74361 -0.96258,0.47975 -0.2647,-0.26387 0.16845,-1.3433 0.96258,-2.39874 0.79412,-1.05545 2.95992,-1.48722 4.81288,-0.9595 m 203.10345,1.91899 c 0.26471,0 0.0481,0.64766 -0.48129,1.43925 -0.52942,0.79158 -2.04547,2.51867 -3.36901,3.83798 -1.32355,1.31931 -2.18986,2.83051 -1.92516,3.35823 0.26471,0.52773 1.78077,2.03893 3.36902,3.35824 l 2.88773,2.39874 -9.62576,-0.9595 0.48129,-3.83798 c 0.27337,-2.17997 2.14462,-5.08149 4.33159,-6.71647 2.11766,-1.58317 4.06688,-2.87849 4.33159,-2.87849 m 5.29416,1.91899 c 0.52942,0 1.17916,0.43178 1.44387,0.9595 0.26471,0.52772 0.69786,2.90247 0.96257,5.27723 0.26471,2.37475 0.26471,7.34014 0,11.0342 -0.26471,3.69405 -0.91444,6.93235 -1.44386,7.19621 -0.52942,0.26387 -1.39574,-1.24734 -1.92515,-3.35823 -0.52942,-2.11089 -1.17916,-6.21274 -1.44387,-9.11521 -0.2647,-2.90247 -0.0481,-6.78843 0.48129,-8.63546 0.52942,-1.84703 1.39574,-3.35824 1.92515,-3.35824 m 21.65795,0.47975 c 1.32355,0.26386 3.70592,2.8545 5.29417,5.75698 1.58825,2.90247 2.67115,7.43609 2.40644,10.0747 -0.26471,2.63861 -1.13103,6.52457 -1.92515,8.63546 -0.79413,2.11089 -2.31018,4.48564 -3.36902,5.27723 -1.53819,1.15043 -1.73167,0.86163 -0.96257,-1.43925 0.52941,-1.58316 1.39573,-5.25323 1.92515,-8.15571 0.52942,-2.90247 0.52942,-7.43609 0,-10.0747 -0.52942,-2.63862 -2.04547,-6.0928 -3.36902,-7.67597 -1.92515,-2.30279 -1.92515,-2.78254 0,-2.39874 m -14.43863,0.47975 c 0.26471,0 1.78077,0.86355 3.36902,1.91899 1.58824,1.05545 3.1043,2.35077 3.36901,2.87849 0.26471,0.52772 0.26471,2.90247 0,5.27722 -0.26471,2.37476 -0.26471,4.53362 0,4.79748 0.26471,0.26386 0.0481,0.69564 -0.48129,0.9595 -0.52941,0.26386 -0.52941,0.91152 0,1.43924 0.52942,0.52772 0.0963,0.74361 -0.96257,0.47975 -1.05884,-0.26386 -1.70858,-1.34329 -1.44387,-2.39874 0.26471,-1.05544 0.91445,-2.56665 1.44387,-3.35823 0.52941,-0.79159 0.74599,-2.30279 0.48128,-3.35824 -0.2647,-1.05544 -1.78076,-3.4302 -3.36901,-5.27723 -1.58825,-1.84702 -2.67115,-3.35823 -2.40644,-3.35823 m -233.905869,3.83798 c 0.794125,0 3.609658,0.43178 6.256741,0.9595 2.647083,0.52772 5.029458,1.82304 5.294168,2.87849 0.33016,1.31642 -0.72675,1.6177 -3.369017,0.95949 -2.117666,-0.52772 -4.066881,-0.74361 -4.33159,-0.47975 -0.264708,0.26386 -1.997344,0.048 -3.850302,-0.47974 -1.951141,-0.55555 -2.96377,-1.56494 -2.406439,-2.39874 0.529416,-0.79159 1.612314,-1.43925 2.406439,-1.43925 m 34.652719,0 c 0.26471,0 1.13103,1.51121 1.92515,3.35824 0.79413,1.84703 1.22729,4.65355 0.96258,6.23672 -0.26471,1.58317 -1.13103,4.38969 -1.92515,6.23672 l -1.44387,3.35824 -0.96257,-4.31773 c -0.52942,-2.37476 -0.52942,-6.69249 0,-9.59496 0.52941,-2.90248 1.17915,-5.27723 1.44386,-5.27723 m 174.22618,6.23672 c 2.07917,1.48051 4.10635,5.15346 5.29417,9.59496 1.05883,3.95792 3.22463,8.92331 4.81288,11.0342 1.58825,2.11089 5.91984,5.1333 9.62575,6.71647 3.70592,1.58317 9.55357,2.6626 12.99478,2.39874 l 6.25674,-0.47975 -1.92515,1.91899 c -1.05884,1.05545 -3.65779,2.13488 -5.77546,2.39874 -2.11766,0.26387 -6.44925,0.048 -9.62575,-0.47974 -3.1765,-0.52773 -6.85836,-1.39127 -8.1819,-1.919 -1.32354,-0.52772 -3.70591,-2.90247 -5.29416,-5.27722 -1.58825,-2.37475 -3.75405,-6.90837 -4.81288,-10.07471 -1.05883,-3.16633 -2.79147,-7.69995 -3.8503,-10.0747 -1.05884,-2.37475 -2.14173,-5.18128 -2.40644,-6.23672 -0.30225,-1.20513 0.77198,-1.02666 2.88772,0.47974 m 10.58834,2.39874 c 0.79412,0 -0.0722,0.64766 -1.92515,1.43925 -1.85296,0.79158 -2.5027,0.79158 -1.44387,0 1.05883,-0.79159 2.57489,-1.43925 3.36902,-1.43925 m 43.3159,4.79748 c 0.26471,0 1.13102,2.37475 1.92515,5.27723 0.79412,2.90247 1.87702,5.92488 2.40644,6.71647 0.52942,0.79158 0.74599,1.65513 0.48129,1.91899 -0.26471,0.26386 -0.26471,0.69563 0,0.9595 0.2647,0.26386 0.0481,0.91152 -0.48129,1.43924 -0.52942,0.52772 -0.52942,1.39127 0,1.91899 0.52942,0.52772 0.74599,1.17538 0.48129,1.43924 -0.26471,0.26387 -0.26471,0.91152 0,1.43925 0.2647,0.52772 0.0481,0.52772 -0.48129,0 -0.52942,-0.52773 -1.39574,-0.74361 -1.92515,-0.47975 -0.52942,0.26386 -0.746,0.26386 -0.48129,0 0.26471,-0.26386 0.0481,-0.69563 -0.48129,-0.9595 -0.52941,-0.26386 -0.52941,-0.91152 0,-1.43924 0.52942,-0.52772 0.52942,-0.74361 0,-0.47975 -0.52941,0.26386 -1.61231,0.048 -2.40644,-0.47975 -0.79412,-0.52772 -1.0107,-4.62956 -0.48128,-9.1152 0.52941,-4.48565 1.17915,-8.15572 1.44386,-8.15572 m -160.26884,2.87849 c 1.58825,0 3.97062,0.64766 5.29417,1.43924 1.32354,0.79159 1.97328,1.22336 1.44386,0.9595 -0.52942,-0.26386 -3.77811,-0.47975 -7.21932,-0.47975 -3.44121,0 -5.39042,-0.43177 -4.33159,-0.9595 1.05884,-0.52772 3.22463,-0.95949 4.81288,-0.95949 m -12.51348,8.63546 c 2.11766,0 5.58294,0.43177 7.7006,0.9595 2.11767,0.52772 3.63373,1.17538 3.36902,1.43924 -0.26471,0.26386 -2.86367,1.34329 -5.77546,2.39874 -2.91179,1.05544 -7.67654,1.7031 -10.58833,1.43924 l -5.29416,-0.47975 3.36901,-2.87848 c 1.85296,-1.58317 5.10165,-2.87849 7.21932,-2.87849 m -100.589151,3.35824 c 0.794125,0.26386 2.95992,1.1274 4.812878,1.91899 1.852958,0.79158 5.967969,1.43924 9.144468,1.43924 3.1765,0 5.342295,0.43177 4.812878,0.9595 -0.529416,0.52772 -2.695211,1.17538 -4.812878,1.43924 -2.117666,0.26386 -5.366359,0.048 -7.219317,-0.47975 -1.852958,-0.52772 -4.451912,-2.03893 -5.775453,-3.35823 -1.323542,-1.31931 -1.756701,-2.18286 -0.962576,-1.91899 m 83.262791,-0.47975 c 0.52941,0 0.0962,1.07943 -0.96258,2.39874 -1.05883,1.3193 -3.87437,3.47817 -6.25674,4.79748 -2.38237,1.3193 -4.98133,2.18285 -5.77545,1.91899 -0.79413,-0.26386 1.58825,-2.42273 5.29416,-4.79748 3.70592,-2.37475 7.17119,-4.31773 7.70061,-4.31773 m 205.99118,0.47975 c -0.52942,-0.26387 -1.17916,-0.048 -1.44387,0.47974 -0.26471,0.52773 0.16845,1.17539 0.96258,1.43925 0.79412,0.26386 1.66044,0.26386 1.92515,0 0.26471,-0.26386 1.56418,-0.26386 2.88773,0 1.32354,0.26386 2.18986,0.048 1.92515,-0.47975 -0.26471,-0.52772 -1.34761,-1.17538 -2.40644,-1.43924 -1.05883,-0.26387 -2.14173,-0.26387 -2.40644,0 -0.26471,0.26386 -0.91445,0.26386 -1.44386,0 m 10.10704,-0.47975 c 0.79412,0 2.0936,0.43177 2.88773,0.95949 0.79412,0.52773 0.14438,0.52773 -1.44387,0 -1.58825,-0.52772 -2.23799,-0.95949 -1.44386,-0.95949 m -161.7127,6.71647 c 0.79412,0 2.95992,1.07943 4.81288,2.39874 1.85295,1.3193 3.15243,2.83051 2.88772,3.35823 -0.26471,0.52772 -0.26471,0.74361 0,0.47975 0.26471,-0.26386 1.56419,-0.048 2.88773,0.47975 1.56322,0.62367 1.90012,1.46419 0.96258,2.39874 -0.79413,0.79158 -2.52677,1.22335 -3.85031,0.95949 -1.32354,-0.26386 -3.92249,-2.63861 -5.77545,-5.27722 -1.85296,-2.63862 -2.71928,-4.79748 -1.92515,-4.79748 m -35.13401,8.63546 c 1.58825,0 6.353,2.59064 10.58833,5.75697 4.52796,3.3851 8.89035,5.55932 10.58833,5.27723 1.58825,-0.26386 2.67115,-1.12741 2.40644,-1.91899 -0.26471,-0.79159 -0.69787,-1.87102 -0.96257,-2.39874 -0.26471,-0.52772 0.81818,-1.17538 2.40643,-1.43925 1.58825,-0.26386 3.10431,-0.91152 3.36902,-1.43924 0.26471,-0.52772 0.69787,-0.74361 0.96257,-0.47975 0.26471,0.26386 0.69787,0.26386 0.96258,0 0.26471,-0.26386 1.56419,-0.048 2.88773,0.47975 1.32354,0.52772 4.57223,1.39127 7.21931,1.91899 2.64709,0.52773 6.11236,2.25482 7.70061,3.83799 1.58825,1.58316 3.10431,4.82146 3.36901,7.19621 0.32247,2.89 -0.31476,4.63533 -1.92515,5.27723 -1.44001,0.57378 -2.98591,-0.004 -3.8503,-1.43924 -0.79412,-1.31931 -2.31018,-3.69406 -3.36901,-5.27723 -1.43424,-2.14447 -3.39693,-2.75663 -7.70061,-2.39874 -3.1765,0.26386 -5.55887,0.91152 -5.29417,1.43924 0.26471,0.52773 -0.6016,1.82305 -1.92515,2.87849 -1.50739,1.20129 -2.04643,3.17401 -1.44386,5.27723 0.52942,1.84703 0.52942,3.14235 0,2.87848 -0.52942,-0.26386 -1.82889,-1.55918 -2.88773,-2.87848 -1.05883,-1.31931 -2.79147,-2.83051 -3.8503,-3.35824 -1.05883,-0.52772 -7.12306,-3.33425 -13.47606,-6.23672 -6.353,-2.90247 -11.76748,-6.14077 -12.03219,-7.19622 -0.26471,-1.05544 -1.13103,-1.7031 -1.92515,-1.43924 -0.79413,0.26386 -1.22729,1.99095 -0.96258,3.83798 0.26471,1.84703 0.91445,5.08533 1.44386,7.19622 0.52942,2.11089 1.17916,5.78096 1.44387,8.15571 0.26471,2.37475 -0.16845,4.10185 -0.96258,3.83799 -0.79412,-0.26387 -1.87702,-1.12741 -2.40644,-1.919 -0.52941,-0.79158 -1.39573,-4.89342 -1.92515,-9.1152 -0.52941,-4.22179 -0.52941,-8.7554 0,-10.07471 0.52942,-1.31931 2.69521,-3.26228 4.81288,-4.31773 2.11767,-1.05545 5.14978,-1.91899 6.73803,-1.91899 m 112.62134,12.95319 c 3.70592,3.95792 6.0883,6.98033 5.29417,6.71647 -0.79412,-0.26386 -3.60966,-1.99095 -6.25674,-3.83798 -2.64708,-1.84703 -4.5963,-3.57412 -4.33159,-3.83799 0.26471,-0.26386 0.26471,-0.69563 0,-0.95949 -0.26471,-0.26386 -0.91445,-1.12741 -1.44386,-1.91899 -0.52942,-0.79159 -0.746,-1.87102 -0.48129,-2.39874 0.26471,-0.52772 3.5134,2.2788 7.21931,6.23672 m -160.75012,-5.75697 c 0.52942,0.26386 2.04547,1.34329 3.36901,2.39874 1.32354,1.05544 0.89039,0.83955 -0.96257,-0.47975 -1.85296,-1.31931 -2.93586,-2.18285 -2.40644,-1.91899 m 106.3646,11.51394 c 0.26471,0.26387 1.34761,0.91153 2.40644,1.43925 1.05884,0.52772 2.14173,2.90247 2.40644,5.27722 0.26471,2.37476 -0.16845,5.18128 -0.96257,6.23673 -0.79413,1.05544 -1.01071,1.27133 -0.48129,0.47974 0.52941,-0.79158 0.74599,-2.30279 0.48129,-3.35823 -0.26471,-1.05545 -1.56419,-3.4302 -2.88773,-5.27723 -1.32354,-1.84703 -2.18986,-3.79 -1.92515,-4.31773 0.26471,-0.52772 0.69786,-0.74361 0.96257,-0.47975 m 74.59961,7.19622 c 1.58825,2.63862 3.53747,6.52457 4.33159,8.63546 0.79413,2.11089 2.31018,5.56508 3.36902,7.67597 l 3.8503,7.67596 c 1.25135,2.49469 3.44121,4.17381 6.25674,4.79748 2.38238,0.52773 6.06423,0.74361 8.18189,0.47975 2.11767,-0.26386 5.14978,0.16791 6.73803,0.9595 l 2.88773,1.43924 -3.36902,1.43924 c -1.85295,0.79159 -5.96796,1.22336 -9.14446,0.9595 -3.1765,-0.26386 -7.72467,-1.55918 -10.10705,-2.87849 -2.38237,-1.3193 -5.19791,-4.34172 -6.25674,-6.71647 -1.05883,-2.37475 -2.57489,-6.04482 -3.36901,-8.15571 -0.79413,-2.11089 -2.74334,-6.8604 -4.33159,-10.55445 -1.58825,-3.69406 -2.67115,-6.93236 -2.40644,-7.19622 0.26471,-0.26386 0.26471,-0.69564 0,-0.9595 -0.26471,-0.26386 -0.26471,-0.91152 0,-1.43924 0.26471,-0.52772 1.78076,1.19937 3.36901,3.83798 M 73.600266,388.04688 c 1.614239,0.32143 1.773064,0.63806 0.481287,0.95949 -1.058833,0.26386 -2.14173,0.048 -2.406439,-0.47974 -0.264708,-0.52773 0.60161,-0.74361 1.925152,-0.47975 m 219.467234,3.83798 c 2.38238,2.37475 4.54817,5.39716 4.81288,6.71647 0.26471,1.31931 0.91445,2.18285 1.44386,1.91899 0.52942,-0.26386 0.746,-0.26386 0.48129,0 -0.26471,0.26386 -0.26471,0.91152 0,1.43924 0.26471,0.52773 -0.38503,0.52773 -1.44386,0 -1.05884,-0.52772 -3.22463,-2.90247 -4.81288,-5.27722 -1.58825,-2.37475 -2.67115,-4.53362 -2.40644,-4.79748 0.26471,-0.26386 -0.16845,-1.34329 -0.96258,-2.39874 -0.79412,-1.05544 0.50536,0.024 2.88773,2.39874 m -101.07044,-1.43924 c 1.32354,1.05544 2.62302,2.78253 2.88773,3.83798 0.26471,1.05544 0.69787,3.86197 0.96258,6.23672 0.2647,2.37475 0.2647,4.96539 0,5.75698 -0.26471,0.79158 -0.26471,2.73456 0,4.31773 0.2647,1.58316 0.48128,6.54855 0.48128,11.0342 0,4.48564 -0.64974,9.66692 -1.44386,11.51395 -0.79413,1.84702 -1.22728,2.92646 -0.96258,2.39873 0.26471,-0.52772 0.0481,-3.11836 -0.48128,-5.75697 -0.52942,-2.63861 -1.61232,-4.58159 -2.40644,-4.31773 -0.79413,0.26386 -0.79413,0.048 0,-0.47975 0.79412,-0.52772 1.22728,-1.17538 0.96257,-1.43924 -0.26471,-0.26386 -0.26471,-0.91152 0,-1.43925 0.26471,-0.52772 0.26471,-2.25481 0,-3.83798 -0.27914,-1.66664 -1.89916,-3.28243 -3.8503,-3.83798 l -3.36901,-0.9595 1.44386,-3.35823 c 0.79412,-1.84703 2.0936,-6.81242 2.88773,-11.0342 0.79412,-4.22178 1.22728,-8.32363 0.96257,-9.11521 -0.26471,-0.79159 0.60161,-0.5757 1.92515,0.47975 m 130.91028,4.31773 c 0.26471,0.26386 0.91445,0.26386 1.44387,0 0.52941,-0.26386 0.74599,-0.26386 0.48129,0 -0.26471,0.26386 0.16845,1.34329 0.96257,2.39874 0.79413,1.05544 0.36097,0.83956 -0.96257,-0.47975 l -1.92516,-1.91899 m -116.47164,1.43924 c 0.26471,0 1.56418,1.72709 2.88772,3.83798 1.32355,2.11089 3.48934,5.99685 4.81288,8.63546 1.32354,2.63862 3.27276,5.87692 4.33159,7.19622 1.05884,1.31931 2.35831,2.61463 2.88773,2.87849 0.52942,0.26386 0.31284,0.69563 -0.48129,0.9595 -0.79412,0.26386 -0.36096,1.1274 0.96258,1.91899 l 2.40644,1.43924 -7.70061,0.9595 -0.96257,-5.27723 c -0.52942,-2.90247 -1.61232,-5.709 -2.40644,-6.23672 -0.79413,-0.52773 -1.22729,-0.52773 -0.96258,0 0.26471,0.52772 0.0481,1.60715 -0.48129,2.39874 -0.52941,0.79158 -2.04547,0.57569 -3.36901,-0.47975 -1.32354,-1.05545 -1.97328,-2.35077 -1.44387,-2.87849 0.52942,-0.52772 0.746,-1.17538 0.48129,-1.43924 -0.26471,-0.26386 -0.26471,-0.69564 0,-0.9595 0.26471,-0.26386 0.26471,-0.91152 0,-1.43924 -0.26471,-0.52772 -0.69786,-3.33425 -0.96257,-6.23672 -0.26471,-2.90248 -0.26471,-5.27723 0,-5.27723 m 53.90423,9.59496 c -0.79412,-0.52772 -1.66044,-0.096 -1.92515,0.95949 -0.26471,1.05545 -0.26471,2.13488 0,2.39874 0.26471,0.26386 -0.38503,1.12741 -1.44386,1.91899 -1.41884,1.06121 -1.16568,1.1869 0.96257,0.47975 1.58825,-0.52772 3.10431,-1.82304 3.36902,-2.87849 0.2647,-1.05544 -0.16845,-2.35076 -0.96258,-2.87848 m 17.80765,0.95949 c -0.52942,0 0.12032,0.64766 1.44386,1.43925 1.32354,0.79158 3.48934,1.65513 4.81288,1.91899 1.32354,0.26386 0.6738,-0.3838 -1.44386,-1.43925 -2.11767,-1.05544 -4.28346,-1.91899 -4.81288,-1.91899 m -40.90946,3.35824 c 2.38237,0.26386 4.11501,0.91152 3.8503,1.43924 -0.26471,0.52772 -2.21393,1.17538 -4.33159,1.43925 -2.11767,0.26386 -4.50004,0.048 -5.29417,-0.47975 -0.79412,-0.52773 -0.79412,-1.39127 0,-1.91899 0.79413,-0.52773 3.39308,-0.74361 5.77546,-0.47975 m 110.2149,-0.47975 c 1.05884,0 3.00805,0.64766 4.33159,1.43924 1.82601,1.09191 1.24654,1.32315 -2.40644,0.9595 -2.64708,-0.26386 -4.59629,-0.91152 -4.33159,-1.43924 0.26471,-0.52773 1.34761,-0.9595 2.40644,-0.9595 m -173.74489,2.87849 c 0.2647,0 -0.16845,0.86354 -0.96258,1.91899 -0.79412,1.05544 -2.31018,2.13488 -3.36901,2.39874 -1.28312,0.31951 -1.28312,0.16023 0,-0.47975 1.05883,-0.52772 1.70857,-1.39127 1.44386,-1.91899 -0.26471,-0.52772 -0.26471,-0.74361 0,-0.47975 0.26471,0.26386 0.91445,0.048 1.44386,-0.47975 0.52942,-0.52772 1.17916,-0.95949 1.44387,-0.95949 m -72.19317,8.15571 c 0.79412,0.79158 1.0107,4.89343 0.48129,9.11521 -0.52942,4.22178 -1.39574,7.89185 -1.92515,8.15571 -0.529422,0.26386 -0.746001,-3.83798 -0.481293,-9.11521 0.285885,-5.70036 1.067493,-9.01062 1.925153,-8.15571 m 77.96862,-0.95949 c 0.26471,0.26386 0.69787,0.26386 0.96258,0 0.2647,-0.26387 1.99734,0.38379 3.8503,1.43924 1.85296,1.05544 3.58559,2.35076 3.8503,2.87849 0.26471,0.52772 -0.16845,0.74361 -0.96258,0.47974 -0.79412,-0.26386 -1.66044,-0.91152 -1.92515,-1.43924 -0.2647,-0.52772 -0.69786,-0.74361 -0.96257,-0.47975 -0.26471,0.26386 -1.13103,0.26386 -1.92515,0 -0.79413,-0.26386 -1.87703,-1.12741 -2.40644,-1.91899 -0.52942,-0.79158 -0.746,-1.22336 -0.48129,-0.95949 m 25.98954,2.87848 c 0.26471,0.26386 0.0481,1.99096 -0.48129,3.83799 l -0.96257,3.35823 0.48129,-3.83798 c 0.2647,-2.11089 0.69786,-3.6221 0.96257,-3.35824 m 0.96258,15.83168 c 0.26471,0 1.3476,0.64766 2.40644,1.43924 1.05883,0.79159 1.70857,2.08691 1.44386,2.87849 -0.26471,0.79159 -0.26471,2.08691 0,2.87849 0.26471,0.79158 1.34761,3.59811 2.40644,6.23672 l 1.92515,4.79748 -2.40644,-1.43924 c -1.32354,-0.79159 -3.48934,-2.51868 -4.81288,-3.83799 -1.32354,-1.3193 -2.8396,-3.69406 -3.36901,-5.27722 -0.52942,-1.58317 -0.31284,-3.95792 0.48129,-5.27723 0.79412,-1.31931 1.66044,-2.39874 1.92515,-2.39874 m 140.53603,14.39244 c -0.2647,0 -0.91444,0.43177 -1.44386,0.95949 -0.52942,0.52773 -1.17915,0.74361 -1.44386,0.47975 -0.26471,-0.26386 -0.26471,-0.048 0,0.47975 0.26471,0.52772 0.91444,1.60715 1.44386,2.39874 0.52942,0.79158 1.17916,1.00747 1.44386,0.47975 0.26471,-0.52773 0.69787,-0.74361 0.96258,-0.47975 0.26471,0.26386 0.91445,-0.16791 1.44386,-0.9595 0.52942,-0.79158 0.52942,-1.22336 0,-0.95949 -0.52941,0.26386 -1.17915,0.26386 -1.44386,0 -0.26471,-0.26387 -0.69787,-0.26387 -0.96258,0 -0.2647,0.26386 -0.2647,-0.16792 0,-0.9595 0.26471,-0.79158 0.26471,-1.43924 0,-1.43924 M 308.95,457.61032 c -0.52942,0 -1.17916,0.64765 -1.44386,1.43924 -0.26471,0.79158 -0.0481,2.30279 0.48128,3.35823 0.52942,1.05545 0.52942,4.07786 0,6.71647 l -0.96257,4.79748 1.92515,-3.83798 c 1.05883,-2.11089 1.70857,-5.78096 1.44386,-8.15571 -0.26471,-2.37476 -0.91444,-4.31773 -1.44386,-4.31773 m 12.99477,8.15571 c -0.26471,-0.26386 -0.69787,-0.048 -0.96258,0.47975 -0.2647,0.52772 -0.69786,1.17538 -0.96257,1.43924 -0.26471,0.26386 -0.0481,0.69563 0.48129,0.9595 0.52941,0.26386 0.74599,0.69563 0.48128,0.95949 -0.2647,0.26386 0.16845,0.048 0.96258,-0.47975 0.79412,-0.52772 1.66044,-0.31183 1.92515,0.47975 0.26471,0.79159 0.0481,1.22336 -0.48129,0.9595 -0.52941,-0.26386 -1.17915,-0.048 -1.44386,0.47974 -0.26471,0.52773 -0.0481,0.74361 0.48129,0.47975 0.52941,-0.26386 1.17915,-0.048 1.44386,0.47975 0.26471,0.52772 0.26471,1.17538 0,1.43924 -0.26471,0.26387 -0.0481,0.26387 0.48129,0 0.52941,-0.26386 1.17915,-0.26386 1.44386,0 0.26471,0.26387 0.69787,0.26387 0.96258,0 0.26471,-0.26386 1.78076,0.59969 3.36901,1.919 1.58825,1.3193 4.18721,2.18285 5.77546,1.91899 1.67199,-0.27826 2.07723,-0.68124 0.96257,-0.9595 -1.05883,-0.26386 -3.44121,-1.55918 -5.29416,-2.87849 -1.85296,-1.3193 -4.6685,-3.47817 -6.25675,-4.79747 -1.58825,-1.31931 -3.1043,-2.61463 -3.36901,-2.87849 m 17.80765,1.43924 c -1.58825,-0.52772 -2.45457,-0.31183 -1.92515,0.47975 0.52941,0.79158 1.17915,1.22336 1.44386,0.9595 0.26471,-0.26387 1.34761,0.59968 2.40644,1.91899 1.54012,1.91899 1.82889,1.91899 1.44386,0 -0.26471,-1.31931 -1.78076,-2.83052 -3.36901,-3.35824 m -127.54127,2.87849 c 0.26471,0 0.26471,0.21589 0,0.47975 -0.26471,0.26386 -0.26471,1.34329 0,2.39874 0.26471,1.05544 0.91445,2.56665 1.44386,3.35823 0.52942,0.79159 0.746,1.65513 0.48129,1.91899 -0.26471,0.26386 -0.26471,0.69564 0,0.9595 0.26471,0.26386 0.0481,1.34329 -0.48129,2.39874 -0.52941,1.05544 -2.04547,2.13488 -3.36901,2.39874 -1.32354,0.26386 -3.9225,0.048 -5.77545,-0.47975 -1.85296,-0.52772 -5.75139,-1.17538 -8.66318,-1.43924 -2.9118,-0.26387 -6.37707,0.16791 -7.70061,0.95949 -1.32354,0.79159 -3.27276,1.22336 -4.33159,0.9595 -1.05883,-0.26386 -2.35831,-1.12741 -2.88773,-1.91899 -0.52941,-0.79159 -0.74599,-2.51868 -0.48128,-3.83799 0.28588,-1.42389 0.87209,-1.8144 1.44386,-0.95949 0.52942,0.79158 1.39573,0.57569 1.92515,-0.47975 0.52942,-1.05545 2.04547,-2.78254 3.36901,-3.83798 1.32355,-1.05545 2.8396,-1.70311 3.36902,-1.43925 0.52942,0.26386 1.61231,0.91152 2.40644,1.43925 0.79412,0.52772 2.95992,1.60715 4.81288,2.39874 2.01082,0.85874 4.14485,0.66589 5.29416,-0.47975 1.05884,-1.05545 2.79147,-2.13488 3.8503,-2.39874 1.05884,-0.26386 2.57489,-0.91152 3.36902,-1.43925 0.79412,-0.52772 1.66044,-0.95949 1.92515,-0.95949 m -5.77545,5.75697 c -0.26471,0 -0.26471,0.43178 0,0.9595 0.26471,0.52772 1.13102,1.39127 1.92515,1.91899 0.79412,0.52772 0.79412,0.0959 0,-0.9595 -0.79413,-1.05544 -1.66044,-1.91899 -1.92515,-1.91899 m -67.3803,18.23042 c 0.26471,0 0.48129,2.80653 0.48129,6.23672 0,3.4302 -0.43316,6.88439 -0.96257,7.67597 -0.55733,0.8338 -1.36782,0.0259 -1.92515,-1.91899 -0.52942,-1.84703 -0.746,-4.0059 -0.48129,-4.79748 l 1.44386,-4.31773 c 0.52942,-1.58317 1.17916,-2.87849 1.44386,-2.87849 m -23.10181,13.43294 c -0.26471,0 -1.13103,0.43177 -1.92515,0.9595 -0.79413,0.52772 -1.66044,1.39127 -1.92515,1.91899 -0.26471,0.52772 0.60161,0.096 1.92515,-0.9595 1.32354,-1.05544 2.18986,-1.91899 1.92515,-1.91899 m 148.71793,7.67597 c -0.52942,-1.58317 -0.746,-0.71962 -0.48129,1.91899 0.26471,2.63861 0.69787,3.93393 0.96258,2.87849 0.26471,-1.05545 0.0481,-3.21432 -0.48129,-4.79748 m -11.06962,25.90638 c -1.67199,-0.66685 -4.31619,0.79734 -8.66318,4.79748 8.66318,-4.79748 8.66318,-4.79748 15.8825,-0.47975 -0.52942,-0.26386 -1.8289,-1.12741 -2.88773,-1.91899 -1.05883,-0.79158 -3.00805,-1.87102 -4.33159,-2.39874"
     fill-rule="evenodd"
     id="path4"
     style="stroke-width:0.961034" />
  <metadata
     id="metadata6">
    <rdf:RDF>
      <cc:Work
         rdf:about="">
        <dc:title>undefined</dc:title>
      </cc:Work>
    </rdf:RDF>
  </metadata>
</svg>
