<?xml version="1.0" encoding="UTF-8"?>
<svg width="426.41" height="556" version="1.1" viewbox="0 0 497 600" xmlns="http://www.w3.org/2000/svg" xmlns:cc="http://creativecommons.org/ns#" xmlns:dc="http://purl.org/dc/elements/1.1/" xmlns:rdf="http://www.w3.org/1999/02/22-rdf-syntax-ns#">
 <title>undefined</title>
 <path d="m36.706 0c-1.1 0-5.6 1.8-10 4s-8.9 5.575-10 7.5l-6 10.5c-2.2 3.85-4.675 9.7-5.5 13s-1.725 8.475-2 11.5-0.725 7.525-1 10-0.5 6.75-0.5 9.5-0.225 7.025-0.5 9.5-0.725 9.45-1 15.5-0.275 13.025 0 15.5l1.5 13.5c0.55 4.95 1 12.15 1 16s0.45 9.25 1 12 0.775 9.5 0.5 15-0.725 12.025-1 14.5-0.275 5.4 0 6.5 0.275 2.45 0 3 0.85 2.125 2.5 3.5c2.18 1.817 2.453 2.773 1 3.5-1.1 0.55-2.225 0.775-2.5 0.5s-0.5 1.75-0.5 4.5 0.225 7.025 0.5 9.5 1.175 8.55 2 13.5 2.4 11.25 3.5 14 3.575 8.6 5.5 13 5.3 11.15 7.5 15l6 10.5c1.1 1.925 3.125 4.625 4.5 6l6 6c1.925 1.925 4.175 5.975 5 9s1.275 7.075 1 9-0.275 5.525 0 8 1.175 9.225 2 15 0.825 14.55 0 19.5-1.725 13.275-2 18.5-0.5 14.225-0.5 20 1.125 14.1 2.5 18.5 4.525 12.95 7 19 5.625 13.25 7 16 4.75 8.375 7.5 12.5l9 13.5c2.2 3.3 5.125 8.475 6.5 11.5s3.4 6.625 4.5 8 2.675 5.875 3.5 10 1.95 7.275 2.5 7 1.45-2.525 2-5c0.567-2.55 2.516-5.367 4.5-6.5l3.5-2-2.5-0.5c-1.375-0.275-2.95-0.275-3.5 0s-1.225-1.525-1.5-4-0.725-4.95-1-5.5 0.175-2.35 1-4 2.175-3.9 3-5-0.3-0.65-2.5 1-4.45 3.225-5 3.5-0.775 0.05-0.5-0.5 0.95-2.125 1.5-3.5 1.45-4.75 2-7.5l1.5-7.5c0.275-1.375 0.275-3.4 0-4.5s-0.275-2.225 0-2.5 0.275-0.725 0-1 0.4-2.75 1.5-5.5 3.35-6.8 5-9 3.45-4.675 4-5.5 0.1-1.725-1-2c-1.361-0.34-1.042-1.139 1-2.5 1.65-1.1 3.225-2.45 3.5-3s-0.85-1.9-2.5-3l-3-2 2-3.5c1.1-1.925 3.575-3.95 5.5-4.5s4.4-1.225 5.5-1.5c1.369-0.342 1.054-1.288-1-3l-3-2.5 3.5-0.5c1.925-0.275 4.175-0.275 5 0s0.375-0.85-1-2.5-3.4-3.675-4.5-4.5c-1.509-1.132-1.387-1.623 0.5-2 1.375-0.275 4.975 0.625 8 2s7.75 3.85 10.5 5.5 5.45 3.45 6 4 0.55 1.9 0 3-1.9 2.9-3 4-1.55 2.45-1 3 0.775 1.225 0.5 1.5 0.4 1.625 1.5 3 2.45 4.075 3 6 0.55 3.275 0 3-2.125 0.4-3.5 1.5-2.95 2.675-3.5 3.5-0.55 1.95 0 2.5 1.225 0.55 1.5 0 0.95-0.775 1.5-0.5 1.225 0.275 1.5 0 0.725 0.175 1 1-0.4 2.85-1.5 4.5c-1.21 1.815-1.407 5.37-0.5 9 0.825 3.3 2.175 6.675 3 7.5 0.99 0.99 0.31 2.52-2 4.5-1.925 1.65-3.725 4.125-4 5.5-0.297 1.484 0.516 2.703 2 3l2.5 0.5-4.5 4.5c-2.475 2.475-4.275 5.4-4 6.5s1.175 1.55 2 1 3.075-1.45 5-2l3.5-1-1.5 3.5c-0.825 1.925-1.95 5.3-2.5 7.5s-2.575 7.825-4.5 12.5-3.725 9.85-4 11.5-0.05 5.25 0.5 8 0.775 5.225 0.5 5.5-0.275 0.725 0 1 0.275 2.075 0 4-0.05 3.95 0.5 4.5 1.225 0.55 1.5 0 2.075-1.9 4-3c2.512-1.435 3.923-4.117 5-9.5l1.5-7.5 1 3.5c0.55 1.925 1.675 4.625 2.5 6 1.2 2 1.7 2 2.5 0 0.55-1.375 1.45-3.85 2-5.5s2.125-3.675 3.5-4.5 2.95-1.725 3.5-2 1.225-0.275 1.5 0 1.175 0.05 2-0.5 1.95 0.125 2.5 1.5 0.775 2.725 0.5 3-0.275 0.725 0 1 0.05 2.075-0.5 4l-1 3.5 2.5-2c1.375-1.1 3.4-3.125 4.5-4.5l2-2.5v10l1.5-2.5c0.825-1.375 2.175-3.4 3-4.5s2.175-1.55 3-1 2.625 0.1 4-1 3.4-1.55 4.5-1c1.373 0.686 2.47-0.255 3.5-3 0.825-2.2 1.95-5.35 2.5-7l1-3 2.5 7.5c1.375 4.125 2.95 7.275 3.5 7l2-1c0.55-0.275 1.225-0.275 1.5 0s0.95 0.275 1.5 0 1.225-0.275 1.5 0 0.05-0.85-0.5-2.5-1.675-3.45-2.5-4-0.825-1.9 0-3 2.85-2.45 4.5-3l3-1 2 4.5c1.1 2.475 3.35 7.65 5 11.5l3 7 1.5-2.5c0.825-1.375 2.175-2.95 3-3.5s1.05-1.9 0.5-3-0.55-1.775 0-1.5 1.45 0.275 2 0 1.45-0.05 2 0.5 0.775 0.55 0.5 0 0.85-0.1 2.5 1 3.225 1.775 3.5 1.5 1.175-0.275 2 0 1.275-0.85 1-2.5-0.05-3.225 0.5-3.5 1.45 1.075 2 3 2.8 5.3 5 7.5 4.45 4.225 5 4.5 2.35 1.85 4 3.5 3.675 3.45 4.5 4 0.825-1.475 0-4.5-2.85-8.2-4.5-11.5-3.45-7.8-4-10-1.9-5.575-3-7.5-4.7-7.325-8-12-6.9-9.85-8-11.5-1.775-3.45-1.5-4 3.425 2.15 7 6 6.95 7.45 7.5 8 0.775 1.225 0.5 1.5-0.05 0.725 0.5 1 2.125 1.85 3.5 3.5 2.95 3.225 3.5 3.5 0.55-1.3 0-3.5-1.45-5.575-2-7.5-1.9-4.625-3-6-2.225-3.175-2.5-4-0.275-1.725 0-2 0.05-0.725-0.5-1-0.55-0.725 0-1 1.45-0.275 2 0 1.45 0.275 2 0 1.675-0.05 2.5 0.5 2.175 1.225 3 1.5-0.525-2.875-3-7-4.725-8.4-5-9.5-0.275-2.225 0-2.5-0.625-2.75-2-5.5l-2.5-5 4 1.5c2.2 0.825 5.125 1.275 6.5 1 2-0.4 2-1.1 0-3.5-1.375-1.65-2.725-3.45-3-4s-0.05-2.8 0.5-5 0.1-5.8-1-8-1.775-4.225-1.5-4.5 0.725-0.275 1 0 1.85 0.275 3.5 0 3.225-0.275 3.5 0 0.275 0.05 0-0.5-1.625-1.45-3-2-2.275-1.225-2-1.5 0.275-0.725 0-1-0.275-2.525 0-5 0.275-4.95 0-5.5l-1-2c-0.275-0.55 0.175-0.775 1-0.5s1.95 0.05 2.5-0.5 1.225-0.775 1.5-0.5 0.725 0.05 1-0.5 2.75-1.45 5.5-2 7.025-1.225 9.5-1.5 5.175-0.95 6-1.5 2.85-0.775 4.5-0.5 3.225 0.95 3.5 1.5 0.05 1.45-0.5 2-0.325 1.9 0.5 3 2.625 2.675 4 3.5 3.175 2.4 4 3.5 1.275 2.225 1 2.5 0.4 2.525 1.5 5 2.9 9 4 14.5 3.35 12.475 5 15.5c2.201 4.035 3.133 4.834 3.5 3 0.275-1.375 0.275-2.725 0-3s-0.275-0.725 0-1 0.05-1.4-0.5-2.5-0.775-2.225-0.5-2.5 0.275-2.525 0-5-0.725-6.075-1-8-0.05-3.725 0.5-4 1.225-1.4 1.5-2.5-0.175-4.7-1-8-2.175-7.8-3-10-2.85-5.35-4.5-7-2.325-2.775-1.5-2.5 1.725 0.275 2 0 1.85 1.075 3.5 3c1.7 1.984 4.083 9.133 5.5 16.5 1.375 7.15 2.725 17.05 3 22s1.175 11.25 2 14 1.725 5.675 2 6.5 0.275 1.725 0 2 0.175 2.75 1 5.5 1.725 5.45 2 6 0.275 1.225 0 1.5-0.05 0.725 0.5 1 1.225 0.05 1.5-0.5 0.05-0.775-0.5-0.5-0.55 0.05 0-0.5 2.125-0.1 3.5 1 2.95 1.55 3.5 1 0.1-2.35-1-4-1.775-3.675-1.5-4.5 1.175 0.075 2 2 1.275 3.725 1 4 0.175 0.275 1 0 1.95 0.175 2.5 1 1.225 1.275 1.5 1-0.4-1.625-1.5-3-1.775-2.725-1.5-3-0.4-2.075-1.5-4-1.775-3.725-1.5-4 0.05-1.4-0.5-2.5-0.775-2.225-0.5-2.5-0.85-2.75-2.5-5.5c-2.128-3.547-2.419-5.291-1-6 1.1-0.55 1.775-0.55 1.5 0s0.4 1.45 1.5 2c1.333 0.667 1.333-0.167 0-2.5-1.1-1.925-1.775-3.95-1.5-4.5s3.2 0.125 6.5 1.5 7.125 3.4 8.5 4.5c1.417 1.133 1.85 2.433 1 3-0.825 0.55 2.55 0.775 7.5 0.5s9.45-0.05 10 0.5 1.225 0.325 1.5-0.5 0.05-2.85-0.5-4.5-2.575-3.45-4.5-4-7.1-1-11.5-1c-4.65 0-9.256-1.047-11-2.5l-3-2.5 5 1c2.75 0.55 9.05 0.775 14 0.5s10.35 0.175 12 1c1.905 0.952 3.183 0.77 3.5-0.5 0.275-1.1 0.725-2.225 1-2.5s-0.4-0.95-1.5-1.5c-1.453-0.727-1.18-1.683 1-3.5 1.65-1.375 3.45-4.3 4-6.5l1-4-7.5-3c-4.125-1.65-9.75-3.225-12.5-3.5s-6.8-0.05-9 0.5-4.9 0.55-6 0-1.775-1.225-1.5-1.5 0.275-0.725 0-1 0.625-0.05 2 0.5 4.525-0.125 7-1.5 6.075-3.175 8-4 3.275-1.95 3-2.5-2.75-1.45-5.5-2-5.9-1.9-7-3-1.775-2.225-1.5-2.5 0.05-0.95-0.5-1.5 0.35-0.1 2 1 6.6 2.675 11 3.5 7.775 1.95 7.5 2.5 0.175 0.775 1 0.5 3.75 0.4 6.5 1.5l5 2-3 0.5c-1.65 0.275-3.225 0.275-3.5 0s-3.2 0.625-6.5 2-6.225 2.725-6.5 3 3.1 1.4 7.5 2.5 8.675 2.675 9.5 3.5c1.023 1.023 1.659-0.091 2-3.5 0.275-2.75 1.175-6.8 2-9s1.275-5.575 1-7.5-1.4-3.725-2.5-4c-1.158-0.29-1.79 0.342-1.5 1.5 0.275 1.1 0.05 1.775-0.5 1.5s-1.45-0.05-2 0.5-3.475 0.55-6.5 0-7.525-0.775-10-0.5-5.4-0.175-6.5-1c-1.565-1.174-1.021-1.609 2.5-2 2.475-0.275 6.3-0.95 8.5-1.5s5.8-0.1 8 1 4.225 1.775 4.5 1.5 0.05-0.95-0.5-1.5-0.55-0.775 0-0.5-0.125-0.4-1.5-1.5-4.975-2-8-2c-3.949 0-4.936-0.423-3.5-1.5 1.1-0.825 5.15-1.725 9-2s7.9 0.175 9 1 2.225 1.725 2.5 2 0.275 0.725 0 1 0.4 0.275 1.5 0c1.133-0.283 2-2.883 2-6 0-3.025-1.125-7.975-2.5-11s-2.725-5.725-3-6-0.275-0.725 0-1 0.05-0.725-0.5-1-1.9-2.3-3-4.5-1.775-5.575-1.5-7.5 0.95-4.175 1.5-5-0.35-3.525-2-6-5.025-6.525-7.5-9-6.75-7.65-9.5-11.5c-3.036-4.25-7.16-7.982-10.5-9.5-3.025-1.375-8.65-2.95-12.5-3.5s-8.125-0.775-9.5-0.5c-1.919 0.384-2.152 0.036-1-1.5 0.825-1.1 3.75-2.45 6.5-3s8.6 0.125 13 1.5 9.8 4.075 12 6 5.35 5.3 7 7.5 3.45 4.9 4 6 0.775 2.225 0.5 2.5 0.4 2.3 1.5 4.5 4.7 6.025 8 8.5 5.775 3.6 5.5 2.5-0.725-2.225-1-2.5-0.275-0.95 0-1.5 0.275-1.675 0-2.5-0.05-5.1 0.5-9.5 1.45-12.05 2-17c0.583-5.243 0.165-10.044-1-11.5-1.1-1.375-4.475-3.4-7.5-4.5s-5.95-2.675-6.5-3.5c-0.578-0.866 0.479-1.289 2.5-1 1.925 0.275 4.625 0.275 6 0s3.625-0.05 5 0.5 3.4 3.025 4.5 5.5 2 6.975 2 10-0.45 8.2-1 11.5-1 8.925-1 12.5 0.9 9.65 2 13.5 1.775 7.675 1.5 8.5-0.275 1.725 0 2 0.05 0.725-0.5 1-2.35 0.275-4 0-2.775-0.05-2.5 0.5-0.625 0.775-2 0.5-0.7 0.175 1.5 1 4.225 2.4 4.5 3.5 0.95 2.225 1.5 2.5 1.225 2.525 1.5 5-0.175 8.325-1 13-1.725 10.525-2 13-0.95 6.3-1.5 8.5-1.9 8.05-3 13-4.025 14.175-6.5 20.5-4.95 13.075-5.5 15-1.9 5.3-3 7.5-2.225 4.225-2.5 4.5-0.275 0.725 0 1-0.625 2.75-2 5.5-2.95 5.675-3.5 6.5-1.225 3.075-1.5 5-0.95 4.625-1.5 6-1.675 2.95-2.5 3.5-4.2 2.125-7.5 3.5-7.125 3.4-8.5 4.5-3.4 3.8-4.5 6-2.225 6.25-2.5 9-1.625 8.825-3 13.5-2.95 9.85-3.5 11.5c-0.573 1.72-2.494 3.213-4.5 3.5-1.925 0.275-3.725 0.275-4 0s-0.275-0.05 0 0.5-0.175 1.225-1 1.5-2.625 0.275-4 0-4.3 1.3-6.5 3.5c-2.648 2.648-6.366 4.338-11 5-3.85 0.55-9.25 0.55-12 0s-6.575-1.675-8.5-2.5-4.175-1.275-5-1-4.65-0.625-8.5-2-7.675-2.05-8.5-1.5c-0.89 0.594 0.532 2.626 3.5 5 2.75 2.2 7.25 5.35 10 7-5.5-1-5-10.5 14.5 2-4.125-2.75-7.275-5.45-7-6s2.3-0.1 4.5 1 10.3 4.25 18 7c16.528-5.4167 28.837-13.616 40.441-24.4 2.6085-2.4244-0.28554-14.426 2.2916-17.109 2.9606-3.0826 4.7761-12.533 7.878-15.498 3.5363-3.3802 12.481-5.5857 15.896-8.7478 2.5268-2.3401 7.0372-6.7738 7.0372-6.7738s3.8055-19.192 9.131-27.339c3.2546-4.9787 4.9234-15.547 6.9115-20.879 3.4611-6.9841 4.1492-17.818 7.1427-21.776l5.5931-32.809s0.6904-23.641 1.6456-28.951c2.6246-4.9804-1.3921-10.718-2.9956-16.006-2.0352-6.7124-2.1005-12.702-0.79375-15.503 3.6789-7.8866 1.0867-17.863 4.711-23.752 45.823-86.077 21.515-70.975 13.611-31.955-0.396 2.772-3.564-1.584 0 0 8-25-5.445 6.6127-14.5 13.5-0.55 0.55-0.1-0.8 1-3s2.9-5.35 4-7l6-9c2.2-3.3 4.9-7.575 6-9.5 1.64-3.3952 4.2599-6.4191 5.5-10 0.275-0.825 0.05-2.175-0.5-3s-0.55-1.275 0-1 0.775-0.625 0.5-2 0.4-3.85 1.5-5.5 2.9-8.4 4-15 2.45-11.325 3-10.5 0.275-2.475 0 0l-6.5-9.5c-1.925 0.55-3.95 0.325-4.5-0.5s-0.775-3.3-0.5-5.5c0.297-2.375 1.922-4.813 4-6l3.5-2-0.5-15c-0.275-8.25 0.175-19.05 1-24s2.175-11.25 3-14 1.725-6.35 2-8 0.275-5.025 0-7.5-0.5-8.325-0.5-13 0.225-10.525 0.5-13 0.05-6.3-0.5-8.5-1.45-6.25-2-9-1-7.475-1-10.5-0.9-9.1-2-13.5-4.025-11.6-6.5-16-5.625-9.35-7-11-4.3-4.35-6.5-6-6.7-3.675-10-4.5-8.025-1.275-10.5-1-9.225 3.2-15 6.5-13.425 8.925-17 12.5-9.65 10.55-13.5 15.5-8.35 11.025-10 13.5-4.575 6.975-6.5 10-4.4 7.3-5.5 9.5l-6.5 13c-2.475 4.95-7.425 16.425-11 25.5s-7.625 19.2-9 22.5-3.4 8.25-4.5 11-2.45 6.575-3 8.5-1.225 5.525-1.5 8-1.85 5.4-3.5 6.5-7.275 3.125-12.5 4.5-11.75 2.5-14.5 2.5-10.85 1.125-18 2.5-15.475 2.275-18.5 2-7.3-0.95-9.5-1.5-6.025-0.775-8.5-0.5-6.3 0.95-8.5 1.5-8.725 0.55-14.5 0-11.625-0.325-13 0.5c-1.796 1.078-3.626 0.515-6.5-2-2.2-1.925-4.225-5.075-4.5-7s-0.05-5.3 0.5-7.5 0.325-7.375-0.5-11.5-2.4-9.3-3.5-11.5-2.45-6.475-3-9.5-2.575-8.65-4.5-12.5-4.175-8.575-5-10.5-3.3-8.225-5.5-14-5.575-12.975-7.5-16-5.525-8.875-8-13-7.425-12.225-11-18-8.075-12.075-10-14l-6.5-6.5c-1.65-1.65-6.15-5.475-10-8.5s-9.25-7.075-12-9-8.375-4.4-12.5-5.5-8.4-2-9.5-2m311 72c0.55 0 0.775 0.675 0.5 1.5s-2.075 2.4-4 3.5l-3.5 2 3-3.5c1.65-1.925 3.45-3.5 4-3.5m-278.5 13.5c0.825 0.825 3.3 2.625 5.5 4s3.55 3.175 3 4-2.8 0.6-5-0.5c-2.418-1.209-4.198-3.384-4.5-5.5-0.335-2.348-6e-3 -3.006 1-2m283.5 1c1.1 0.275 2.9 1.175 4 2 1.599 1.199 1.097 1.801-2.5 3-2.475 0.825-5.175 2.4-6 3.5s-3.525 3.35-6 5-4.275 2.775-4 2.5 2.075-3.2 4-6.5 4.625-6.9 6-8 3.4-1.775 4.5-1.5m-24 9.5c0.55 0 0.55 1.125 0 2.5s-2.35 3.625-4 5-3.225 2.275-3.5 2 1.075-2.525 3-5 3.95-4.5 4.5-4.5m-268 9c2.2 1.65 3.1 2.775 2 2.5s-2.9-1.625-4-3c-1.292-1.615-0.585-1.438 2 0.5m291-2.5 2 1c0.55 0.275 0.55 0.725 0 1s-1.45-0.175-2-1-0.55-1.275 0-1m11.5 2c0.275 0.275 0.05 2.075-0.5 4s-2.575 5.975-4.5 9-3.725 7.525-4 10l-0.5 4.5 2-3.5c1.187-2.078 2.406-2.891 3-2 0.55 0.825 0.775 3.075 0.5 5s-0.05 5.075 0.5 7 1.675 6.875 2.5 11 1.275 8.175 1 9-1.175 2.625-2 4-1.95 4.075-2.5 6-0.775 3.95-0.5 4.5 0.275 2.35 0 4-1.85 5.7-3.5 9-4.125 6.675-5.5 7.5-4.75 1.275-7.5 1-6.125-0.95-7.5-1.5-3.4-1.225-4.5-1.5-2.45-3.2-3-6.5-1.225-5.775-1.5-5.5-2.3 0.95-4.5 1.5-3.55 0.55-3 0 1.675-3.925 2.5-7.5 1.95-8.075 2.5-10 0.775-4.175 0.5-5 0.175-2.4 1-3.5 3.525-3.575 6-5.5 4.725-3.95 5-4.5-0.175-0.775-1-0.5-1.275 0.275-1 0 0.05-1.4-0.5-2.5-0.775-3.125-0.5-4.5 2.075-3.175 4-4 3.05-1.95 2.5-2.5-0.325-1.45 0.5-2 2.175-2.35 3-4 1.95-2.55 2.5-2 0.775 2.35 0.5 4-0.05 2.775 0.5 2.5 1.9-3.65 3-7.5c1.503-5.259 3.368-7.995 7.5-11 3.025-2.2 5.725-4.675 6-5.5s0.725-1.275 1-1m-289 8.5c1.925 0 3.275 0.45 3 1s-0.725 3.025-1 5.5-0.275 5.175 0 6 0.275 1.95 0 2.5-0.275 0.775 0 0.5 0.725-0.05 1 0.5-0.4 1.225-1.5 1.5-3.35-0.85-5-2.5-3.45-3.675-4-4.5-0.775-1.275-0.5-1 0.725 0.275 1 0 0.05-0.725-0.5-1-0.775-0.95-0.5-1.5 1.4-2.35 2.5-4 3.575-3 5.5-3m9.5 2c0.55 0 1.675 1.35 2.5 3s2.175 3.45 3 4c0.85 0.567 0.633 1.217-0.5 1.5-1.1 0.275-3.125 0.05-4.5-0.5-1.559-0.624-2.312-2.318-2-4.5 0.275-1.925 0.95-3.5 1.5-3.5m-4 8c0.55 1.1 2.125 2.675 3.5 3.5s4.075 2.625 6 4 4.625 4.975 6 8c2 4.4 2 5.2 0 4-1.375-0.825-2.95-1.275-3.5-1s0.125 1.85 1.5 3.5 4.3 4.8 6.5 7 3.775 4.45 3.5 5-1.175 1.45-2 2-1.275 1.225-1 1.5 0.275 0.725 0 1-0.275 1.175 0 2 0.95 2.175 1.5 3 0.775 1.725 0.5 2 0.4 1.85 1.5 3.5 1.775 3.225 1.5 3.5-0.275 0.95 0 1.5 0.275 0.775 0 0.5-0.725 0.175-1 1-0.725 1.05-1 0.5-0.95-0.325-1.5 0.5-1.675 3.075-2.5 5l-1.5 3.5-5-1c-2.75-0.55-4.775-0.55-4.5 0s2.3 2.35 4.5 4l4 3-6 1c-3.3 0.55-7.575 0.325-9.5-0.5s-3.725-2.175-4-3-0.05-1.275 0.5-1 0.55-0.4 0-1.5-0.55-4.025 0-6.5l1-4.5-4-0.5c-2.2-0.275-5.575-1.85-7.5-3.5-2.058-1.764-4.118-5.884-5-10-0.825-3.85-1.275-7.9-1-9 0.342-1.369 0.815-1.212 1.5 0.5 0.55 1.375 2.125 5.425 3.5 9s2.95 6.275 3.5 6 0.55-2.3 0-4.5-0.55-5.35 0-7 0.55-4.125 0-5.5-0.55-4.075 0-6 0.55-4.85 0-6.5-0.325-2.55 0.5-2 2.175 2.125 3 3.5 1.725 1.825 2 1-0.4-3.075-1.5-5l-2-3.5 3-1.5c1.65-0.825 3.45-2.625 4-4s0.775-3.85 0.5-5.5c-0.294-1.764-0.088-2.176 0.5-1m278.5 27.5c-0.354-3.19-0.937-1.735-2 5-0.825 5.225-2.175 11.075-3 13s-1.725 3.725-2 4 0.4 0.05 1.5-0.5 2.9-4.6 4-9 1.775-10.025 1.5-12.5m35 13.5c0.275 0 0.275 1.125 0 2.5s-1.4 4.075-2.5 6c-1.333 2.333-1.333 1.5 0-2.5 1.1-3.3 2.225-6 2.5-6m-263.5 6.5c3.85 0.275 8.575 1.175 10.5 2s4.625 2.625 6 4 2.05 2.275 1.5 2-2.125-0.275-3.5 0-4.525 0.275-7 0-4.95-0.275-5.5 0-1.225 0.275-1.5 0-0.725-0.275-1 0-0.95 0.05-1.5-0.5-2.125-1.45-3.5-2-1.825-0.55-1 0 1.275 1.225 1 1.5 0.4 0.725 1.5 1 1.775 0.725 1.5 1-0.275 0.95 0 1.5 0.95 0.775 1.5 0.5 0.775-0.95 0.5-1.5-0.05-0.775 0.5-0.5 0.775 1.175 0.5 2-0.05 1.725 0.5 2 1.225 0.05 1.5-0.5 0.95-0.775 1.5-0.5 0.775 0.725 0.5 1-0.275 0.725 0 1-0.4 0.95-1.5 1.5-1.775 0.775-1.5 0.5 0.275-0.725 0-1-0.725-0.05-1 0.5-1.4 0.55-2.5 0-2.675-0.55-3.5 0-1.95 0.55-2.5 0-0.55-0.775 0-0.5 0.775 0.05 0.5-0.5-1.175-0.55-2 0-1.275 0.775-1 0.5 0.05-0.725-0.5-1-1.45-1.85-2-3.5-0.55-3.675 0-4.5 2.125-2.625 3.5-4c1.607-1.607 4.999-2.321 9.5-2m226.5 4.5c-0.275 0-0.95 0.675-1.5 1.5s-1.225 1.95-1.5 2.5-0.05 0.775 0.5 0.5 1.45-1.4 2-2.5 0.775-2 0.5-2m-247 10.5c2.475 0.275 6.075 1.175 8 2l3.5 1.5-3 0.5c-1.65 0.275-4.8 0.05-7-0.5s-4.45-1.675-5-2.5c-0.557-0.835 0.994-1.278 3.5-1m98.5 6c0.55 0.825 0.1 3.075-1 5s-1.775 5.525-1.5 8 0.05 8.55-0.5 13.5c-0.694 6.245-1.459 8.388-2.5 7-0.825-1.1-1.275-3.575-1-5.5s0.5-5.975 0.5-9 1.125-8.875 2.5-13 2.95-6.825 3.5-6m160 1c0.55 1.375 0.325 4.3-0.5 6.5s-1.725 3.325-2 2.5-0.05-3.75 0.5-6.5c0.764-3.821 1.236-4.41 2-2.5m-50 0.5h3l-4.5 3.5c-2.475 1.925-5.625 3.725-7 4-1.747 0.349-1.295-0.705 1.5-3.5 2.2-2.2 5.35-4 7-4m6 6.5c2.077 0.346 0.231 1.577-6 4-4.95 1.925-9.225 3.275-9.5 3s0.4-1.175 1.5-2 4.025-2.4 6.5-3.5 5.85-1.775 7.5-1.5m51.5 2.5c0.275 0 0.275 0.9 0 2l-2 8c-0.825 3.3-2.175 7.575-3 9.5l-1.5 3.5-0.5-4.5c-0.275-2.475 0.4-5.85 1.5-7.5s2.675-4.8 3.5-7 1.725-4 2-4m-349 3c0.825 0 3.975 2.7 7 6s5.725 6.9 6 8 0.05 4.25-0.5 7c-0.764 3.821-1.236 4.41-2 2.5-0.55-1.375-1.45-2.275-2-2s-1.9 0.275-3 0-3.125-0.95-4.5-1.5-3.175-0.55-4 0-1.275 0.325-1-0.5 1.4-1.725 2.5-2 1.775-1.175 1.5-2-0.275-3.525 0-6 0.05-5.625-0.5-7-0.325-2.5 0.5-2.5m379 1.5c1.484 0.297 2.297 1.516 2 3l-2.5 12.5-6 2c-3.3 1.1-6.675 1.55-7.5 1s-1.275-2.575-1-4.5 1.175-4.625 2-6 1.725-1.825 2-1 0.95 1.275 1.5 1 2.35-2.3 4-4.5c1.732-2.31 4.056-3.789 5.5-3.5m-268 11.5c0.275 0 0.275 0.225 0 0.5s-0.275 0.95 0 1.5 0.95 0.775 1.5 0.5 1.9 0.175 3 1 1.775 1.725 1.5 2-0.275 0.95 0 1.5 0.275 0.775 0 0.5-0.725-0.05-1 0.5-0.95 0.775-1.5 0.5-0.55-1.4 0-2.5 0.775-1.775 0.5-1.5-0.725 0.275-1 0-0.95-0.05-1.5 0.5-0.55 0.775 0 0.5 0.55 0.175 0 1-1.675 0.825-2.5 0l-1-1c0.275 0.275 0.95 0.275 1.5 0s0.55-1.175 0-2-0.775-1.95-0.5-2.5 0.725-1 1-1m183 0c1.375 0 5.65 0.675 9.5 1.5s7.9 1.05 9 0.5 2.9-1.225 4-1.5 4.475 0.4 7.5 1.5l5.5 2-5 1c-2.75 0.55-8.825 1.45-13.5 2s-9.175 0.55-10 0-3.3-1.675-5.5-2.5-4.225-1.275-4.5-1-0.95 0.275-1.5 0-0.325-1.175 0.5-2 2.625-1.5 4-1.5m-196 6c0.275 0 2.525 1.575 5 3.5s4.275 4.175 4 5-2.075 0.825-4 0-3.95-3.075-4.5-5-0.775-3.5-0.5-3.5m236 5.5c4.697 0.361 5.945 0.916 4.5 2-1.1 0.825-5.375 1.275-9.5 1s-7.275-0.725-7-1 1.625-0.95 3-1.5 5.425-0.775 9-0.5m-25 7c3.575 0.275 8.075 0.95 10 1.5l3.5 1-4.5 0.5c-2.475 0.275-7.2 0.05-10.5-0.5s-5.775-1.45-5.5-2 3.425-0.775 7-0.5m-258.5 0.5c2.2 0 3.55 0.45 3 1s-2.8 1.225-5 1.5c-2.267 0.283-3.567-0.15-3-1 0.55-0.825 2.8-1.5 5-1.5m67 11c1.1 1.1 2.675 2.9 3.5 4s2.4 4.25 3.5 7 1.775 6.125 1.5 7.5l-0.5 2.5-2-3c-1.1-1.65-2.9-4.8-4-7s-2.45-6.025-3-8.5l-1-4.5 2 2m-21.5 6c1.375 1.1 2.05 1.55 1.5 1s-1.45-0.775-2-0.5-0.775 0.05-0.5-0.5-0.175-0.775-1-0.5-1.275 0.05-1-0.5 1.625-0.1 3 1m40 4c0.275 1.65-0.175 6.15-1 10s-1.95 7.675-2.5 8.5-0.1-3.675 1-10 2.225-10.15 2.5-8.5m-53-0.5c1.375 0.825 2.725 1.275 3 1s0.95 0.175 1.5 1 1.225 1.275 1.5 1 0.95-0.275 1.5 0 0.775 0.95 0.5 1.5-2.75-0.575-5.5-2.5-3.875-2.825-2.5-2m226.5-1.5c2.2 0 6.25 0.45 9 1s7.025 1.9 9.5 3 4.275 2.225 4 2.5 0.175 1.625 1 3 4.2 3.4 7.5 4.5 6.9 3.125 8 4.5l2 2.5-4.5-1.5c-2.475-0.825-6.3-2.175-8.5-3s-6.25-2.4-9-3.5-7.475-3.125-10.5-4.5-7.3-3.175-9.5-4-3.775-2.175-3.5-3 2.3-1.5 4.5-1.5m-202.5 4c1.375 1.1 2.95 2.675 3.5 3.5s1.225 1.275 1.5 1 0.95-0.05 1.5 0.5 2.35 4.6 4 9 2.775 10.7 2.5 14l-0.5 6-2.5-4c-1.375-2.2-2.95-4.675-3.5-5.5s-3.25-4.425-6-8-5.675-7.4-6.5-8.5-1.95-1.775-2.5-1.5-0.775 0.05-0.5-0.5 1.175-0.55 2 0 1.725 0.775 2 0.5 1.4 0.4 2.5 1.5 3.35 2.9 5 4 2.775 2.45 2.5 3-0.275 0.775 0 0.5 0.95-0.275 1.5 0 0.55-0.625 0-2-2.8-5.425-5-9c-2.267-3.684-2.917-5.633-1.5-4.5m-30.5 4c1.1 0 4.7 1.125 8 2.5s6.9 3.175 8 4c1.474 1.106 1.211 1.237-1 0.5-1.65-0.55-5.475-1.9-8.5-3s-6.175-2.45-7-3c-0.882-0.588-0.676-1 0.5-1m217 1c1.65 0 2.55 0.45 2 1s-3.25 2.125-6 3.5-7.025 3.4-9.5 4.5l-4.5 2 3-3c1.65-1.65 5.025-4.125 7.5-5.5s5.85-2.5 7.5-2.5m-21.5 1c0.275 0-0.175 1.35-1 3s-3.975 4.8-7 7-5.95 5.35-6.5 7-0.775 3.45-0.5 4 0.275 2.35 0 4l-0.5 3 2-3.5c1.1-1.925 4.25-4.625 7-6s5.9-3.625 7-5 2.45-2.05 3-1.5 2.125 0.55 3.5 0 5.2-2.35 8.5-4 6.9-2.775 8-2.5-3.4 2.975-10 6c-6.802 3.118-12.65 6.8-13.5 8.5-1.029 2.058-0.872 2.843 0.5 2.5 1.1-0.275 4.475-1.4 7.5-2.5s7.975-3.575 11-5.5 10.45-4.85 16.5-6.5 13.025-2.775 15.5-2.5 5.625 0.725 7 1c1.484 0.297 1.891 0.906 1 1.5-0.825 0.55-1.95 0.775-2.5 0.5s-1.225-0.05-1.5 0.5-2.75 0.775-5.5 0.5l-5-0.5 6 2c3.3 1.1 6.675 2.9 7.5 4s1.275 1.55 1 1-0.725-0.775-1-0.5-1.4 0.275-2.5 0-3.8-1.4-6-2.5-3.775-1.55-3.5-1 0.05 1.225-0.5 1.5-1.675 0.95-2.5 1.5-0.15 0.775 1.5 0.5 3.9 0.175 5 1c1.445 1.084 0.197 1.639-4.5 2-3.575 0.275-6.275-0.175-6-1s-1.975-1.275-5-1-8.2 1.625-11.5 3c-3.755 1.564-6.936 4.184-8.5 7-1.375 2.475-2.725 4.275-3 4s-0.95-0.05-1.5 0.5 0.125-1.475 1.5-4.5 1.825-5.05 1-4.5-4.875 2.575-9 4.5-9.525 5.975-12 9l-4.5 5.5-1-4c-0.55-2.2-0.775-4.45-0.5-5s0.05-1.675-0.5-2.5-1.45-0.6-2 0.5-1.45 1.55-2 1-1-4.825-1-9.5 0.675-11.2 1.5-14.5 1.95-5.55 2.5-5 0.775 3.475 0.5 6.5-0.05 5.05 0.5 4.5 3.475-2.8 6.5-5 6.175-4.9 7-6 1.725-2 2-2m-39 3c0.275 0 0.275 1.35 0 3s0.175 7.05 1 12 1.275 11.025 1 13.5-0.275 5.625 0 7c0.352 1.762 0.205 1.91-0.5 0.5-0.55-1.1-1.225-1.775-1.5-1.5s-2.075-0.625-4-2-4.175-3.85-5-5.5-1.95-2.775-2.5-2.5-0.775 0.275-0.5 0-0.175-1.625-1-3c-1.2-2-0.8-2 2 0 1.925 1.375 4.625 4.075 6 6s2.95 4.175 3.5 5 0.775 0.15 0.5-1.5-0.95-4.8-1.5-7-1.225-7.375-1.5-11.5 0.4-8.625 1.5-10 2.225-2.5 2.5-2.5m-170.5 1c1.1 0 8.075 1.35 15.5 3s15.975 4.575 19 6.5 4.825 3.725 4 4-2.175 0.05-3-0.5-5.1-2.125-9.5-3.5-10.7-2.5-14-2.5-7.125 0.45-8.5 1-5.425 1.45-9 2-8.3 0.55-10.5 0l-4-1 10.5-3c1.925-0.55 4.4-2.125 5.5-3.5s2.9-2.5 4-2.5m183.5 4c0.275 0 0.275 0.675 0 1.5s-0.5 6-0.5 11.5-0.45 9.775-1 9.5-1.45-3.425-2-7-0.1-8.525 1-11 2.225-4.5 2.5-4.5m-171 7.5c2.475 0.275 4.275 0.95 4 1.5s-1.625 0.775-3 0.5-2.95-0.275-3.5 0-2.125 0.275-3.5 0c-1.827-0.365-1.962-0.769-0.5-1.5 1.1-0.55 4.025-0.775 6.5-0.5m218 6.5c0.275 0 0.275 0.675 0 1.5s-2.075 5.1-4 9.5l-3.5 8-0.5-3.5c-0.275-1.925 0.175-5.3 1-7.5s2.625-4.9 4-6 2.725-2 3-2m30 2.5c0.825 0.275 2.4 0.95 3.5 1.5s4.025 2.125 6.5 3.5 5.4 3.625 6.5 5l2 2.5-5.5-1.5c-3.025-0.825-5.275-1.05-5-0.5s2.75 3.025 5.5 5.5 5.675 5.625 6.5 7 1.275 2.725 1 3-0.275 0.95 0 1.5-0.625-0.35-2-2-3.4-3.675-4.5-4.5-2.9-2.85-4-4.5-3.35-4.35-5-6-5.475-3.45-8.5-4-5.725-1.45-6-2 1.525-1.225 4-1.5 4.275-1.175 4-2 0.175-1.275 1-1m-269 2c1.375 0.275 2.95 0.275 3.5 0s2.125-0.275 3.5 0 3.625 0.95 5 1.5 2.725 0.775 3 0.5 0.725-0.275 1 0 1.85 1.625 3.5 3l3 2.5-3.5-1c-1.925-0.55-6.425-1.225-10-1.5s-8.3-0.05-10.5 0.5-6.025 1.9-8.5 3-5.4 1.775-6.5 1.5c-1.235-0.309-1.427-1.265-0.5-2.5 0.825-1.1 4.425-3.35 8-5s7.625-2.775 9-2.5m100.5 13.5c0.55 1.1 0.775 2.45 0.5 3s-0.725-0.35-1-2c-0.294-1.764-0.088-2.176 0.5-1m-77.5 8c1.925 0.55 4.85 3.25 6.5 6 1.96 3.267 2.653 6.733 2 10-0.55 2.75-2.125 7.7-3.5 11l-2.5 6-1.5-3.5c-0.825-1.925-2.175-5.525-3-8s-1.275-6.3-1-8.5 0.05-5.575-0.5-7.5-1.225-3.05-1.5-2.5-0.725 0.775-1 0.5 0.175-1.4 1-2.5 3.075-1.55 5-1m211 2c0.275 0 0.05 0.675-0.5 1.5s-2.125 2.625-3.5 4-2.275 2.95-2 3.5 1.85 2.125 3.5 3.5l3 2.5-10-1 0.5-4c0.284-2.272 2.228-5.296 4.5-7 2.2-1.65 4.225-3 4.5-3m5.5 2c0.55 0 1.225 0.45 1.5 1s0.725 3.025 1 5.5 0.275 7.65 0 11.5-0.95 7.225-1.5 7.5-1.45-1.3-2-3.5-1.225-6.475-1.5-9.5-0.05-7.075 0.5-9 1.45-3.5 2-3.5m22.5 0.5c1.375 0.275 3.85 2.975 5.5 6s2.775 7.75 2.5 10.5-1.175 6.8-2 9-2.4 4.675-3.5 5.5c-1.598 1.199-1.799 0.898-1-1.5 0.55-1.65 1.45-5.475 2-8.5s0.55-7.75 0-10.5-2.125-6.35-3.5-8c-2-2.4-2-2.9 0-2.5m-15 0.5c0.275 0 1.85 0.9 3.5 2s3.225 2.45 3.5 3 0.275 3.025 0 5.5-0.275 4.725 0 5 0.05 0.725-0.5 1-0.55 0.95 0 1.5 0.1 0.775-1 0.5-1.775-1.4-1.5-2.5 0.95-2.675 1.5-3.5 0.775-2.4 0.5-3.5-1.85-3.575-3.5-5.5-2.775-3.5-2.5-3.5m-243 4c0.825 0 3.75 0.45 6.5 1s5.225 1.9 5.5 3c0.343 1.372-0.755 1.686-3.5 1-2.2-0.55-4.225-0.775-4.5-0.5s-2.075 0.05-4-0.5c-2.027-0.579-3.079-1.631-2.5-2.5 0.55-0.825 1.675-1.5 2.5-1.5m36 0c0.275 0 1.175 1.575 2 3.5s1.275 4.85 1 6.5-1.175 4.575-2 6.5l-1.5 3.5-1-4.5c-0.55-2.475-0.55-6.975 0-10s1.225-5.5 1.5-5.5m181 6.5c2.16 1.543 4.266 5.371 5.5 10 1.1 4.125 3.35 9.3 5 11.5s6.15 5.35 10 7 9.925 2.775 13.5 2.5l6.5-0.5-2 2c-1.1 1.1-3.8 2.225-6 2.5s-6.7 0.05-10-0.5-7.125-1.45-8.5-2-3.85-3.025-5.5-5.5-3.9-7.2-5-10.5-2.9-8.025-4-10.5-2.225-5.4-2.5-6.5c-0.314-1.256 0.802-1.07 3 0.5m11 2.5c0.825 0-0.075 0.675-2 1.5s-2.6 0.825-1.5 0 2.675-1.5 3.5-1.5m45 5c0.275 0 1.175 2.475 2 5.5s1.95 6.175 2.5 7 0.775 1.725 0.5 2-0.275 0.725 0 1 0.05 0.95-0.5 1.5-0.55 1.45 0 2 0.775 1.225 0.5 1.5-0.275 0.95 0 1.5 0.05 0.55-0.5 0-1.45-0.775-2-0.5-0.775 0.275-0.5 0 0.05-0.725-0.5-1-0.55-0.95 0-1.5 0.55-0.775 0-0.5-1.675 0.05-2.5-0.5-1.05-4.825-0.5-9.5 1.225-8.5 1.5-8.5m-166.5 3c1.65 0 4.125 0.675 5.5 1.5s2.05 1.275 1.5 1-3.925-0.5-7.5-0.5-5.6-0.45-4.5-1 3.35-1 5-1m-13 9c2.2 0 5.8 0.45 8 1s3.775 1.225 3.5 1.5-2.975 1.4-6 2.5-7.975 1.775-11 1.5l-5.5-0.5 3.5-3c1.925-1.65 5.3-3 7.5-3m-104.5 3.5c0.825 0.275 3.075 1.175 5 2s6.2 1.5 9.5 1.5 5.55 0.45 5 1-2.8 1.225-5 1.5-5.575 0.05-7.5-0.5-4.625-2.125-6-3.5-1.825-2.275-1-2m86.5-0.5c0.55 0 0.1 1.125-1 2.5s-4.025 3.625-6.5 5-5.175 2.275-6 2 1.65-2.525 5.5-5 7.45-4.5 8-4.5m214 0.5c-0.55-0.275-1.225-0.05-1.5 0.5s0.175 1.225 1 1.5 1.725 0.275 2 0 1.625-0.275 3 0 2.275 0.05 2-0.5-1.4-1.225-2.5-1.5-2.225-0.275-2.5 0-0.95 0.275-1.5 0m10.5-0.5c0.825 0 2.175 0.45 3 1s0.15 0.55-1.5 0-2.325-1-1.5-1m-168 7c0.825 0 3.075 1.125 5 2.5s3.275 2.95 3 3.5-0.275 0.775 0 0.5 1.625-0.05 3 0.5c1.624 0.65 1.974 1.526 1 2.5-0.825 0.825-2.625 1.275-4 1s-4.075-2.75-6-5.5-2.825-5-2-5m-36.5 9c1.65 0 6.6 2.7 11 6 4.704 3.528 9.236 5.794 11 5.5 1.65-0.275 2.775-1.175 2.5-2s-0.725-1.95-1-2.5 0.85-1.225 2.5-1.5 3.225-0.95 3.5-1.5 0.725-0.775 1-0.5 0.725 0.275 1 0 1.625-0.05 3 0.5 4.75 1.45 7.5 2 6.35 2.35 8 4 3.225 5.025 3.5 7.5c0.335 3.012-0.327 4.831-2 5.5-1.496 0.598-3.102-4e-3 -4-1.5-0.825-1.375-2.4-3.85-3.5-5.5-1.49-2.235-3.529-2.873-8-2.5-3.3 0.275-5.775 0.95-5.5 1.5s-0.625 1.9-2 3c-1.566 1.252-2.126 3.308-1.5 5.5 0.55 1.925 0.55 3.275 0 3s-1.9-1.625-3-3-2.9-2.95-4-3.5-7.4-3.475-14-6.5-12.225-6.4-12.5-7.5-1.175-1.775-2-1.5-1.275 2.075-1 4 0.95 5.3 1.5 7.5 1.225 6.025 1.5 8.5-0.175 4.275-1 4-1.95-1.175-2.5-2-1.45-5.1-2-9.5-0.55-9.125 0-10.5 2.8-3.4 5-4.5 5.35-2 7-2m117 13.5c3.85 4.125 6.325 7.275 5.5 7s-3.75-2.075-6.5-4-4.775-3.725-4.5-4 0.275-0.725 0-1-0.95-1.175-1.5-2-0.775-1.95-0.5-2.5 3.65 2.375 7.5 6.5m-167-6c0.55 0.275 2.125 1.4 3.5 2.5s0.925 0.875-1-0.5-3.05-2.275-2.5-2m110.5 12c0.275 0.275 1.4 0.95 2.5 1.5s2.225 3.025 2.5 5.5-0.175 5.4-1 6.5-1.05 1.325-0.5 0.5 0.775-2.4 0.5-3.5-1.625-3.575-3-5.5-2.275-3.95-2-4.5 0.725-0.775 1-0.5m77.5 7.5c1.65 2.75 3.675 6.8 4.5 9s2.4 5.8 3.5 8l4 8c1.3 2.6 3.575 4.35 6.5 5 2.475 0.55 6.3 0.775 8.5 0.5s5.35 0.175 7 1l3 1.5-3.5 1.5c-1.925 0.825-6.2 1.275-9.5 1s-8.025-1.625-10.5-3-5.4-4.525-6.5-7-2.675-6.3-3.5-8.5-2.85-7.15-4.5-11-2.775-7.225-2.5-7.5 0.275-0.725 0-1-0.275-0.95 0-1.5 1.85 1.25 3.5 4m-250.5-3.5c1.677 0.335 1.842 0.665 0.5 1-1.1 0.275-2.225 0.05-2.5-0.5s0.625-0.775 2-0.5m228 4c2.475 2.475 4.725 5.625 5 7s0.95 2.275 1.5 2 0.775-0.275 0.5 0-0.275 0.95 0 1.5-0.4 0.55-1.5 0-3.35-3.025-5-5.5-2.775-4.725-2.5-5-0.175-1.4-1-2.5 0.525 0.025 3 2.5m-105-1.5c1.375 1.1 2.725 2.9 3 4s0.725 4.025 1 6.5 0.275 5.175 0 6-0.275 2.85 0 4.5 0.5 6.825 0.5 11.5-0.675 10.075-1.5 12-1.275 3.05-1 2.5 0.05-3.25-0.5-6-1.675-4.775-2.5-4.5-0.825 0.05 0-0.5 1.275-1.225 1-1.5-0.275-0.95 0-1.5 0.275-2.35 0-4c-0.29-1.737-1.973-3.421-4-4l-3.5-1 1.5-3.5c0.825-1.925 2.175-7.1 3-11.5s1.275-8.675 1-9.5 0.625-0.6 2 0.5m136 4.5c0.275 0.275 0.95 0.275 1.5 0s0.775-0.275 0.5 0 0.175 1.4 1 2.5 0.375 0.875-1-0.5l-2-2m-121 1.5c0.275 0 1.625 1.8 3 4s3.625 6.25 5 9 3.4 6.125 4.5 7.5 2.45 2.725 3 3 0.325 0.725-0.5 1-0.375 1.175 1 2l2.5 1.5-8 1-1-5.5c-0.55-3.025-1.675-5.95-2.5-6.5s-1.275-0.55-1 0 0.05 1.675-0.5 2.5-2.125 0.6-3.5-0.5-2.05-2.45-1.5-3 0.775-1.225 0.5-1.5-0.275-0.725 0-1 0.275-0.95 0-1.5-0.725-3.475-1-6.5-0.275-5.5 0-5.5m56 10c-0.825-0.55-1.725-0.1-2 1s-0.275 2.225 0 2.5-0.4 1.175-1.5 2c-1.474 1.106-1.211 1.237 1 0.5 1.65-0.55 3.225-1.9 3.5-3s-0.175-2.45-1-3m18.5 1c-0.55 0 0.125 0.675 1.5 1.5s3.625 1.725 5 2 0.7-0.4-1.5-1.5-4.45-2-5-2m-42.5 3.5c2.475 0.275 4.275 0.95 4 1.5s-2.3 1.225-4.5 1.5-4.675 0.05-5.5-0.5-0.825-1.45 0-2 3.525-0.775 6-0.5m114.5-0.5c1.1 0 3.125 0.675 4.5 1.5 1.897 1.138 1.295 1.379-2.5 1-2.75-0.275-4.775-0.95-4.5-1.5s1.4-1 2.5-1m-180.5 3c0.275 0-0.175 0.9-1 2s-2.4 2.225-3.5 2.5c-1.333 0.333-1.333 0.167 0-0.5 1.1-0.55 1.775-1.45 1.5-2s-0.275-0.775 0-0.5 0.95 0.05 1.5-0.5 1.225-1 1.5-1m-75 8.5c0.825 0.825 1.05 5.1 0.5 9.5s-1.45 8.225-2 8.5-0.775-4-0.5-9.5c0.297-5.941 1.109-9.391 2-8.5m81-1c0.275 0.275 0.725 0.275 1 0s2.075 0.4 4 1.5 3.725 2.45 4 3-0.175 0.775-1 0.5-1.725-0.95-2-1.5-0.725-0.775-1-0.5-1.175 0.275-2 0-1.95-1.175-2.5-2-0.775-1.275-0.5-1m27 3c0.275 0.275 0.05 2.075-0.5 4l-1 3.5 0.5-4c0.275-2.2 0.725-3.775 1-3.5m1 16.5c0.275 0 1.4 0.675 2.5 1.5s1.775 2.175 1.5 3-0.275 2.175 0 3 1.4 3.75 2.5 6.5l2 5-2.5-1.5c-1.375-0.825-3.625-2.625-5-4s-2.95-3.85-3.5-5.5-0.325-4.125 0.5-5.5 1.725-2.5 2-2.5m146 15c-0.275 0-0.95 0.45-1.5 1s-1.225 0.775-1.5 0.5-0.275-0.05 0 0.5 0.95 1.675 1.5 2.5 1.225 1.05 1.5 0.5 0.725-0.775 1-0.5 0.95-0.175 1.5-1 0.55-1.275 0-1-1.225 0.275-1.5 0-0.725-0.275-1 0-0.275-0.175 0-1 0.275-1.5 0-1.5m-39.5 5c-0.55 0-1.225 0.675-1.5 1.5s-0.05 2.4 0.5 3.5 0.55 4.25 0 7l-1 5 2-4c1.1-2.2 1.775-6.025 1.5-8.5s-0.95-4.5-1.5-4.5m13.5 8.5c-0.275-0.275-0.725-0.05-1 0.5s-0.725 1.225-1 1.5-0.05 0.725 0.5 1 0.775 0.725 0.5 1 0.175 0.05 1-0.5 1.725-0.325 2 0.5 0.05 1.275-0.5 1-1.225-0.05-1.5 0.5-0.05 0.775 0.5 0.5 1.225-0.05 1.5 0.5 0.275 1.225 0 1.5-0.05 0.275 0.5 0 1.225-0.275 1.5 0 0.725 0.275 1 0 1.85 0.625 3.5 2 4.35 2.275 6 2c1.737-0.29 2.158-0.71 1-1-1.1-0.275-3.575-1.625-5.5-3s-4.85-3.625-6.5-5-3.225-2.725-3.5-3m18.5 1.5c-1.65-0.55-2.55-0.325-2 0.5s1.225 1.275 1.5 1 1.4 0.625 2.5 2c1.6 2 1.9 2 1.5 0-0.275-1.375-1.85-2.95-3.5-3.5m-132.5 3c0.275 0 0.275 0.225 0 0.5s-0.275 1.4 0 2.5 0.95 2.675 1.5 3.5 0.775 1.725 0.5 2-0.275 0.725 0 1 0.05 1.4-0.5 2.5-2.125 2.225-3.5 2.5-4.075 0.05-6-0.5-5.975-1.225-9-1.5-6.625 0.175-8 1-3.4 1.275-4.5 1-2.45-1.175-3-2-0.775-2.625-0.5-4c0.297-1.484 0.906-1.891 1.5-1 0.55 0.825 1.45 0.6 2-0.5s2.125-2.9 3.5-4 2.95-1.775 3.5-1.5 1.675 0.95 2.5 1.5 3.075 1.675 5 2.5c2.089 0.895 4.306 0.694 5.5-0.5 1.1-1.1 2.9-2.225 4-2.5s2.675-0.95 3.5-1.5 1.725-1 2-1m-6 6c-0.275 0-0.275 0.45 0 1s1.175 1.45 2 2 0.825 0.1 0-1-1.725-2-2-2m-70 19c0.275 0 0.5 2.925 0.5 6.5s-0.45 7.175-1 8c-0.579 0.869-1.421 0.027-2-2-0.55-1.925-0.775-4.175-0.5-5l1.5-4.5c0.55-1.65 1.225-3 1.5-3m-24 14c-0.275 0-1.175 0.45-2 1s-1.725 1.45-2 2 0.625 0.1 2-1 2.275-2 2-2m154.5 8c-0.55-1.65-0.775-0.75-0.5 2s0.725 4.1 1 3 0.05-3.35-0.5-5m-11.5 27c-1.737-0.695-4.484 0.831-9 5 9-5 9-5 16.5-0.5-0.55-0.275-1.9-1.175-3-2s-3.125-1.95-4.5-2.5" fill-rule="evenodd"/>
 <metadata>
  <rdf:RDF>
   <cc:Work rdf:about="">
    <dc:title>undefined</dc:title>
   </cc:Work>
  </rdf:RDF>
 </metadata>
</svg>
